<?xml version="1.0" encoding="utf-8" ?>
<svg xmlns="http://www.w3.org/2000/svg" xmlns:xlink="http://www.w3.org/1999/xlink" width="1024" height="1024">
	<path fill="#FDFCF9" d="M0 0L1024 0L1024 1024L0 1024L0 0Z"/>
	<path fill="#421518" d="M442.927 204.281C451.805 203.266 458.844 207.313 466.489 211.114C464.7 210.789 463.447 211.593 461.947 212.457C457.725 211.222 453.775 208.846 449.445 207.586C448.813 207.097 448.17 206.626 447.534 206.142C445.928 204.918 444.949 204.539 442.927 204.281Z"/>
	<path fill="#421518" d="M731.18 388.822C732.169 384.257 733.737 380.378 736.12 376.372C746.012 359.743 761.839 349.29 780.312 344.57C769.823 349.378 759.815 355.327 751.573 363.496L749.661 365.245C742.319 371.706 736.016 380.373 731.18 388.822Z"/>
	<path fill="#421518" d="M737.908 583.104C735.701 578.412 734.89 573.164 732.438 568.502C729.745 563.381 719.993 552.642 715.828 546.824C727.416 557.447 738.897 567.918 750.978 577.978L746.729 569.306C748.524 569.781 750.023 570.919 751.873 570.993C754.697 575.64 756.719 581.344 757.831 586.651C749.2 583.775 742.498 577.602 735.968 571.468C737.147 574.486 738.79 577.794 739.427 580.952L739.004 581.918L738.236 580.381C738.188 581.374 738.198 582.067 738.506 583.016L737.908 583.104Z"/>
	<path fill="#421518" d="M508.411 740.161C520.48 729.249 527.741 722.642 534.58 707.532C532.828 720.919 527.369 728.644 518.058 737.974L518.791 737.977C526.303 737.267 533.506 731.192 540.191 727.988C535.605 733.691 529.863 739.886 522.177 740.818Q521.582 740.888 520.985 740.935L520.894 742.092C524.949 744.901 537.009 748.389 538.425 753.064C537.86 754.294 537.316 754.675 536.055 755.199C533.582 756.226 530.249 756.188 527.588 756.385L529.576 760.85L528.263 762.981C527.025 760.979 526.037 759.011 525.088 756.861C522.086 756.115 519.034 755.52 516.008 754.872C521.299 753.655 526.531 752.653 531.959 752.341C524.279 747.138 517.387 742.865 508.411 740.161Z"/>
	<path fill="#421518" d="M611.33 98.744C617.859 95.3594 625.109 93.2353 632.016 90.742C642.515 86.9517 653.133 82.6164 662.826 77.0639C663.599 78.8734 663.705 78.8213 663.04 80.812C656.351 84.6819 649.379 87.6161 642.263 90.5767C648.225 90.2319 653.892 90.0313 659.768 91.3755C663.591 92.2501 667.953 93.9824 671.82 94.189C673.275 94.5848 674.012 94.4549 674.743 95.8882C674.783 95.9679 674.795 96.0592 674.822 96.1447C678.455 99.2986 684.393 100.392 686.015 105.403C685.744 106.822 685.551 107.541 684.4 108.494C678.638 113.261 642.89 115.446 634.605 115.038C650.601 110.022 668.547 111.829 684.188 105.452Q683.118 104.618 682.012 103.834C668.227 94.0949 649.632 91.5767 633.196 94.1575C625.846 95.3116 618.679 97.5135 611.33 98.744Z"/>
	<path fill="#421518" d="M737.908 583.104L738.506 583.016C738.198 582.067 738.188 581.374 738.236 580.381L739.004 581.918L739.427 580.952C750.136 602.21 758.026 643.187 750.858 665.475C749.862 668.573 748.057 673.711 744.995 675.217C743.929 675.742 742.955 675.559 741.936 675.047C736.898 672.516 732.789 656.486 731.538 651.338C731.657 649.252 732.243 647.382 732.821 645.389C735.784 654.698 739.014 663.529 743.72 672.135C743.816 671.957 743.915 671.78 744.01 671.602C756.624 647.788 745.4 607.443 737.908 583.104Z"/>
	<path fill="#421518" d="M560.656 464.551C564.803 476.049 571.632 488.318 583.109 493.742C586.746 495.461 590.624 496.619 594.487 497.71C590.784 491.972 587.302 486.364 584.495 480.116C586.574 482.619 588.545 485.266 591.257 487.11C591.512 487.283 591.762 487.462 592.018 487.633C595.403 489.898 599.236 491.338 602.987 492.872Q606.129 494.18 609.328 495.344Q612.526 496.507 615.775 497.523Q619.023 498.54 622.314 499.406Q625.606 500.273 628.933 500.989Q632.26 501.705 635.617 502.268Q638.974 502.831 642.353 503.24Q645.732 503.649 649.126 503.903Q652.52 504.158 655.922 504.257C663.117 504.5 670.863 503.522 677.927 504.335C657.345 508.717 633.467 507.95 613.114 502.775C607.888 501.447 602.814 498.017 597.634 497.172L598.824 499.428L598.605 500.129C591.209 501.586 582.325 497.341 576.308 493.292C571.348 489.954 568.216 485.926 565.135 480.855C566.062 486.016 568.165 494.349 566.393 499.371L565.524 499.876C561.331 498.127 556.545 486.26 554.849 482.097C554.269 480.673 553.821 479.359 553.572 477.834L553.818 477.176C557.143 485.531 561.25 492.917 565.985 500.537C566.242 493.368 564.306 486.014 564.589 480.236C566.345 479.625 570.014 486.834 571.36 488.268C576.008 493.22 583.93 496.969 590.382 498.712C591.36 498.194 591.197 498.229 591.652 497.325L592.14 498.284C588.646 496.118 584.744 495.683 581.071 494.022C572.657 490.219 567.423 480.145 562.959 472.651C561.632 475.709 565.293 489.249 564.713 494.148L563.974 494.566C563.724 494.453 563.451 494.38 563.223 494.227C562.43 493.693 562.035 492.955 561.812 492.063C560.499 486.822 557.117 480.698 555.44 474.816L556.106 474.072C558.351 481.024 560.665 487.664 564.059 494.158Q562.627 479.324 560.656 464.551Z"/>
	<path fill="#421518" d="M751.573 363.496C770.094 381.208 794.743 392.894 820.763 392.419C845.462 391.968 867.123 380.332 883.929 362.762C890.246 356.158 895.404 348.771 901.393 341.939C899.112 347.099 895.793 351.829 892.473 356.377C881.035 372.044 867.292 384.646 848.958 391.672C826.87 400.136 801.626 398.324 780.257 388.595C768.455 383.222 757.766 375.401 749.661 365.245L751.573 363.496Z"/>
	<path fill="#7E6365" d="M605.07 678.576C607.816 678.256 610.213 678.33 612.788 679.458C617.976 681.73 621.579 686.345 623.674 691.495C625.963 697.123 627.045 704.662 624.489 710.321C622.861 713.927 620.486 715.562 616.901 716.961C615.351 717.034 613.725 716.993 612.19 716.764C606.977 715.986 602.441 712.93 599.542 708.565Q599.222 708.077 598.928 707.574Q598.633 707.071 598.364 706.553Q598.095 706.036 597.853 705.505Q597.61 704.975 597.395 704.433Q597.179 703.891 596.991 703.339Q596.804 702.787 596.644 702.226Q596.484 701.665 596.353 701.096Q596.221 700.528 596.119 699.954Q596.017 699.38 595.943 698.801Q595.87 698.223 595.826 697.641Q595.781 697.06 595.767 696.477Q595.752 695.894 595.767 695.311Q595.781 694.728 595.825 694.146Q595.869 693.565 595.943 692.986Q596.016 692.407 596.118 691.833Q596.221 691.259 596.352 690.691C597.578 685.292 600.368 681.423 605.07 678.576Z"/>
	<path fill="#7E6365" d="M590.384 364.065C593.711 363.768 596.012 363.593 599.109 365.158C601.509 366.371 603.208 368.315 604.001 370.899C605.585 376.068 604.124 381.92 601.58 386.521C597.751 393.445 591.786 398.269 584.177 400.475C581.023 400.904 578.402 400.847 575.48 399.43C573.064 398.258 571.463 396.155 570.722 393.592C569.148 388.151 570.693 382.051 573.453 377.265C577.235 370.705 583.08 366.083 590.384 364.065Z"/>
	<path fill="#421518" d="M671.82 94.189C684.126 92.6746 696.736 95.1298 708.275 99.3923C713.323 95.7574 717.901 94.9681 724.069 96.0186C735.296 97.9309 747.234 105.005 753.876 114.333C755.39 116.46 757.14 119.675 756.415 122.394C756.063 123.71 755.21 124.468 754.021 125.036C747.587 128.114 729.214 118.596 722.245 116.472C715.973 114.561 709.536 113.362 703.22 111.644C704.227 108.322 705.175 105.014 706.606 101.844C696.799 98.3357 685.284 95.7756 674.822 96.1447C674.795 96.0592 674.783 95.9679 674.743 95.8882C674.012 94.4549 673.275 94.5848 671.82 94.189Z"/>
	<path fill="#421518" d="M588.918 141.642C590.278 141.547 591.644 141.452 593.008 141.452C602.471 141.45 609.442 146.126 615.885 152.452C590.673 162.331 575.559 176.136 564.029 200.89C561.182 206.88 558.799 213.149 556.295 219.29Q555.587 216.215 554.987 213.116C551.479 194.567 553.398 173.836 564.325 157.96C570.399 149.136 578.395 143.623 588.918 141.642Z"/>
	<path fill="#7E6365" d="M450.093 560.702C453.623 560.892 457.047 561.89 459.883 564.079C463.256 566.681 465.041 571.161 465.389 575.322C465.914 581.583 462.915 587.278 458.941 591.894C446.75 606.059 427.325 615.089 408.83 616.536C404.328 616.433 399.651 615.467 396.019 612.64C393.847 610.949 392.534 608.707 392.219 605.963C391.483 599.56 395.368 593.078 399.328 588.334C411.355 573.93 431.287 562.308 450.093 560.702Z"/>
	<path fill="#7E6365" d="M283.07 623.202C288.001 622.976 293.083 623.855 297.38 626.381C300.49 628.209 302.68 630.87 303.462 634.431C304.798 640.513 302.402 646.871 299.18 651.975C290.466 665.777 273.306 677.76 257.438 681.374L256.864 681.455C251.105 682.235 244.508 681.941 239.784 678.119C236.999 675.867 235.675 672.5 235.438 668.993C234.833 660.059 240.372 650.528 245.957 643.917C254.912 633.316 269.036 624.386 283.07 623.202Z"/>
	<path fill="#7E6365" d="M567.268 601.093C570.629 600.934 573.449 601.471 576.401 603.148C585.16 608.128 590.29 620.865 592.829 630.125C596.516 643.571 597.091 662.425 589.768 674.83C586.268 680.758 581.618 683.821 575.117 685.546C571.868 685.58 568.947 684.962 566.039 683.472C557.414 679.051 552.431 669.243 549.611 660.381C544.898 645.567 545.614 627.698 552.885 613.794C556.155 607.543 560.428 603.205 567.268 601.093Z"/>
	<path fill="#421518" d="M798.051 252.143C778.527 233.727 736.843 180.935 735.962 154.479C735.8 149.608 736.743 143.361 740.267 139.74C743.117 136.813 747.497 135.004 751.583 135.091C752.729 135.115 753.587 135.317 754.598 135.89C757.343 137.445 759.675 141.094 762.086 143.247C764.748 145.625 767.873 147.557 770.635 149.853C779.425 157.163 788.106 164.891 795.861 173.306Q801.128 179.081 806 185.192Q810.872 191.303 815.328 197.724Q819.785 204.144 823.806 210.846Q827.827 217.548 831.395 224.502C834.289 230.055 836.723 235.835 839.59 241.389C857.954 234.58 893.475 223.501 911.563 231.961C923.028 237.324 929.144 253.345 932.945 264.495C944.599 298.678 938.922 335.583 923.164 367.366C897.213 419.707 837.182 455.484 785.251 477.564Q769.7 484.024 753.994 490.099C748.833 492.037 742.211 493.633 737.451 496.276C736.33 496.899 735.977 497.906 735.505 499.017C731.849 512.258 730.646 528.829 733.77 542.35C739.01 552.387 747.251 560.45 751.873 570.993C750.023 570.919 748.524 569.781 746.729 569.306C741.489 562.724 735.941 552.181 732.602 544.432C732.486 544.159 732.366 543.888 732.255 543.613C726.92 530.45 727.548 510.725 732.92 497.653C723.341 500.788 713.566 503.311 703.975 506.494C710.883 501.004 744.055 489.804 753.674 486.211C810.832 464.86 872.601 432.905 909.577 382.846C929.535 355.827 938.757 323.944 933.542 290.45C931.311 276.128 923.274 247.322 911.085 238.935C900.319 231.527 877.428 236.242 865.345 238.679C841.405 243.506 820.816 249.369 806.12 270.328C802.52 275.463 800.066 281.254 796.602 286.468L796.461 285.901L796.965 286.33L797.37 285.994L796.624 285.126C803.26 269.004 810.758 256.985 826.043 247.887L829.682 245.556C832.375 244.495 835.016 243.405 837.629 242.158C830.232 230.063 823.602 217.442 815.796 205.596C803.077 186.294 787.29 169.801 770.235 154.332C766.102 150.583 760.643 143.701 755.144 142.47Q754.841 142.4 754.533 142.361Q754.225 142.322 753.914 142.314Q753.604 142.305 753.294 142.328Q752.984 142.351 752.678 142.404Q752.372 142.458 752.073 142.541Q751.774 142.625 751.485 142.738Q751.195 142.851 750.919 142.992Q750.642 143.134 750.381 143.302C747.046 145.441 745.422 150.005 744.776 153.715C741.334 173.459 761.053 204.433 772.425 219.957C780.332 230.752 789.764 241.296 799.457 250.523C801.396 249.196 803.318 247.746 805.354 246.578C804.802 248.223 804.112 248.802 802.575 249.694C802.202 249.911 801.379 250.266 800.993 250.449C799.3 251.252 798.735 251.934 797.646 253.397C796.074 255.509 792.293 259.265 791.912 261.821L792.778 262.127C788.953 267.677 785.296 273.245 781.928 279.091C784.269 269.178 790.957 259.307 798.051 252.143Z"/>
	<path fill="#421518" d="M880.823 239.179C886.106 238.308 892.89 238.488 898.175 239.123C902.707 239.668 906.355 240.848 909.15 244.659C915.151 252.839 916.469 266.839 915.084 276.61C913.761 285.938 909.993 295.061 902.163 300.757C893.611 306.978 883.171 307.163 873.116 305.734C865.725 303.966 858.541 301.187 852.242 296.881C845.203 292.069 838.291 285.07 836.88 276.314C835.854 269.942 838.682 263.962 842.476 259.02C851.967 246.657 865.773 241.22 880.823 239.179Z"/>
	<path fill="#FDFCF9" d="M898.985 244.896C900.052 245.048 901.323 245.173 902.292 245.673C903.879 246.494 904.51 247.641 905.062 249.275C904.982 250.739 904.659 251.657 903.732 252.785C896.178 261.974 873.732 268.596 862.264 269.758C859.611 269.304 857.568 268.288 855.201 267.081C871.422 261.926 885.655 255.603 898.985 244.896Z"/>
	<path fill="#FDFCF9" d="M799.457 250.523C789.764 241.296 780.332 230.752 772.425 219.957C761.053 204.433 741.334 173.459 744.776 153.715C745.422 150.005 747.046 145.441 750.381 143.302Q750.642 143.134 750.919 142.992Q751.195 142.851 751.485 142.738Q751.774 142.625 752.073 142.541Q752.372 142.458 752.678 142.404Q752.984 142.351 753.294 142.328Q753.604 142.305 753.914 142.314Q754.225 142.322 754.533 142.361Q754.841 142.4 755.144 142.47C760.643 143.701 766.102 150.583 770.235 154.332C787.29 169.801 803.077 186.294 815.796 205.596C823.602 217.442 830.232 230.063 837.629 242.158C835.016 243.405 832.375 244.495 829.682 245.556L826.043 247.887C821.806 245.526 817.113 244.693 812.401 246.081C804.699 248.349 797.688 256.079 792.778 262.127L791.912 261.821C792.293 259.265 796.074 255.509 797.646 253.397C798.735 251.934 799.3 251.252 800.993 250.449C801.379 250.266 802.202 249.911 802.575 249.694C804.112 248.802 804.802 248.223 805.354 246.578C803.318 247.746 801.396 249.196 799.457 250.523Z"/>
	<path fill="#421518" d="M770.711 194.259C771.79 193.973 773.108 193.715 774.067 193.138C775.719 192.144 776.869 189.689 777.139 187.849C777.514 185.29 776.429 182.725 774.848 180.758C773.583 179.184 771.378 177.644 769.253 177.749C767.292 177.847 766.726 178.77 765.366 180.015L764.808 179.761C764.217 178.757 763.735 177.833 763.373 176.719C761.957 172.36 759.807 163.215 762.654 159.217C763.467 158.074 764.268 157.818 765.626 157.792C771.796 157.675 779.847 166.376 783.764 170.511C797.409 184.915 824.138 223.681 823.557 242.78L829.682 245.556L826.043 247.887C821.806 245.526 817.113 244.693 812.401 246.081C804.699 248.349 797.688 256.079 792.778 262.127L791.912 261.821C792.293 259.265 796.074 255.509 797.646 253.397C798.735 251.934 799.3 251.252 800.993 250.449C801.379 250.266 802.202 249.911 802.575 249.694C804.112 248.802 804.802 248.223 805.354 246.578C807.208 244.303 811.434 243.675 814.166 243.134C790.889 234.529 783.208 213.534 770.711 194.259Z"/>
	<defs>
		<linearGradient id="gradient_0" gradientUnits="userSpaceOnUse" x1="730.9245" y1="135.29764" x2="404.82401" y2="469.58548">
			<stop offset="0" stop-color="#430E0D"/>
			<stop offset="1" stop-color="#371121"/>
		</linearGradient>
	</defs>
	<path fill="url(#gradient_0)" d="M466.489 211.114C468.713 204.547 473.408 198.102 477.125 192.263C490.31 171.552 507.188 153.462 525.753 137.478C531.461 132.564 537.808 128.532 543.511 123.669C548.507 119.407 552.991 113.933 557.298 108.984C562.52 102.985 567.739 96.9758 572.467 90.5756C577.155 84.2294 592.12 60.4051 596.226 57.4219C597.319 56.6274 597.825 56.6674 599.112 56.8876C601.267 58.5687 602.168 60.7795 602.908 63.3645C605.831 73.5802 599.705 84.1474 594.94 92.7793C610.788 79.7251 630.57 68.1903 651.662 67.5117C656.083 67.3695 662.772 67.2453 666.065 70.6296C667.083 71.6761 667.74 73.0431 667.561 74.5337C667.225 77.3203 665.104 79.1795 663.04 80.812C663.705 78.8213 663.599 78.8734 662.826 77.0639C664.07 76.0418 664.269 76.087 664.533 74.5277C663.938 73.0521 663.537 72.206 661.985 71.6119C651.479 67.5921 627.414 76.7444 617.595 81.6796C607.972 86.5164 599.055 93.2691 590.547 99.855C585.222 103.977 580.182 108.591 574.097 111.59C585.714 100.286 600.184 86.8418 600.395 69.2001C600.43 66.2515 600.194 62.9378 598.783 60.3165L598.065 59.9231L597.682 60.7739L597.311 60.6693C592.36 66.8281 588.467 73.8889 584.053 80.4437Q574.635 94.5208 563.268 107.077C557.265 113.782 551.095 120.644 544.694 126.958C536.822 134.724 528.389 141.923 520.521 149.717C507.315 162.799 494.998 176.479 484.023 191.492C479.329 197.913 474.519 204.614 470.796 211.654C483.508 212.982 496.081 213.055 504.827 223.791C530.102 254.814 551.632 334.99 555.74 374.698C557.805 394.663 557.497 415.417 555.277 435.359C554.394 443.298 551.727 452.379 552.735 460.26C553.325 464.877 554.966 469.555 556.106 474.072L555.44 474.816C557.117 480.698 560.499 486.822 561.812 492.063C562.035 492.955 562.43 493.693 563.223 494.227C563.451 494.38 563.724 494.453 563.974 494.566L564.713 494.148C565.293 489.249 561.632 475.709 562.959 472.651C567.423 480.145 572.657 490.219 581.071 494.022C584.744 495.683 588.646 496.118 592.14 498.284L591.652 497.325C591.197 498.229 591.36 498.194 590.382 498.712C583.93 496.969 576.008 493.22 571.36 488.268C570.014 486.834 566.345 479.625 564.589 480.236C564.306 486.014 566.242 493.368 565.985 500.537C561.25 492.917 557.143 485.531 553.818 477.176L553.572 477.834C552.713 475.274 551.924 472.727 551.23 470.118C549.709 488.592 545.306 517.03 530.409 529.518C523.515 535.297 514.911 535.832 506.364 534.882C497.814 533.932 486.721 531.07 479.599 526.142C479.108 525.628 478.567 525.261 477.993 524.844L476.885 525.165C471.957 523.462 467.157 520.487 462.691 517.81C449.891 510.136 438.496 501.169 427.146 491.504C397.344 466.126 373.607 434.072 359.759 397.301C354.615 383.639 350.971 369.832 347.429 355.704C362.068 306.197 393.316 256.513 438.892 230.153C435.838 229.182 431.831 228.383 429.657 225.865C428.314 224.309 428.47 222.963 428.622 221.063Q428.996 221.997 429.407 222.916L430.026 223.078C430.577 222.532 431.091 221.986 431.598 221.397C432.255 220.634 432.392 220.69 433.301 220.371L434.012 220.714C433.31 221.327 432.584 221.903 431.858 222.488L431.844 223.563C436.409 229.865 452.476 222.766 457.48 226.483C456.181 227.827 453.531 228.17 451.746 228.748C425.061 237.387 387.909 287.539 373.454 311.66C364.799 326.104 358.086 340.69 350.511 355.623C353.293 364.315 357.122 372.815 360.762 381.172C366.971 395.425 373.467 409.837 381.416 423.22C402.557 458.808 431.321 490.309 466.466 512.444C474.689 517.623 483.008 522.404 492.084 525.958C500.822 529.38 512.457 533.158 521.579 528.892C528.011 525.883 530.808 518.731 533.01 512.443C547.516 471.006 550.786 409.834 546.232 366.254C542.376 329.354 529.56 278.151 513.499 244.836C509.196 235.911 503.358 222.775 493.734 218.686C489.324 216.812 484.618 216.458 479.912 215.99C473.965 215.399 468.285 214.704 462.626 212.702L461.947 212.457C463.447 211.593 464.7 210.789 466.489 211.114Z"/>
	<path fill="#7E6365" d="M314.269 535.354C316.982 534.048 320.862 533.753 323.826 533.194C347.382 528.752 378.898 528.497 402.43 533.62C402.314 533.784 402.184 533.94 402.083 534.113C401.114 535.765 400.825 538.075 400.244 539.916C398.977 543.931 397.395 548.317 395.015 551.825C379.184 575.16 345.002 593.51 318.491 601.921C303.878 606.557 279.563 612.315 265.249 604.457C262.069 602.71 259.279 600.301 258.254 596.717C256.431 590.339 259.121 583.119 262.385 577.635C269.696 565.354 281.727 555.007 293.603 547.307C296.444 545.464 313.538 536.761 314.269 535.354Z"/>
	<path fill="#421518" d="M636.558 198.176C657.291 195.162 678.78 205.221 695.151 216.958C720.344 235.022 739.319 265.397 744.262 296.057C746.674 311.02 745.466 328.868 736.234 341.462C727.123 353.893 712.504 358.755 697.883 361.091C673.428 364.915 647.253 355.375 627.734 341.11Q626.769 340.391 625.822 339.648Q624.875 338.906 623.946 338.141Q623.017 337.375 622.108 336.587Q621.198 335.799 620.308 334.989Q619.418 334.179 618.548 333.347Q617.678 332.516 616.829 331.663Q615.98 330.811 615.152 329.937Q614.324 329.064 613.517 328.171Q612.711 327.278 611.926 326.365Q611.142 325.452 610.38 324.521Q609.619 323.589 608.88 322.639Q608.141 321.689 607.426 320.721Q606.711 319.753 606.019 318.768Q605.328 317.783 604.661 316.781Q603.994 315.779 603.352 314.761Q602.71 313.744 602.093 312.71Q601.476 311.677 600.885 310.629Q600.293 309.581 599.727 308.519Q599.162 307.457 598.622 306.381Q598.083 305.305 597.57 304.216Q597.057 303.128 596.571 302.027Q596.085 300.926 595.626 299.814Q595.167 298.701 594.735 297.578Q594.303 296.454 593.899 295.321Q593.495 294.187 593.119 293.044Q592.743 291.901 592.395 290.749Q592.047 289.597 591.728 288.436Q591.408 287.276 591.117 286.108Q590.826 284.941 590.564 283.766Q590.301 282.592 590.068 281.411Q589.834 280.23 589.63 279.045Q589.425 277.859 589.25 276.668C586.154 255.779 590.163 233.607 603.072 216.542C611.556 205.326 622.836 200.145 636.558 198.176Z"/>
	<path fill="#FDFCF9" d="M642.294 207.13C654.649 205.864 665.138 208.718 676.852 212.215C671.838 212.536 666.237 213.716 662.413 217.161C656.762 222.25 656.178 230.244 655.781 237.324C658.691 236.694 662.577 235.593 665.287 237.36C667.757 238.972 669.121 241.889 669.563 244.722C670.034 247.743 669.462 251.09 667.577 253.554C665.9 255.747 663.976 256.315 661.336 256.668L660.73 256.743C660.682 257.022 660.587 257.296 660.587 257.578C660.591 264.549 678.924 286.042 684.234 291.093C693.219 299.64 706.214 307.174 718.978 306.814C724.546 306.656 730.556 305.152 734.424 300.898C739.24 295.603 738.361 290.414 738.082 283.911Q739.536 288.854 740.529 293.909Q741.522 298.965 742.045 304.09C743.444 317.954 741.572 332.306 732.548 343.406C724.356 351.743 714.709 356.216 703.269 358.388C680.606 362.69 656.257 356.63 637.364 343.621Q636.386 342.952 635.425 342.259Q634.464 341.566 633.52 340.849Q632.577 340.133 631.651 339.394Q630.725 338.654 629.818 337.892Q628.91 337.131 628.022 336.347Q627.133 335.563 626.264 334.757Q625.396 333.951 624.547 333.125Q623.698 332.298 622.87 331.451Q622.042 330.603 621.235 329.736Q620.427 328.868 619.642 327.981Q618.856 327.094 618.093 326.188Q617.329 325.282 616.588 324.358Q615.847 323.433 615.129 322.491Q614.411 321.548 613.716 320.588Q613.022 319.629 612.351 318.652Q611.68 317.675 611.033 316.683Q610.387 315.69 609.765 314.681Q609.143 313.673 608.545 312.649Q607.948 311.626 607.377 310.588Q606.805 309.55 606.259 308.499Q605.713 307.447 605.193 306.383Q604.673 305.318 604.179 304.241Q603.685 303.164 603.218 302.075Q602.751 300.986 602.311 299.886Q601.871 298.786 601.458 297.676Q601.045 296.565 600.659 295.445Q600.274 294.324 599.916 293.195Q599.558 292.065 599.228 290.927Q598.898 289.789 598.596 288.644Q598.294 287.498 598.02 286.345Q597.746 285.192 597.501 284.033Q597.256 282.874 597.039 281.709C593.724 263.659 596.739 243.975 607.29 228.726C615.669 216.614 627.958 209.738 642.294 207.13Z"/>
	<path fill="#7E6365" d="M445.918 215.478C444.53 214.4 443.054 213.325 441.977 211.92C440.972 210.609 439.856 208.684 440.351 206.966C440.804 205.394 441.634 205.072 442.927 204.281C444.949 204.539 445.928 204.918 447.534 206.142C448.17 206.626 448.813 207.097 449.445 207.586C453.775 208.846 457.725 211.222 461.947 212.457L462.626 212.702C468.285 214.704 473.965 215.399 479.912 215.99C484.618 216.458 489.324 216.812 493.734 218.686C503.358 222.775 509.196 235.911 513.499 244.836C529.56 278.151 542.376 329.354 546.232 366.254C550.786 409.834 547.516 471.006 533.01 512.443C530.808 518.731 528.011 525.883 521.579 528.892C512.457 533.158 500.822 529.38 492.084 525.958C483.008 522.404 474.689 517.623 466.466 512.444C431.321 490.309 402.557 458.808 381.416 423.22C373.467 409.837 366.971 395.425 360.762 381.172C357.122 372.815 353.293 364.315 350.511 355.623C358.086 340.69 364.799 326.104 373.454 311.66C387.909 287.539 425.061 237.387 451.746 228.748C453.531 228.17 456.181 227.827 457.48 226.483C452.476 222.766 436.409 229.865 431.844 223.563L431.858 222.488C432.584 221.903 433.31 221.327 434.012 220.714L433.301 220.371C432.392 220.69 432.255 220.634 431.598 221.397C431.091 221.986 430.577 222.532 430.026 223.078L429.407 222.916Q428.996 221.997 428.622 221.063C433.683 215.979 439.164 215.716 445.918 215.478Z"/>
	<path fill="#421518" d="M445.918 215.478C444.53 214.4 443.054 213.325 441.977 211.92C440.972 210.609 439.856 208.684 440.351 206.966C440.804 205.394 441.634 205.072 442.927 204.281C444.949 204.539 445.928 204.918 447.534 206.142C448.17 206.626 448.813 207.097 449.445 207.586C447.676 207.456 445.971 207.104 444.353 207.991C444.014 208.597 443.674 208.79 443.946 209.513C445.513 213.672 459.866 220.05 464.457 221.919C460.119 221.784 453.778 220.789 450.076 218.47C444.286 218.489 439.559 219.068 434.012 220.714L433.301 220.371C432.392 220.69 432.255 220.634 431.598 221.397C431.091 221.986 430.577 222.532 430.026 223.078L429.407 222.916Q428.996 221.997 428.622 221.063C433.683 215.979 439.164 215.716 445.918 215.478Z"/>
	<path fill="#421518" d="M133.041 561.417C119.711 546.499 113.846 527.304 112.942 507.572C111.305 471.841 125.796 437.268 149.856 411.182C163.343 396.559 180.492 384.49 200.984 383.805C206.423 383.623 214.088 384.633 218.061 388.605C219.107 389.651 219.875 391.046 219.654 392.572C218.554 400.185 203.467 403.579 197.335 406.109Q191.911 408.346 186.922 411.434C171.985 420.828 161.885 437.503 158.057 454.497C152.667 478.423 155.884 504.953 169.148 525.854C180.017 542.98 197.096 557.094 217.242 561.415C226.463 563.393 242.422 564.711 251.427 561.422C256.564 559.546 263.998 552.917 269.353 549.923C292.147 537.179 315.024 528.578 341.2 525.952C357.332 524.334 372.961 524.291 389.025 526.633Q399.543 528.199 409.981 530.237C424.704 533.212 440.838 538.061 455.888 534.769C463.499 533.104 470.391 529.349 476.885 525.165L477.993 524.844C478.567 525.261 479.108 525.628 479.599 526.142C470.706 535.334 455.169 539.206 442.761 539.432C431.296 539.641 413.488 536.751 402.43 533.62C378.898 528.497 347.382 528.752 323.826 533.194C320.862 533.753 316.982 534.048 314.269 535.354C301.783 538.107 290.24 543.054 278.973 548.994C255.365 561.442 236.296 576.971 221.751 599.613C216.367 607.995 211.295 616.709 207.406 625.889C195.556 653.856 191.295 686.943 189.545 717.044C188.723 731.184 189.095 745.956 186.732 759.925C184.479 773.235 175.42 775.588 170.569 786.137C168.57 790.485 167.724 795.489 166.763 800.161C160.719 829.555 163.062 861.818 169.475 890.95C171.417 899.768 178.044 923.372 182.87 929.72C184.05 931.272 185.941 932.541 187.574 933.592C204.154 944.262 228.675 946.694 248.124 946.502C247.344 931.255 244.116 914.969 234.641 902.559C231.766 898.794 228.262 895.643 225.131 892.116C238.1 899.74 245.983 911.924 249.814 926.375C251.61 933.149 251.809 939.641 250.935 946.559C261.574 945.584 271.874 944.012 282.218 941.301C281.084 924.182 277.709 906.072 266.4 892.512C263.249 888.733 259.386 885.834 256.07 882.279C255.541 881.949 254.895 881.5 254.304 881.309C248.55 879.449 221.633 890.953 215.599 893.994C210.435 896.596 205.535 899.805 200.46 902.591C213.842 890 230.096 881.931 247.79 877.448C245.061 873.18 242.755 869.013 241.345 864.119C237.697 851.458 238.679 833.618 245.156 821.981C268.752 812.022 287.026 802.478 308.15 787.834C316.747 781.875 324.571 774.908 332.104 767.667C363.967 737.037 382.314 700.848 390.18 657.495L389.843 657.618L390.279 657.021C390.346 663.407 389.205 669.31 388.032 675.536C382.507 704.869 368.84 731.171 350.247 754.343C392.293 773.534 440.861 782.871 487.08 781.956C503.212 781.637 519.037 779.705 535.089 778.42C533.075 773.117 530.744 768.075 528.263 762.981L529.576 760.85C538.42 776.874 546.63 793.227 555.755 809.107C579.021 849.597 605.768 889.851 636.121 925.375C640.183 930.128 651.323 943.175 655.545 946.269C657.514 947.711 659.956 948.531 662.284 949.2C678.584 953.877 697.902 954.591 714.786 953.091C712.812 937.984 707.367 920.143 697.586 908.257C694.018 903.92 689.742 900.432 685.773 896.505C690.235 899.312 694.811 902.126 698.742 905.66C709.672 915.485 715.858 930.821 719.025 944.866C719.631 947.553 720.096 950.147 720.216 952.905C730.567 950.998 741.022 948.788 750.881 945.018C746.826 920.803 742.083 907.09 725.714 888.351C740.149 897.243 747.98 912.814 751.8 928.856C752.989 933.849 753.568 938.826 753.971 943.936C759.465 941.216 765.083 938.609 769.284 933.996C765.982 918.866 762.527 898.206 748.44 889.055C735.338 880.543 715.861 883.623 701.525 886.881C687.312 890.111 673.887 897.565 662.296 906.179C671.869 893.554 692.105 883.539 707.485 880.929C707.288 880.226 707.424 880.442 707.028 879.924C701.058 872.114 696.12 863.197 691.682 854.452C674.17 819.946 669.884 789.574 662.456 752.437C656.094 720.626 649.698 688.884 638.257 658.42C629.153 634.178 617.607 610.254 602.305 589.275C596.189 580.889 589.097 573.251 582.926 564.905C591.235 572.542 599.374 580.19 606.434 589.036C630.863 619.648 646.224 661.27 655.769 698.823C659.356 712.934 662.009 727.347 664.952 741.604C677.438 734.776 688.421 724.07 697.368 713.085C711.932 695.204 720.392 679.038 725.817 656.464C726.989 651.587 728.533 646.296 728.356 641.251C728.087 633.562 725.336 625.51 724.549 617.719C727.522 626.868 730.537 636.04 732.821 645.389C732.243 647.382 731.657 649.252 731.538 651.338C731.487 651.493 731.433 651.648 731.383 651.804C729.823 656.704 729.564 661.937 728.196 666.889C726.616 672.613 723.544 677.873 721.978 683.578C719.128 693.955 717.487 704.737 714.657 715.178C708.291 738.666 692.67 781.095 676.42 798.958C679.484 813.826 684.539 829.435 691.244 843.069C696.475 854.644 703.591 870.161 711.125 880.212C712.257 879.771 713.429 879.575 714.624 879.367C726.372 877.317 740.467 877.274 750.6 884.463C764.543 894.356 769.464 916.884 772.326 932.881C770.451 937.866 767.334 941.313 762.916 944.226C741.059 958.638 698.823 960.616 673.292 955.463C666.836 954.161 659.84 952.44 654.18 948.939C649.817 946.241 646.029 942.181 642.39 938.597C623.427 919.918 608.366 898.754 593.694 876.676C586.489 879.686 578.217 881.525 570.497 882.591C553.494 884.939 529.767 883.081 515.757 872.034C512.407 869.392 509.574 866.078 509.176 861.668C508.323 852.221 519.401 840.262 525.133 833.661C534.469 825.347 541.725 814.182 548.702 803.921C544.988 796.443 541.104 788.72 536.789 781.573C510.211 788.699 481.214 789.123 453.91 786.887C446.362 786.269 438.892 785.062 431.363 784.356C419.346 795.263 411.791 800.862 396.993 807.932C398.488 817.242 401.21 826.372 403.266 835.572C404.336 839.447 405.305 843.388 406.557 847.207C417.973 844.643 431.713 841.692 442.344 848.257C454.078 855.502 461.742 872.237 464.495 885.231C465.214 888.62 465.561 891.878 465.58 895.344C446.262 909.389 406.511 909.309 383.273 905.581C367.743 903.09 352.509 898.891 342.96 885.654C333.499 872.541 327.149 858.356 320.897 843.547C317.092 845.286 304.493 845.291 299.871 845.654C282.404 847.028 261.533 847.841 244.445 850.64C244.779 860.407 246.778 867.718 250.486 876.726C261.033 875.255 273.599 874.395 282.722 881.035C294.597 889.679 301.103 907.449 302.987 921.454C303.606 926.055 303.543 930.713 303.506 935.346C290.202 947.917 258.636 951.281 240.659 950.835C222.773 950.392 194.381 947.467 181.578 934.095C171.385 923.451 164.008 892.067 161.655 877.264C160.981 873.022 160.246 862.312 159.223 859.133C156.558 836.034 157.374 801.13 169.198 781.114C173.615 773.637 180.554 769.453 182.216 760.197C184.039 750.047 182.355 733.779 182.811 722.62C184.394 683.852 191.622 650.975 207.418 615.414C192.335 617.677 171.657 617.678 157.77 610.806C155.874 609.868 153.813 608.545 153.26 606.353C152.85 604.726 153.67 602.721 154.634 601.412C157.029 598.158 162.855 598.089 166.495 597.625C151.349 592.466 137.246 589.371 126.537 576.153C124.1 573.145 119.901 566.751 120.934 562.799C121.251 561.584 121.947 560.924 123.041 560.404C126.072 558.964 130.108 560.423 133.041 561.417Z"/>
	<path fill="#FDFCF9" d="M256.07 882.279L255.476 880.895C258.831 878.906 270.864 880.675 274.752 881.735C282.495 883.847 286.099 890.742 289.731 897.371Q292.694 902.789 294.772 908.605C295.925 911.828 301.404 931.936 299.964 934.49C299.82 934.746 299.552 934.909 299.346 935.119C294.796 937.286 290.085 938.971 285.358 940.7C286.113 923.338 282.117 905.838 270.024 892.728C266.313 888.704 261.19 884.297 256.07 882.279Z"/>
	<path fill="#BCABA9" d="M705.799 709.882C706.387 713.199 703.004 720.616 701.84 723.958C694.203 745.878 686.11 768.61 674.001 788.525L672.695 781.063Q669.296 762.619 665.482 744.256C682.239 737.688 695.077 723.837 705.799 709.882Z"/>
	<path fill="#FDFCF9" d="M307.441 794.266C309.578 811.227 314.582 827.713 320.897 843.547C317.092 845.286 304.493 845.291 299.871 845.654C282.404 847.028 261.533 847.841 244.445 850.64C244.342 841.644 244.882 833.005 246.806 824.198C253.041 821.444 259.654 819.463 265.944 816.779C280.726 810.469 293.909 802.896 307.441 794.266Z"/>
	<path fill="#BCABA9" d="M511.671 859.357C515.169 848.401 529.065 838.137 536.785 829.528C542.419 823.245 547.399 816.837 551.924 809.708C555.658 815.285 558.829 821.442 562.277 827.223Q573.758 846.77 586.355 865.617C587.512 866.091 587.761 866.465 588.317 867.66C588.361 867.755 588.351 867.866 588.368 867.969C588.914 869.556 590.024 871.065 590.906 872.497C569.572 878.24 542.557 881.284 522.024 871.035C516.628 868.341 513.54 865.07 511.671 859.357Z"/>
	<path fill="#421518" d="M586.355 865.617C587.512 866.091 587.761 866.465 588.317 867.66C588.361 867.755 588.351 867.866 588.368 867.969C584.007 870.463 578.477 871.965 573.534 872.735C571.824 871.28 568.475 870.876 566.298 870.318C573.256 869.665 579.774 867.905 586.355 865.617Z"/>
	<path fill="#421518" d="M538.89 869.131C548.117 870.42 556.98 870.839 566.298 870.318C568.475 870.876 571.824 871.28 573.534 872.735C562.541 874.057 548.99 874.304 538.89 869.131Z"/>
	<path fill="#7E6365" d="M120.702 482.931C124.141 454.169 145.871 418.727 168.473 401.077C179.896 392.156 194.416 386.701 209.051 388.572C211.368 388.869 214.467 389.316 216.036 391.232C216.106 392.257 216.163 392.502 215.475 393.354C211.911 397.767 196.756 400.642 191.067 402.969C158.813 416.162 146.485 453.22 148.378 485.718C149.723 508.808 161.192 531.736 178.513 547.003C191.212 558.196 208.743 566.29 225.761 567.395C220.344 567.571 214.936 568.725 209.483 568.962C194.938 569.592 178.051 565.593 165.784 557.625C145.634 544.537 131.48 521.673 124.432 498.998C122.791 493.718 121.832 488.331 120.702 482.931Z"/>
	<path fill="#FDFCF9" d="M120.702 482.931C121.832 488.331 122.791 493.718 124.432 498.998C131.48 521.673 145.634 544.537 165.784 557.625C178.051 565.593 194.938 569.592 209.483 568.962C214.936 568.725 220.344 567.571 225.761 567.395Q235.232 567.879 244.684 567.119Q241.89 569.349 239.225 571.732Q236.56 574.115 234.032 576.643Q231.504 579.171 229.121 581.836Q226.738 584.501 224.508 587.295Q222.278 590.089 220.207 593.003Q218.137 595.918 216.232 598.943Q214.327 601.968 212.594 605.095Q210.861 608.222 209.306 611.441C195.492 612.425 175.837 613.83 162.903 608.402C161.111 607.65 159.119 606.59 158.384 604.693C158.464 604.523 158.526 604.344 158.623 604.184C161.416 599.575 178.889 599.48 184.331 598.812C187.294 598.448 190.056 597.798 192.897 596.895C174.966 595.618 157.647 592.996 142.089 583.291C137.013 580.125 126.016 570.675 125.045 564.712C124.934 564.03 125.248 563.876 125.617 563.358C132.52 561.461 146.118 572.13 152.418 575.244C154.567 576.307 156.763 576.898 159.087 577.448C148.53 569.723 139.504 564.152 131.89 553.016C118.047 532.768 116.363 506.484 120.702 482.931Z"/>
	<path fill="#BCABA9" d="M348.554 756.82C369.148 773.252 401.751 779.727 427.308 784.205C413.448 794.892 403.729 801.364 387.954 809.39L394.275 808.144C395.647 822.133 398.206 834.546 403.173 847.729C391.804 850.578 381.885 854.705 371.694 860.513Q375.674 859.37 379.635 858.166C394.011 853.792 426.046 843.806 439.118 851.193C452.098 858.527 458.697 879.814 462.172 893.479C458.787 895.47 455.297 896.882 451.605 898.187C451.819 884.787 446.324 870.568 436.925 860.962C434.283 858.262 431.272 856.001 428.27 853.721L428.505 854.076C430.577 857.143 433.368 859.71 435.355 862.809C442.094 873.319 445.867 887.495 448.39 899.64C443.224 900.935 438.088 901.855 432.828 902.663C428.895 902.488 423.465 904.492 419.797 902.713L419.325 901.321C419.873 896.875 418.486 891.74 417.042 887.539C412.568 874.519 404.374 864.897 392.046 858.796C407.39 871.989 409.04 882.407 416.004 900.228L416.352 901.107C416.42 901.701 416.33 902.069 416.205 902.646C416.02 902.73 415.843 902.832 415.65 902.896C413.1 903.747 409.055 903.197 406.396 903.059C390.838 902.257 372.626 900.073 358.744 892.701C336.851 881.075 316.757 816.125 309.46 792.82C324.494 782.603 337.308 771.094 348.554 756.82Z"/>
	<path fill="#BCABA9" d="M829.755 838.08C831.117 801.38 862.875 755.532 889.232 731.041C898.035 722.861 907.857 715.777 918.975 711.111C910.62 721.943 901.425 732.072 892.915 742.771C868.594 773.35 852.288 803.02 842.139 840.84C853.255 818.84 870.297 797.467 894.509 789.548L895.907 789.097C868.125 812.312 860.535 826.339 844.924 857.348C878.318 863.811 977.038 876.966 996.512 905.317C998.717 908.526 999.969 912.304 999.202 916.201C997.727 923.695 989.966 929.905 983.848 933.813C946.378 957.74 858.859 967.506 814.52 972.356Q781.186 975.804 747.783 978.496Q714.38 981.189 680.924 983.124Q647.468 985.059 613.978 986.236Q580.487 987.413 546.978 987.832Q513.469 988.25 479.959 987.909Q446.449 987.569 412.955 986.469Q379.462 985.37 346.002 983.512Q312.541 981.655 279.132 979.04C220.538 974.28 161.014 969.169 103.571 956.168C83.9645 951.73 38.5528 940.919 27.9796 923.59C25.8412 920.085 24.8894 915.621 26.0223 911.614C28.5994 902.497 38.8359 895.429 46.7594 891.224C62.3811 882.935 78.927 879.427 95.3338 873.438C86.3274 865.76 76.9061 858.202 65.9054 853.577C61.66 851.792 57.2699 850.58 52.9699 848.98C66.826 845.538 79.4898 846.818 91.8044 854.285C98.26 858.199 103.487 863.347 108.637 868.801C102.194 842.161 83.2371 810.87 64.0781 791.298C84.101 801.565 108.172 825.476 115.203 847.332C116.182 850.375 116.733 853.509 117.285 856.652C117.89 831.303 129.387 810.913 147.45 793.632Q149.343 791.798 151.315 790.049C139.323 816.695 128.814 835.144 128.344 865.807C132.648 864.98 157.226 861.099 158.962 859.626L159.223 859.133C160.246 862.312 160.981 873.022 161.655 877.264C164.008 892.067 171.385 923.451 181.578 934.095C194.381 947.467 222.773 950.392 240.659 950.835C258.636 951.281 290.202 947.917 303.506 935.346C303.543 930.713 303.606 926.055 302.987 921.454C301.103 907.449 294.597 889.679 282.722 881.035C273.599 874.395 261.033 875.255 250.486 876.726C246.778 867.718 244.779 860.407 244.445 850.64C261.533 847.841 282.404 847.028 299.871 845.654C304.493 845.291 317.092 845.286 320.897 843.547C327.149 858.356 333.499 872.541 342.96 885.654C352.509 898.891 367.743 903.09 383.273 905.581C406.511 909.309 446.262 909.389 465.58 895.344C465.561 891.878 465.214 888.62 464.495 885.231C461.742 872.237 454.078 855.502 442.344 848.257C431.713 841.692 417.973 844.643 406.557 847.207C405.305 843.388 404.336 839.447 403.266 835.572C401.21 826.372 398.488 817.242 396.993 807.932C411.791 800.862 419.346 795.263 431.363 784.356C438.892 785.062 446.362 786.269 453.91 786.887C481.214 789.123 510.211 788.699 536.789 781.573C541.104 788.72 544.988 796.443 548.702 803.921C541.725 814.182 534.469 825.347 525.133 833.661C519.401 840.262 508.323 852.221 509.176 861.668C509.574 866.078 512.407 869.392 515.757 872.034C529.767 883.081 553.494 884.939 570.497 882.591C578.217 881.525 586.489 879.686 593.694 876.676C608.366 898.754 623.427 919.918 642.39 938.597C646.029 942.181 649.817 946.241 654.18 948.939C659.84 952.44 666.836 954.161 673.292 955.463C698.823 960.616 741.059 958.638 762.916 944.226C767.334 941.313 770.451 937.866 772.326 932.881C769.464 916.884 764.543 894.356 750.6 884.463C740.467 877.274 726.372 877.317 714.624 879.367C713.429 879.575 712.257 879.771 711.125 880.212C703.591 870.161 696.475 854.644 691.244 843.069C701.437 844.665 711.934 844.62 722.217 845.38L763.737 848.764C780.76 850.069 797.941 851.127 814.759 854.2C801.5 844.576 787.783 835.806 773.176 828.369C793.325 829.94 808.168 837.889 822.088 852.43C812.909 819.889 801.423 796.176 781.295 769.083C776.629 762.802 772.034 756.346 766.653 750.65C775.07 755.946 783.302 761.501 790.68 768.208C803.609 779.961 815.298 797.302 821.761 813.424C824.986 821.467 826.99 829.884 829.755 838.08Z"/>
	<path fill="#7E6365" d="M894.453 907.094C896.016 907.055 897.707 906.945 899.214 907.443C900.697 907.933 901.556 908.773 902.259 910.117L901.828 911.275C900.444 912.502 899.045 912.623 897.266 912.935C895.933 912.813 894.547 912.704 893.237 912.43C891.648 912.098 890.376 911.306 889.51 909.927L889.816 908.847C891.312 907.69 892.62 907.454 894.453 907.094Z"/>
	<path fill="#7E6365" d="M539.501 917.067C541.588 916.932 544.082 916.802 545.755 918.336C546.89 919.377 546.838 919.681 546.852 921.117C546.086 922.648 544.998 923.103 543.559 923.872C541.498 924.035 538.684 924.288 536.954 922.884C536.007 922.116 536.141 921.561 536.172 920.478C536.923 918.856 538.093 918.111 539.501 917.067Z"/>
	<path fill="#7E6365" d="M560.049 915.662C562.437 915.455 564.841 915.271 567.232 915.524C569.148 915.726 570.537 915.966 571.788 917.489C571.583 918.977 571.314 919.092 570.267 920.206C567.554 920.998 564.879 921.222 562.083 920.688C560.468 920.379 559.689 919.931 558.816 918.555C558.936 917.187 559.167 916.712 560.049 915.662Z"/>
	<path fill="#7E6365" d="M526.221 957.538C526.9 957.512 527.562 957.49 528.241 957.533C530.689 957.688 533.581 958.104 535.263 960.057L535.168 961.083C533.774 962.506 531.998 962.864 530.149 963.421C528.503 963.537 526.347 963.883 524.739 963.517C523.042 963.131 521.902 962.596 521.039 961.112L521.572 959.884C523.062 958.731 524.455 958.173 526.221 957.538Z"/>
	<path fill="#7E6365" d="M549.008 957.677C550.366 957.786 552.191 957.953 553.381 958.674C554.552 959.384 554.637 959.681 554.918 960.914C554.674 961.463 554.647 961.599 554.238 962.124C552.476 964.395 549.092 964.077 546.552 964.073C545.76 963.984 544.937 963.804 544.16 963.63C542.635 963.288 541.631 962.898 540.764 961.581L541.142 960.432C543.717 958.252 545.805 958.09 549.008 957.677Z"/>
	<path fill="#7E6365" d="M873.019 922.609C874.423 922.481 875.852 922.323 877.262 922.305C879.875 922.272 881.878 922.901 883.768 924.721C883.888 925.474 884.138 925.767 883.641 926.432C882.214 928.339 879.308 928.533 877.12 928.904C874.519 929.083 871.5 929.245 869.034 928.29C867.632 927.747 866.751 927.211 866.117 925.842L866.633 924.794C868.545 923.36 870.732 923.093 873.019 922.609Z"/>
	<path fill="#7E6365" d="M103.459 920.584C106.509 920.373 109.192 920.116 112.134 921.194C113.873 921.831 115.147 922.371 115.913 924.105L115.373 925.259C113.772 926.363 112.35 926.877 110.494 927.433C106.268 928.034 102.019 928.647 98.3201 925.939C98.0558 925.281 97.6896 924.925 98.0126 924.223C98.8906 922.315 101.677 921.371 103.459 920.584Z"/>
	<path fill="#7E6365" d="M916.619 906.132C917.858 906.038 919.193 906.105 920.404 906.383C922.841 906.941 924.43 907.859 925.806 909.941C925.882 910.73 926.096 911.205 925.669 911.924C924.499 913.897 921.854 914.132 919.804 914.582C915.69 914.495 912.535 914.365 909.253 911.675C908.611 910.288 908.589 910.393 909.09 908.955C911.233 906.967 913.821 906.612 916.619 906.132Z"/>
	<path fill="#7E6365" d="M487.209 933.604C492.411 933.346 500.766 933.082 504.824 936.75C505.812 937.643 505.934 938.219 505.978 939.498C503.947 942.777 498.99 943.52 495.466 944.406C491.385 944.919 487.162 945.113 483.128 944.13C480.467 943.482 478.018 942.547 476.543 940.142C476.509 939.333 476.334 938.978 476.819 938.272C478.753 935.458 484.018 934.256 487.209 933.604Z"/>
	<path fill="#7E6365" d="M144.283 929.707C149.574 929.211 157.878 929.069 162.236 932.483C163.47 933.45 164.426 934.818 164.455 936.442C164.476 937.625 163.969 938.705 163.184 939.566C159.797 943.284 152.284 943.442 147.56 943.583C141.644 943.656 133.729 944.095 128.672 940.549C127.297 939.585 126.624 938.631 126.291 936.957C126.447 935.98 126.6 935.474 127.227 934.672C130.458 930.535 139.445 930.116 144.283 929.707Z"/>
	<path fill="#FDFCF9" d="M431.363 784.356C438.892 785.062 446.362 786.269 453.91 786.887C481.214 789.123 510.211 788.699 536.789 781.573C541.104 788.72 544.988 796.443 548.702 803.921C541.725 814.182 534.469 825.347 525.133 833.661C517.971 833.41 510.745 833.143 503.581 833.3C508.373 819.128 514.855 807.657 527.224 798.858C517.492 798.118 509.152 801.231 501.784 807.621C494.339 814.078 490.907 822.827 489.708 832.435C483.962 819.191 476.093 806.548 462.059 800.928C457.552 799.123 452.813 798.412 448.067 797.536C460.834 805.935 471.351 819.023 477.462 833.013C457.546 832.083 437.448 833.63 417.557 834.663C412.813 834.909 408.005 835.49 403.266 835.572C401.21 826.372 398.488 817.242 396.993 807.932C411.791 800.862 419.346 795.263 431.363 784.356Z"/>
</svg>
