<?xml version="1.0" encoding="utf-8" ?>
<svg xmlns="http://www.w3.org/2000/svg" xmlns:xlink="http://www.w3.org/1999/xlink" width="1024" height="1024">
	<path fill="#FEFEFC" d="M0 0L1024 0L1024 832.3L1024 1024L0 1024L0 924.368L0 0Z"/>
	<path fill="#3A1717" d="M542.068 597.168C543.703 596.108 544.712 595.864 546.646 595.721L546.937 600.912C545.223 600.71 543.57 601.237 541.91 601.615C542.158 600.104 542.55 598.666 542.068 597.168Z"/>
	<path fill="#7E4B35" d="M759.106 263.389C759.857 263.375 759.858 263.356 760.723 263.444C764.447 263.821 785.666 270.237 787.575 272.695L787.054 274.695C786.532 274.824 786.306 274.902 785.72 274.925C781.661 275.085 762.068 268.723 759.522 265.99C758.914 265.337 759.125 264.242 759.106 263.389Z"/>
	<path fill="#7E4B35" d="M780.581 202.647C781.07 202.56 781.209 202.521 781.771 202.501C783.12 202.452 784.089 202.344 785.061 203.295L784.624 204.272C779.024 208.766 766.242 210.373 758.991 212.865C758.293 212.991 757.443 213.218 756.738 213.191C755.417 213.141 755.249 212.821 754.411 211.911L754.644 210.848C758.644 206.758 774.543 203.734 780.581 202.647Z"/>
	<path fill="#7E4B35" d="M729.337 166.257C732.168 162.247 742.113 147.996 746.293 146.813C746.481 146.76 746.679 146.756 746.872 146.727C747.768 147.58 747.666 147.607 747.755 148.859C744.413 155.295 739.222 161.726 734.354 167.09C733.088 168.798 731.778 170.866 730.17 172.259C729.138 173.154 727.788 173.993 726.387 173.832C726.011 172.578 726.255 172.474 726.592 171.248C727.099 169.403 728.303 167.851 729.337 166.257Z"/>
	<path fill="#90A968" d="M913.453 643.488L914.213 643.127C923.965 665.204 917.737 725.942 912.407 749.718C911.166 752.68 910.385 755.848 908.502 758.483L907.344 758.93C907.972 752.024 909.805 744.885 910.665 737.921C913.823 712.378 915.786 687.004 914.613 661.258C914.345 655.364 914.283 649.33 913.453 643.488Z"/>
	<path fill="#EA7A64" d="M759.724 646.467C754.736 641.911 750.391 636.096 747.928 629.764C745.708 624.056 744.711 616.661 747.359 610.967C748.469 608.58 750.351 606.318 752.941 605.504C754.661 604.963 756.123 605.269 757.703 606.061C768.016 611.23 768.274 623.25 769.123 633.257C769.311 635.467 769.231 638.272 770.013 640.352C770.113 640.618 770.224 640.88 770.329 641.144C765.621 642.308 763.206 642.831 759.724 646.467Z"/>
	<path fill="#ABBF83" d="M762.154 748.827Q762.853 747.479 763.617 746.167Q764.381 744.854 765.207 743.58Q766.034 742.306 766.921 741.074Q767.809 739.841 768.755 738.653Q769.701 737.466 770.703 736.325Q771.706 735.184 772.763 734.094Q773.819 733.003 774.928 731.965Q776.036 730.927 777.193 729.944Q778.351 728.961 779.555 728.035Q780.758 727.109 782.005 726.243Q783.253 725.377 784.541 724.572Q785.828 723.767 787.154 723.025Q788.479 722.284 789.839 721.608Q791.198 720.932 792.589 720.322Q793.98 719.713 795.399 719.171Q796.818 718.63 798.261 718.158C801.324 717.188 805.01 716.023 808.066 717.418C808.926 718.336 809.414 719 809.399 720.319C809.341 725.753 799.312 734.201 795.357 737.365C786.296 744.613 770.76 754.167 759.564 756.925C759.613 756.795 759.659 756.664 759.712 756.536C762.947 748.755 778.847 737.613 786.271 734.148C787.753 733.456 796.103 727.584 796.501 726.479C794.041 725.727 776.986 737.913 773.865 740.266C770.679 742.668 766.372 747.182 762.763 748.603C762.562 748.682 762.357 748.752 762.154 748.827Z"/>
	<path fill="#90A968" d="M86.5877 655.428C87.8185 657.653 87.9333 659.396 87.6659 661.893C86.0968 668.447 85.3558 675.381 84.4724 682.063Q83.8617 688.538 83.5001 695.032Q83.1384 701.527 83.0263 708.03Q82.9142 714.533 83.0519 721.036Q83.1895 727.538 83.5767 734.031Q83.9638 740.523 84.5999 746.996Q85.2361 753.469 86.1202 759.913Q87.0043 766.357 88.1352 772.762Q89.266 779.167 90.6419 785.524C92.6956 794.63 94.7306 803.908 97.769 812.738C99.0882 816.572 108.459 838.033 108.247 839.396C107.036 839.213 105.969 838.955 104.808 838.565C102.976 834.187 100.766 829.965 99.0515 825.538C97.1889 820.729 88.5421 795.328 88.7229 791.862C86.3553 785.709 85.1459 778.914 83.8779 772.455C78.0912 742.981 76.096 710.843 81.2551 681.114C81.9779 672.594 84.1859 663.62 86.5877 655.428Z"/>
	<path fill="#90A968" d="M764.558 688.353C765.791 695.552 760.556 713.82 759.641 722.102C758.525 732.205 758.596 742.316 758.664 752.463L762.154 748.827C762.357 748.752 762.562 748.682 762.763 748.603C766.372 747.182 770.679 742.668 773.865 740.266C776.986 737.913 794.041 725.727 796.501 726.479C796.103 727.584 787.753 733.456 786.271 734.148C778.847 737.613 762.947 748.755 759.712 756.536C759.659 756.664 759.613 756.795 759.564 756.925L759.018 757.494C759.144 759.356 759.425 761.099 759.793 762.928L758.49 763.467L757.057 762.788C753.107 757.289 748.508 752.4 744.779 746.692C739.206 738.162 727.148 712.313 727.045 702.208C727.029 700.654 727.11 699.957 728.153 698.806C728.628 698.815 728.719 698.765 729.139 698.952C734.322 701.258 746.541 721.35 749.734 727.41C751.765 731.266 753.399 735.344 755.052 739.372C755.079 722.539 759.077 705.715 763.9 689.657L764.558 688.353Z"/>
	<path fill="#EA7A64" d="M772.419 641.54C779.924 630.732 786.911 621.616 800.718 619.086C805.281 618.25 810.749 618.284 814.682 621.072Q815.098 621.361 815.482 621.692Q815.866 622.023 816.213 622.393Q816.56 622.763 816.866 623.167Q817.172 623.57 817.435 624.004Q817.697 624.438 817.912 624.897Q818.128 625.356 818.294 625.835Q818.46 626.314 818.575 626.807Q818.689 627.301 818.752 627.804C819.288 632.024 817.092 635.926 814.461 639.037C807.201 647.624 794.668 652.853 784.083 655.784C793.307 658.856 803.913 663.708 808.343 673.044C809.79 676.094 810.325 679.659 809.006 682.851C807.996 685.298 806.004 687.138 803.518 688.029C799.05 689.63 794.066 687.95 790.048 685.869C783.322 682.385 778.37 677.261 773.425 671.65C772.195 676.509 770.667 680.255 767.591 684.259C766.559 685.601 765.323 686.844 764.558 688.353L763.9 689.657C763.801 689.751 763.707 689.85 763.604 689.94C761.669 691.63 758.675 693.291 756.021 692.869C754.697 692.658 753.694 691.711 752.984 690.627C748.865 684.338 750.846 675.169 754.436 669.067C755.672 666.968 757.746 665.062 758.156 662.621C756.644 661.04 750.87 665.447 748.871 666.158C745.815 667.246 742.222 667.609 738.995 667.483C733.34 667.263 725.703 665.822 721.838 661.398C720.705 660.101 719.973 658.466 720.12 656.717C720.311 654.45 721.857 652.615 723.624 651.317C733.1 644.357 747.676 645.334 758.496 647.266L759.724 646.467C763.206 642.831 765.621 642.308 770.329 641.144L772.419 641.54Z"/>
	<path fill="#8CB6A1" d="M770.329 641.144L772.419 641.54C777.597 645.89 779.792 648.841 781.321 655.427C779.815 659.505 777.624 664.081 773.37 665.888C771.28 666.776 769.071 666.67 767.02 665.727C763.034 663.895 760.235 659.486 758.018 655.848C757.925 652.878 758.021 650.204 758.496 647.266L759.724 646.467C763.206 642.831 765.621 642.308 770.329 641.144Z"/>
	<path fill="#EA7A64" d="M82.0954 618.616C83.9787 603.777 85.0415 583.206 98.0092 573.316C99.8625 571.902 102.109 570.71 104.518 571.005C106.131 571.202 107.57 572.121 108.527 573.414C111.746 577.765 110.509 585.261 109.553 590.239C107.774 599.513 103.831 607.916 99.5133 616.235L99.863 615.859C107.64 607.398 123.309 586.013 135.412 585.451C136.528 585.399 137.67 585.609 138.56 586.331C139.811 587.347 140.182 589.082 140.193 590.614C140.27 600.983 126.312 615.097 119.136 621.932Q117.008 623.965 114.728 625.825C123.957 624.179 137.294 623.016 145.357 628.935C147.706 630.66 149.495 633.129 149.872 636.071C150.219 638.776 149.368 641.449 147.705 643.587C144.03 648.312 137.429 650.158 131.699 650.714C127.195 651.151 122.811 650.813 118.332 650.288C122.91 654.631 126.389 659.563 126.656 666.108C126.817 670.037 125.742 674.079 123.036 677.019C120.293 680.002 116.369 681.352 112.38 681.417C105.642 681.528 99.4353 678.334 94.7557 673.65C91.1062 669.998 90.2677 666.036 87.6659 661.893C87.9333 659.396 87.8185 657.653 86.5877 655.428L85.1255 650.732C78.5224 659.453 71.1308 667.034 59.7713 668.651C56.4039 669.13 52.6108 668.995 49.8585 666.737C47.9933 665.206 46.9561 662.992 46.7833 660.603C46.4201 655.578 49.4721 650.803 52.7268 647.238C57.701 641.789 63.5093 638.042 70.4522 635.606C61.9926 629.328 54.7352 620.988 53.2439 610.173C52.7203 606.377 52.8694 602.064 55.3389 598.914C56.7834 597.072 58.8355 596.003 61.1704 595.853C65.0827 595.6 68.7775 597.907 71.4871 600.522C76.5458 605.403 79.8446 612.042 82.0954 618.616Z"/>
	<path fill="#F1D17F" d="M90.691 625.053C91.9115 625.201 93.3231 625.385 94.4288 625.939C96.4782 626.965 98.0055 629.321 98.6631 631.453C99.4359 633.957 99.1651 636.884 97.8439 639.16C96.3867 641.67 94.2768 642.591 91.5755 643.274C91.1655 643.26 90.7552 643.249 90.346 643.219C88.0161 643.05 85.6361 642.648 84.1179 640.679C82.0778 638.033 82.7778 634.075 83.0933 630.989C85.2107 627.791 86.9626 626.199 90.691 625.053Z"/>
	<path fill="#ABBF83" d="M888.786 579.487C887.029 567.131 888.13 554.091 892.602 542.386C895.284 535.368 899.909 528.976 907.051 525.995C911.358 524.198 916.107 523.93 920.406 525.886C925.376 528.148 928.719 532.661 930.561 537.688C935.403 550.904 931.606 567.549 926.045 579.92C934.422 572.304 942.989 566.802 954.497 565.487C960.434 564.808 967.298 565.236 972.051 569.254C974.774 571.555 976.166 574.73 976.326 578.265C977.281 599.383 946.329 623.131 930.276 633.117C927 635.156 916.279 640.288 914.473 642.68C914.369 642.818 914.3 642.978 914.213 643.127L913.453 643.488C911.395 643.614 908.256 645.748 906.367 646.71C894.435 652.786 880.903 660.113 867.161 657.049L866.639 656.513C863.577 653.347 861.94 649.985 862.146 645.503C862.556 636.574 870.144 628.655 876.299 622.925C869.14 618.955 863.17 614.575 858.128 608.044C851.337 599.248 846.211 586.82 847.86 575.526C848.521 571.002 850.584 566.515 854.389 563.804C857.598 561.517 861.483 561.02 865.288 561.779C875.143 563.744 883.272 571.523 888.786 579.487Z"/>
	<path fill="#F1D17F" d="M903.965 591.597C906.951 591.388 909.664 591.488 912.126 593.432C913.941 594.865 914.817 596.942 914.981 599.214C915.352 604.361 912.292 609.634 908.951 613.34C905.478 617.194 901.844 619.368 896.629 619.691C893.615 619.267 891.284 618.31 888.644 616.798L888.368 616.314C886.239 612.522 885.363 608.881 886.698 604.608C887.768 601.183 890.904 597.486 894.602 596.89C895.38 596.765 897.32 596.851 897.939 596.408C900.157 594.823 901.384 592.981 903.965 591.597Z"/>
	<path fill="#ABBF83" d="M912.407 749.718C912.55 749.61 912.706 749.516 912.838 749.393C913.739 748.545 921.236 736.047 922.859 733.591C936.755 712.565 951.655 688.9 972.822 674.49C975.733 672.509 981.73 668.399 985.291 668.413C986.52 668.418 987.446 668.907 988.098 669.958C991.433 675.339 983.838 697.276 981.355 703.412C966.852 739.249 940.623 767.264 913.378 793.793C925.529 798.21 938.094 801.634 950.428 805.519C975.172 813.314 1000.32 821.627 1024 832.3L1024 1024L0 1024L0 924.368C6.04278 920.479 11.8145 916.18 17.8818 912.313Q46.7383 894.061 77.2459 878.728C84.8133 875.018 92.3502 871.174 100.332 868.425C83.5999 860.862 66.7857 853.03 53.8624 839.63C54.6289 838.379 55.1719 837.272 56.5226 836.566C68.684 835.605 101.147 855.497 112.511 861.696C110.657 856.266 103.52 843.796 104.097 838.98C103.066 837.469 95.7576 832.932 93.6665 831.346C86.7281 826.082 80.3476 820.101 74.1595 813.981C51.2513 791.325 30.5894 751.254 30.6468 718.483C30.6522 715.427 30.7926 710.565 33.0493 708.301L34.814 708.801C57.109 725.313 74.329 763.41 85.9429 788.01C86.544 789.283 87.1187 791.739 88.4271 792.09L88.7229 791.862C88.5421 795.328 97.1889 820.729 99.0515 825.538C100.766 829.965 102.976 834.187 104.808 838.565L104.524 839.059C107.742 843.036 109.265 848.763 111.051 853.498C110.474 836.95 110.225 822.374 112.612 805.89C116.031 782.282 122.695 762.765 134.812 742.317C137.352 738.03 140.607 732.252 144.662 729.244L145.669 729.602C146.216 730.256 146.653 730.825 146.959 731.631C149.325 737.861 148.271 746.33 147.865 752.88Q147.397 759.707 146.664 766.511Q145.932 773.314 144.937 780.085Q143.942 786.855 142.685 793.581Q141.429 800.308 139.913 806.981Q138.397 813.654 136.624 820.263Q134.851 826.872 132.824 833.408Q130.796 839.944 128.517 846.396Q126.238 852.849 123.711 859.208C148.356 847.312 175.193 839.641 201.308 831.671C213.901 844.845 227.824 856.042 245.272 862.051C249.071 863.359 253.588 864.767 257.585 865.01C259.112 864.26 261.549 863.985 263.278 864.034C264.5 864.068 264.557 863.986 265.401 864.93L266.942 865.321C271.452 866.202 274.294 867.197 277.915 870.074C284.46 874.668 291.421 878.289 298.453 882.061C297.969 883.675 297.467 885.285 297.04 886.916C298.473 886.724 299.022 887.011 300.277 887.611C303.1 873.802 309.403 861.673 315.798 849.264C317.885 853.214 312.707 870.869 312.336 876.255C310.629 882.273 306.262 898.638 307.458 904.127C307.23 905.35 306.899 906.475 306.526 907.658C351.015 907.563 395.006 903.372 439.067 897.642C457.325 895.268 475.445 893.031 493.611 889.928C524.806 884.599 566.473 876.706 593.566 860.043C596.338 858.337 601.176 855.63 602.829 852.744C603.474 851.617 603.758 850.485 603.32 849.219C602.567 847.046 600.336 846.403 598.42 845.565C598.459 844.627 598.468 843.685 598.521 842.748C598.566 841.964 598.645 841.296 598.511 840.506C596.71 829.863 590.166 818.996 581.197 812.919C573.17 807.481 564.58 807.587 555.488 809.256C553.871 802.789 551.637 796.429 549.867 789.991C547.532 781.495 545.626 772.886 543.249 764.403C555.094 762.173 567.786 762.461 579.422 765.562C577.237 755.346 573.018 745.121 569.084 735.461C567.054 730.476 564.638 725.384 563.419 720.136C580.944 729.11 593.168 746.963 601.633 764.101C606.316 751.748 608.51 742.715 615.186 730.672C617.916 725.749 626.925 710.535 632.237 709.033L633.137 709.615C635.743 717.868 622.624 751.671 618.949 761.033C631.337 760 643.689 758.744 656.118 758.267C680.123 757.347 704.794 758.169 728.754 759.876C738.207 760.549 747.618 761.92 757.057 762.788L758.49 763.467L759.793 762.928C765.091 766.248 819.668 773.7 830.115 775.629C842.641 777.943 855.051 780.807 867.523 783.38C876.854 785.305 886.254 786.768 895.502 789.097C889.908 783.196 883.234 778.016 877.303 772.42C867.623 763.289 858.689 751.205 852.69 739.276C849.886 733.701 844.818 724.705 846.862 718.498C846.455 717.724 846.636 717.733 846.86 716.934C851.727 715.67 854.381 716.571 858.722 719.11C872.939 727.428 894.764 756.101 904.017 770.284C905.355 766.545 906.583 762.836 907.344 758.93L908.502 758.483C910.385 755.848 911.166 752.68 912.407 749.718Z"/>
	<path fill="#353729" d="M892.89 946.64C895.078 945.007 897.054 943.632 899.791 943.176L900.137 943.647C898.449 946.584 894.274 949.09 891.607 951.187C891.537 951.007 891.447 950.833 891.396 950.647C890.97 949.115 892.141 947.937 892.89 946.64Z"/>
	<path fill="#353729" d="M484.883 971.367C486.923 973.698 488.703 975.361 489.074 978.603L488.437 979.206C485.241 978.877 483.353 976.16 481.292 973.958Q483.097 972.675 484.883 971.367Z"/>
	<path fill="#2D2D24" d="M682.138 792.906C683.945 795.422 687.322 799.724 686.582 802.976C686.544 803.141 686.461 803.292 686.401 803.45C685.316 803.495 685.123 803.395 684.315 802.679C682.565 801.13 681.026 798.47 679.758 796.486L680.47 796.479C681.15 795.315 681.644 794.153 682.138 792.906Z"/>
	<path fill="#353729" d="M699.613 934.706C700.251 932.493 699.859 929.917 700.307 927.603L700.999 928.245C702.072 928.114 702.733 927.854 703.684 927.343L703.374 938.9C702.447 938.651 701.566 938.463 700.612 938.367L699.68 938.278C699.009 937.014 699.421 936.088 699.613 934.706Z"/>
	<path fill="#2D2D24" d="M513.79 956.729C514.891 956.883 515.386 956.759 516.048 957.752C518.15 960.908 519.722 968.592 519.116 972.374C518.527 972.22 517.95 971.975 517.378 971.766C514.895 968.117 513.748 961.039 513.79 956.729Z"/>
	<path fill="#1C1511" d="M679.758 796.486C676.876 792.827 671.954 789.138 669.979 785.09L670.434 784.564C675.408 785.27 678.836 789.519 682.138 792.906C681.644 794.153 681.15 795.315 680.47 796.479L679.758 796.486Z"/>
	<path fill="#2D2D24" d="M690.808 784.142C692.688 784.532 693.802 785.57 694.915 787.07C697.652 790.759 700.309 797.177 699.676 801.755C698.494 801.92 698.375 802.021 697.35 801.447C694.379 796.83 692.284 789.535 690.808 784.142Z"/>
	<path fill="#2D2D24" d="M891.607 951.187C889.21 953.561 882.248 961.607 878.952 961.702C878.899 961.239 878.857 961.139 878.972 960.618C880.208 955.035 888.224 949.331 892.89 946.64C892.141 947.937 890.97 949.115 891.396 950.647C891.447 950.833 891.537 951.007 891.607 951.187Z"/>
	<path fill="#2D2D24" d="M481.292 973.958C478.636 970.863 469.231 963.975 468.955 960.603L469.854 960.425C475.469 962.108 480.79 967.366 484.883 971.367Q483.097 972.675 481.292 973.958Z"/>
	<defs>
		<linearGradient id="gradient_0" gradientUnits="userSpaceOnUse" x1="707.25488" y1="935.74976" x2="722.82758" y2="926.078">
			<stop offset="0" stop-color="#2E2925"/>
			<stop offset="1" stop-color="#414132"/>
		</linearGradient>
	</defs>
	<path fill="url(#gradient_0)" d="M715.272 917.573L718.635 916.57C717.928 923.388 716.204 931.186 716.613 937.964C716.616 938.955 716.557 939.972 716.706 940.951C715.573 942.729 714.815 945.528 713.322 946.92L712.605 946.222C711.845 941.652 714.302 922.889 715.272 917.573Z"/>
	<path fill="#2D2D24" d="M984.838 867.998C984.893 867.99 984.948 867.974 985.004 867.973C986.222 867.947 986.237 867.781 987.179 868.642C986.984 869.269 986.785 869.618 986.268 870.038C982.948 872.733 978.977 874.867 975.438 877.286C971.386 880.056 967.816 883.301 964.251 886.654C963.781 886.759 963.225 886.632 962.745 886.585L962.533 886.122C962.696 885.489 962.69 885.409 963.023 884.726C966.949 876.662 976.852 871.036 984.838 867.998Z"/>
	<path fill="#90A968" d="M62.1499 842.024C72.2594 841.598 97.3021 858.286 106.94 863.954C99.9825 863.28 70.2926 846.339 62.1499 842.024Z"/>
	<path fill="#353729" d="M721.356 882.492L721.834 882.685C722.462 881.887 722.263 882.185 722.757 881.4C723.302 880.536 724.047 880.564 724.993 880.251C723.038 892.351 720.106 904.419 718.635 916.57L715.272 917.573C715.987 908.976 718.972 890.537 721.356 882.492Z"/>
	<path fill="#2D2D24" d="M493.009 962.67C490.998 958.432 485.69 950.04 486.273 945.56L486.911 945.465C491.438 948.792 494.799 956.807 496.899 961.903C498.187 964.696 502.359 974.132 501.807 976.769C501.672 977.413 501.089 977.464 500.556 977.726C497.229 975.136 494.708 966.655 493.009 962.67Z"/>
	<path fill="#2D2D24" d="M891.467 927.413L892.163 928.161C891.631 930.513 885.776 935.022 883.905 936.977C876.857 944.344 870.778 952.512 863.94 960.05L863.202 959.4C862.954 958.233 863.156 957.391 863.592 956.307C867.209 947.316 882.669 931.476 891.467 927.413Z"/>
	<path fill="#2D2D24" d="M981.075 851.472C981.503 851.724 981.217 851.524 981.774 852.249C977.618 858.17 970.847 863.132 965.84 868.456C960.8 873.814 956.417 879.776 951.601 885.336L950.32 883.766C950.193 882.694 950.316 881.963 950.738 880.985C954.704 871.788 971.938 854.823 981.075 851.472Z"/>
	<path fill="#2D2D24" d="M123.038 914.897C123.679 915.028 124.314 915.167 124.942 915.355C131.503 917.326 152.607 936.885 155.212 943.675C155.739 945.049 155.197 945.491 154.554 946.705C149.642 944.202 139.489 931.903 135.012 927.476C131.248 923.754 125.74 920.457 122.719 916.212L123.038 914.897Z"/>
	<path fill="#2D2D24" d="M759.677 906.177L760.283 906.058L760.983 905.356C761.441 905.527 761.963 905.671 762.384 905.917Q761.865 907.853 761.069 909.693C758.405 915.96 735.596 951.324 730.776 953.244L730.363 952.517C730.609 950.443 732.018 949.088 733.022 947.339C737.359 939.785 742.968 932.714 747.781 925.43C751.945 919.126 755.513 912.456 759.677 906.177Z"/>
	<defs>
		<linearGradient id="gradient_1" gradientUnits="userSpaceOnUse" x1="737.16864" y1="916.1925" x2="740.55505" y2="921.16718">
			<stop offset="0" stop-color="#251F20"/>
			<stop offset="1" stop-color="#312E24"/>
		</linearGradient>
	</defs>
	<path fill="url(#gradient_1)" d="M716.613 937.964C724.037 927.203 747.507 904.508 760.468 901.689C761.705 901.42 761.854 901.462 762.833 902.199C763.172 903.872 762.912 904.335 762.384 905.917C761.963 905.671 761.441 905.527 760.983 905.356L760.283 906.058L759.677 906.177L759.101 905.373C756.435 906.569 754.037 908.349 751.561 909.893C737.865 918.437 727.587 929.274 716.706 940.951C716.557 939.972 716.616 938.955 716.613 937.964Z"/>
	<path fill="#353729" d="M103.392 926.995C104.279 926.946 105.174 926.867 106.062 926.927C113.976 927.463 132.587 942.956 138.034 949.314C139.548 951.081 140.383 952.083 140.203 954.459C133.965 951.867 128.247 946 122.82 941.969C118.235 938.563 113.378 935.522 108.573 932.439C107.03 931.45 104.993 930.423 103.765 929.078C103.041 928.285 103.326 928.012 103.392 926.995Z"/>
	<path fill="#5A724D" d="M846.862 718.498C846.455 717.724 846.636 717.733 846.86 716.934C857.074 726.29 892.104 770.023 897.538 782.2C897.728 782.627 897.93 783.047 898.125 783.472C887.89 771.826 878.536 759.408 868.925 747.247C861.475 737.822 853.453 728.56 846.862 718.498Z"/>
	<defs>
		<linearGradient id="gradient_2" gradientUnits="userSpaceOnUse" x1="665.84021" y1="912.49072" x2="661.26636" y2="916.2691">
			<stop offset="0" stop-color="#292823"/>
			<stop offset="1" stop-color="#3E3E2D"/>
		</linearGradient>
	</defs>
	<path fill="url(#gradient_2)" d="M646.138 888.68C655.054 899.102 664.782 908.536 672.623 919.9C676.348 925.298 690.313 947.253 689.379 952.258L688.605 952.545C686.194 949.935 684.857 946.183 682.968 943.155C677.555 934.479 672.053 925.757 666.035 917.485C661.184 910.819 655.842 904.038 650.206 898.029C646.735 894.329 641.908 890.634 639.096 886.508C638.486 885.613 638.382 885.526 638.597 884.439C640.097 883.873 640.838 884.161 642.399 884.412C642.957 886.897 644.587 886.996 646.138 888.68Z"/>
	<path fill="#90A968" d="M34.8033 711.335C35.3652 711.672 35.6458 711.779 36.0711 712.383C37.3819 714.244 38.2267 717.67 39.1726 719.841C42.2082 726.807 45.2169 733.809 48.6618 740.585C52.4073 747.953 56.9129 754.971 61.1025 762.095L89.7828 810.137C87.6186 808.596 85.8025 805.807 84.1412 803.727C68.9874 784.757 55.5334 762.186 45.3656 740.171C41.1926 731.136 37.3947 720.975 34.8033 711.335Z"/>
	<path fill="#2D2D24" d="M700.307 927.603C700.527 921.696 701.783 915.504 703.137 909.764C705.439 899.998 717.507 862.482 725.79 857.968C726.598 857.528 726.61 857.717 727.428 857.94C727.522 858.124 727.633 858.301 727.709 858.493C728.813 861.29 727.699 867.036 726.642 869.801C726.326 873.319 725.631 876.78 724.993 880.251C724.047 880.564 723.302 880.536 722.757 881.4C722.263 882.185 722.462 881.887 721.834 882.685L721.356 882.492C721.666 879.815 722.158 877.246 722.729 874.617C723.861 868.847 725.6 863.22 726.706 857.444C719.583 873.839 711.436 889.535 707.101 907.036C705.448 913.707 705.059 920.625 703.684 927.343C702.733 927.854 702.072 928.114 700.999 928.245L700.307 927.603Z"/>
	<path fill="#2D2D24" d="M642.399 884.412C656.216 887.443 681.404 907.459 689.293 919.479C693.004 924.378 696.551 929.367 699.613 934.706C699.421 936.088 699.009 937.014 699.68 938.278L700.612 938.367C701.566 938.463 702.447 938.651 703.374 938.9C703.376 941.616 703.681 944.658 702.884 947.269L702.023 947.449C700.161 946.054 697.282 937.772 695.71 935.074C693.351 931.026 690.579 927.258 687.819 923.481C676.467 909.768 662.029 896.754 646.138 888.68C644.587 886.996 642.957 886.897 642.399 884.412Z"/>
	<path fill="#90A968" d="M33.0493 708.301L34.814 708.801C34.5205 709.772 34.2342 710.723 34.1157 711.734C33.3449 718.313 36.2583 725.851 38.049 732.078C49.8749 773.201 67.9693 793.281 94.0831 825.312Q89.4495 821.718 85.3212 817.554Q81.7988 814.01 78.4588 810.294Q75.1187 806.578 71.9695 802.699Q68.8202 798.819 65.8696 794.787Q62.919 790.755 60.1745 786.579Q57.4301 782.404 54.8987 778.096Q52.3673 773.788 50.0553 769.359Q47.7434 764.929 45.6567 760.389Q43.57 755.849 41.7138 751.21C38.5221 743.427 35.5704 735.511 34.0806 727.202C32.9448 720.867 33.0257 714.7 33.0493 708.301Z"/>
	<path fill="#90A968" d="M986.469 674.55L986.759 675.055C978.129 682.694 967.562 699.692 960.803 709.566C951.501 723.154 941.693 736.409 932.543 750.096C923.526 763.585 915.138 777.608 905.052 790.338L904.832 790.19L904.763 789.479C918.108 764.075 935.081 740.241 951.693 716.909C959.616 705.782 967.324 693.92 976.436 683.727C979.5 680.299 982.88 677.408 986.469 674.55Z"/>
	<path fill="#90A968" d="M139.789 748.994C139.754 752.623 135.89 762.909 134.78 767.034Q131.758 778.337 129.278 789.771C125.91 805.063 123.516 820.704 121.015 836.16C120.014 842.346 118.955 856.42 116.628 861.251C116.251 860.37 116.319 860.667 116.152 859.652C115.175 853.704 116.766 845.74 117.35 839.754C119.828 814.346 123.135 790.605 131.757 766.444C133.887 760.476 136.061 754.17 139.789 748.994Z"/>
	<defs>
		<linearGradient id="gradient_3" gradientUnits="userSpaceOnUse" x1="241.82539" y1="918.70587" x2="305.84518" y2="845.89062">
			<stop offset="0" stop-color="#8BAE6E"/>
			<stop offset="1" stop-color="#C0B877"/>
		</linearGradient>
	</defs>
	<path fill="url(#gradient_3)" d="M315.798 849.264C317.885 853.214 312.707 870.869 312.336 876.255C310.629 882.273 306.262 898.638 307.458 904.127C307.23 905.35 306.899 906.475 306.526 907.658C306.378 907.712 306.236 907.786 306.083 907.818C302.373 908.591 297.519 908.048 293.684 908.068C276.403 908.158 230.341 907.029 216.825 897.603C215.08 896.386 213.288 894.636 213.156 892.377C213.053 890.61 213.987 889.021 215.09 887.725C222.963 878.477 247.821 871.202 259.812 870.508L257.585 865.01C259.112 864.26 261.549 863.985 263.278 864.034C264.5 864.068 264.557 863.986 265.401 864.93L266.942 865.321C271.452 866.202 274.294 867.197 277.915 870.074C284.46 874.668 291.421 878.289 298.453 882.061C297.969 883.675 297.467 885.285 297.04 886.916C298.473 886.724 299.022 887.011 300.277 887.611C303.1 873.802 309.403 861.673 315.798 849.264Z"/>
	<path fill="#1C1511" d="M257.585 865.01C259.112 864.26 261.549 863.985 263.278 864.034C264.5 864.068 264.557 863.986 265.401 864.93L266.942 865.321C271.452 866.202 274.294 867.197 277.915 870.074L277.616 870.289L275.878 869.652L275.093 870.071C275.062 872.359 283.707 882.826 285.41 885.925L283.932 887.014C285.834 890.357 288.972 896.331 289.024 900.188L288.514 900.598C286.214 899.131 281.751 888.435 279.926 885.345C275.466 877.794 270.28 871.431 263.66 865.679L262.005 865.826L261.557 866.43C264.407 879.596 274.807 890.337 278.001 903.236C270.446 893.971 264.136 881.64 259.812 870.508L257.585 865.01Z"/>
	<path fill="#F1D17F" d="M266.942 865.321C271.452 866.202 274.294 867.197 277.915 870.074L277.616 870.289L275.878 869.652L275.093 870.071C275.062 872.359 283.707 882.826 285.41 885.925L283.932 887.014C279.642 878.52 273.981 871.7 266.942 865.321Z"/>
	<path fill="#1C1511" d="M285.41 885.925C283.707 882.826 275.062 872.359 275.093 870.071L275.878 869.652L277.616 870.289L277.915 870.074C284.46 874.668 291.421 878.289 298.453 882.061C297.969 883.675 297.467 885.285 297.04 886.916C298.473 886.724 299.022 887.011 300.277 887.611C298.778 892.694 298.842 898.262 297.204 903.207C296.901 904.121 296.87 904.431 295.997 904.893C293.864 902.684 287.945 889.985 285.41 885.925Z"/>
	<path fill="#ABBF83" d="M277.915 870.074C284.46 874.668 291.421 878.289 298.453 882.061C297.969 883.675 297.467 885.285 297.04 886.916C296.05 890.135 295.452 893.533 294.734 896.825C292.66 891.166 284.188 875.859 279.758 872.174C279.026 871.565 278.328 870.922 277.616 870.289L277.915 870.074Z"/>
	<path fill="#3A1717" d="M364.111 149.672C364.319 147.633 364.548 145.605 365.083 143.623C367.895 133.219 377.379 114.337 387.118 109.044C388.863 108.096 391.259 107.184 393.241 107.861C394.228 108.198 394.933 108.896 395.364 109.862C397.36 114.342 395.091 120.308 393.698 124.634Q394.194 124.042 394.697 123.455C400.778 116.361 411.927 109.427 421.498 108.904C424.37 108.747 428.632 109.085 430.698 111.4C431.581 112.39 431.807 113.591 431.8 114.875C431.764 120.819 425.495 125.616 421.427 129.122C429.117 127.15 437.616 125.608 445.569 125.393C477.992 123.119 502.643 135.719 526.391 156.397C551.332 178.114 572.947 211.108 582.391 242.843C598.989 240.056 615.771 236.594 631.311 229.976C633.717 228.951 636.243 227.956 638.392 226.446C641.936 223.956 644.97 220.768 648.421 218.145C656.554 211.964 674.837 199.896 684.991 206.702C696.668 214.529 701.865 243.89 704.144 257.5C710.801 297.266 704.16 333.427 680.474 366.501C667.115 385.155 650.12 400.46 630.819 412.85C607.866 427.584 582.259 438.656 558.083 451.279C546.857 457.141 535.364 462.592 525.604 470.799C519.289 476.109 513.886 482.934 510.593 490.515L510.2 491.41L509.971 491.95C514.748 488.875 519.63 486.963 525.42 488.194C530.626 489.3 534.51 492.834 537.23 497.276C542.64 506.113 547.058 532.912 544.46 542.887C544.424 543.026 544.381 543.162 544.342 543.3C549.071 543.311 553.258 545.812 556.502 549.143C561.829 554.612 565.497 562.887 565.271 570.558C565.051 578.015 561.583 585.294 556.091 590.31C553.688 592.504 549.87 594.94 546.646 595.721C544.712 595.864 543.703 596.108 542.068 597.168C542.55 598.666 542.158 600.104 541.91 601.615C543.57 601.237 545.223 600.71 546.937 600.912C547.199 624.159 544.879 645.568 538.817 668.045C536.785 675.577 531.696 685.519 531.158 692.853C530.757 698.321 532.37 704.706 533.192 710.169C535.914 728.277 538.834 746.621 543.249 764.403C545.626 772.886 547.532 781.495 549.867 789.991C551.637 796.429 553.871 802.789 555.488 809.256C564.58 807.587 573.17 807.481 581.197 812.919C590.166 818.996 596.71 829.863 598.511 840.506C598.645 841.296 598.566 841.964 598.521 842.748C598.468 843.685 598.459 844.627 598.42 845.565C600.336 846.403 602.567 847.046 603.32 849.219C603.758 850.485 603.474 851.617 602.829 852.744C601.176 855.63 596.338 858.337 593.566 860.043C566.473 876.706 524.806 884.599 493.611 889.928C475.445 893.031 457.325 895.268 439.067 897.642C395.006 903.372 351.015 907.563 306.526 907.658C306.899 906.475 307.23 905.35 307.458 904.127C306.262 898.638 310.629 882.273 312.336 876.255C312.707 870.869 317.885 853.214 315.798 849.264C309.403 861.673 303.1 873.802 300.277 887.611C299.022 887.011 298.473 886.724 297.04 886.916C297.467 885.285 297.969 883.675 298.453 882.061C291.421 878.289 284.46 874.668 277.915 870.074C274.294 867.197 271.452 866.202 266.942 865.321L265.401 864.93C264.557 863.986 264.5 864.068 263.278 864.034C261.549 863.985 259.112 864.26 257.585 865.01C253.588 864.767 249.071 863.359 245.272 862.051C227.824 856.042 213.901 844.845 201.308 831.671C194.284 823.618 187.9 814.669 182.98 805.185Q182.036 803.342 181.137 801.477Q180.239 799.611 179.386 797.724Q178.533 795.837 177.726 793.93Q176.919 792.023 176.159 790.097Q175.399 788.171 174.686 786.227Q173.973 784.283 173.307 782.323Q172.642 780.362 172.024 778.385Q171.407 776.409 170.838 774.418Q170.268 772.427 169.748 770.423Q169.227 768.419 168.755 766.403Q168.284 764.387 167.861 762.36Q167.439 760.333 167.066 758.296Q166.693 756.259 166.37 754.214Q166.047 752.168 165.773 750.116Q165.5 748.063 165.277 746.005Q165.053 743.946 164.88 741.883Q164.707 739.82 164.584 737.753Q164.461 735.686 164.389 733.616Q164.316 731.547 164.294 729.476Q164.272 727.406 164.301 725.335Q164.329 723.265 164.408 721.196Q164.486 719.127 164.616 717.06Q164.745 714.993 164.924 712.931Q165.103 710.868 165.333 708.81Q165.562 706.752 165.842 704.7Q166.122 702.649 166.451 700.604Q166.781 698.56 167.16 696.524Q167.539 694.489 167.967 692.463Q168.396 690.437 168.874 688.422Q169.352 686.408 169.878 684.405Q170.405 682.403 170.98 680.414Q171.555 678.424 172.179 676.45C177.784 659.144 185.969 641.735 198.34 628.204C200.084 626.296 202.728 623.166 205.148 622.257C206.507 621.746 206.729 621.899 207.968 622.455C208.144 622.825 208.455 623.157 208.494 623.565C208.744 626.156 201.853 651.023 200.759 656.222C196.655 675.724 195.047 697.263 196.793 717.112C200.503 759.259 215.123 797.477 248.252 825.281C245.848 808.936 246.729 796.03 249.824 779.916C260.679 723.404 299.684 678.102 338.902 638.347C356.576 620.431 376.757 603.406 391.22 582.661C392.759 580.455 396.601 575.249 396.79 572.549C396.876 571.327 394.876 567.987 394.54 566.469C392.464 557.102 389.995 537.647 391.063 528.463C391.088 528.253 391.119 528.045 391.147 527.836C396.228 520.882 400.787 518.071 408.577 514.591C405.973 510.297 402.928 506.798 399.449 503.184C396.972 507.477 395.285 512.648 393.181 517.164C387.762 528.796 378.688 539.151 367.221 545.081C352.68 552.6 333.666 553.395 318.216 548.41C293.894 540.562 275.009 518.708 263.719 496.514Q262.655 498.356 261.419 500.087C254.235 510.239 244.776 521.131 231.722 523.107C224.286 524.233 216.817 521.94 210.823 517.544C191.951 503.702 181.393 474.201 178.077 451.972C169.004 391.155 191.631 326.796 227.087 277.892Q236.696 264.908 247.439 252.845C251.621 248.187 256.483 243.659 260.217 238.664C261.881 236.439 262.906 233.322 264.037 230.785C266.241 225.844 268.647 221.023 271.913 216.685C276.285 210.875 281.584 207.213 288.859 206.18C302.938 187.779 342.223 155.274 364.111 149.672Z"/>
	<path fill="#7E4B35" d="M402.285 573.192C409.424 574.635 416.496 575.88 423.698 576.952C421.729 581.313 419.569 585.667 417.915 590.157C412.048 588.325 403.634 584.873 399.203 580.583C400.467 578.134 401.472 575.83 402.285 573.192Z"/>
	<path fill="#BA5046" d="M410.527 519.011L411.65 519.169C415.325 522.931 417.126 531.528 418.56 536.476C414.766 536.438 411.15 535.931 407.406 535.342C405.336 534.992 403.035 534.741 401.094 533.92C399.576 533.278 397.851 532.101 397.372 530.43C397.057 529.335 397.275 528.161 397.778 527.162C400.195 522.367 405.805 520.557 410.527 519.011Z"/>
	<path fill="#D9D9D7" d="M495.178 194.235C494.842 191.551 494.626 188.572 494.624 185.867C494.62 181.963 495.988 177.716 498.876 174.997C501.85 172.197 506.008 171.347 509.976 171.487C521.174 171.883 533.957 179.445 541.515 187.355C541.354 187.334 541.194 187.315 541.034 187.291C531.843 185.896 513.856 176.172 505.187 182.635C501.079 185.698 499.156 191.034 495.178 194.235Z"/>
	<path fill="#FEFEFC" d="M508.506 496.955C511.588 495.783 514.668 494.734 517.918 494.13C521.873 493.396 525.992 493.497 529.343 495.968C537.595 502.053 538.963 521.906 539.416 531.267C539.595 534.95 539.185 539.12 539.836 542.719C539.881 542.966 539.932 543.212 539.98 543.459C539.072 545.396 539.306 551.728 539.842 553.839C537.458 554.913 534.752 555.547 532.502 556.81C532.222 542.395 534.934 511.809 524.894 501.202C520.489 496.547 514.367 497.031 508.506 496.955Z"/>
	<path fill="#B7784F" d="M443.912 130.089C449.834 130.384 455.76 130.656 461.635 131.503C470.985 132.852 493.073 137.737 499.529 144.641C500.061 145.211 500.358 145.822 500.647 146.535C500.487 147.564 500.307 148.568 500.068 149.582C499.883 150.057 499.899 150.088 499.546 150.57C497.706 153.077 493.582 154.215 490.652 154.341C474.15 155.048 458.961 147.5 447.17 136.555C445.275 134.684 444.593 132.609 443.912 130.089Z"/>
	<path fill="#D4AE63" d="M426.608 577.055C455.01 579.556 497.955 567.822 521.893 551.469C523.868 550.12 525.406 548.387 527.269 546.916C527.367 547.198 527.508 547.468 527.565 547.761C527.831 549.135 527.447 550.499 526.722 551.609C525.79 551.894 524.655 552.154 523.804 552.62C522.672 553.24 522.242 553.976 521.783 555.13C523.608 556.87 525.865 554.766 527.772 555.957C527.461 556.711 527.067 557.042 526.502 557.613C520.399 560.671 514.243 563.685 511.884 570.626C510.974 573.302 510.651 576.124 510.536 578.936C495.486 587.781 463.612 593.446 446.048 593.81C438.224 593.972 430.263 593.289 422.656 591.403C422.17 591.282 421.689 591.141 421.207 591.004C422.488 586.355 424.662 581.467 426.608 577.055Z"/>
	<path fill="#F1D17F" d="M539.98 543.459C540.067 543.616 540.174 543.763 540.241 543.93C541.704 547.54 538.621 553.63 541.63 556.402L542.722 556.393C544.336 554.048 543.529 548.254 544.584 545.138L544.347 544.512C544.055 543.728 544.148 544.048 543.998 543.407L544.342 543.3C549.071 543.311 553.258 545.812 556.502 549.143C561.829 554.612 565.497 562.887 565.271 570.558C565.051 578.015 561.583 585.294 556.091 590.31C553.688 592.504 549.87 594.94 546.646 595.721C544.712 595.864 543.703 596.108 542.068 597.168C541.513 597.281 540.975 597.385 540.413 597.456C532.6 598.453 524.479 598.161 518.044 592.978C513.638 589.43 511.177 584.485 510.536 578.936C510.651 576.124 510.974 573.302 511.884 570.626C514.243 563.685 520.399 560.671 526.502 557.613C528.31 558.525 528.974 559.302 530.952 558.565C531.117 558.504 531.273 558.419 531.433 558.345C531.845 559.385 532.185 560.243 532.322 561.362C534.79 560.298 536.686 558.094 539.622 558.54C540.814 557.956 542.81 558.641 544.153 558.867L543.684 556.912Q542.177 557.172 540.662 557.386C539.729 556.435 539.95 555.141 539.842 553.839C539.306 551.728 539.072 545.396 539.98 543.459Z"/>
	<path fill="#321419" d="M539.98 543.459C540.067 543.616 540.174 543.763 540.241 543.93C541.704 547.54 538.621 553.63 541.63 556.402L542.722 556.393C544.336 554.048 543.529 548.254 544.584 545.138L544.347 544.512C544.055 543.728 544.148 544.048 543.998 543.407L544.342 543.3C549.071 543.311 553.258 545.812 556.502 549.143C561.829 554.612 565.497 562.887 565.271 570.558C565.051 578.015 561.583 585.294 556.091 590.31C553.688 592.504 549.87 594.94 546.646 595.721C544.712 595.864 543.703 596.108 542.068 597.168C541.513 597.281 540.975 597.385 540.413 597.456C532.6 598.453 524.479 598.161 518.044 592.978C513.638 589.43 511.177 584.485 510.536 578.936C510.651 576.124 510.974 573.302 511.884 570.626C514.243 563.685 520.399 560.671 526.502 557.613C528.31 558.525 528.974 559.302 530.952 558.565C531.117 558.504 531.273 558.419 531.433 558.345C531.845 559.385 532.185 560.243 532.322 561.362C534.79 560.298 536.686 558.094 539.622 558.54C540.814 557.956 542.81 558.641 544.153 558.867C544.527 559.353 544.561 559.364 544.896 560C546.001 562.099 546.467 564.662 545.772 566.963C544.969 569.62 542.979 571.72 540.537 572.965C537.887 574.316 534.736 574.626 531.937 573.545C528.937 572.386 528.034 570.165 526.843 567.358C527.087 565.674 527.744 563.415 526.974 561.843L525.842 561.962C523.659 563.726 521.408 565.186 519.024 566.653C517.019 569.983 515.026 572.983 514.733 576.974C514.473 580.526 515.716 583.966 518.046 586.64C521.611 590.731 527.211 592.814 532.535 593.111C539.589 593.504 547.674 591.235 552.902 586.404Q553.338 586.002 553.753 585.578Q554.167 585.155 554.56 584.711Q554.953 584.267 555.323 583.804Q555.693 583.34 556.039 582.859Q556.385 582.377 556.706 581.879Q557.027 581.38 557.322 580.866Q557.617 580.352 557.886 579.823Q558.155 579.295 558.396 578.754Q558.638 578.212 558.852 577.659Q559.066 577.106 559.251 576.543Q559.437 575.98 559.593 575.408Q559.75 574.836 559.878 574.257Q560.005 573.678 560.103 573.094Q560.201 572.509 560.269 571.92Q560.337 571.331 560.376 570.739Q560.414 570.148 560.422 569.555C560.529 560.826 555.952 554.697 550.078 548.841L544.529 547.421C543.988 550.571 544.41 553.795 543.684 556.912Q542.177 557.172 540.662 557.386C539.729 556.435 539.95 555.141 539.842 553.839C539.306 551.728 539.072 545.396 539.98 543.459Z"/>
	<path fill="#F1D17F" d="M532.322 561.362C534.79 560.298 536.686 558.094 539.622 558.54C541.242 560.347 542.849 562.172 542.728 564.768C542.656 566.31 542.137 567.545 540.91 568.525C539.216 569.876 536.674 570.505 534.538 570.228C533.302 570.067 532.028 569.565 531.298 568.501C530.194 566.89 530.813 565.137 531.355 563.459C531.585 562.748 531.846 561.953 532.322 561.362Z"/>
	<path fill="#EA7A64" d="M520.797 503.366C520.931 503.463 521.077 503.544 521.198 503.657C526.674 508.73 527.467 530.339 527.936 537.508C525.047 541.295 521.007 544.513 517.019 547.081C484.878 567.773 438.641 577.336 401.142 569.279C401.066 569.22 400.984 569.169 400.914 569.103C398.816 567.099 396.483 541.064 396.06 536.635C403.338 541.908 413.347 541.912 422.032 541.685C443.152 541.132 475.21 532.841 493.823 523.317C504.089 518.065 512.878 511.758 520.797 503.366Z"/>
	<path fill="#F1D17F" d="M201.931 631.431C201.861 634.251 196.565 650.97 195.505 655.967C189.221 685.588 187.932 714.747 193.791 744.537C199.474 773.434 211.907 802.319 234.362 822.082C239.531 826.631 245.334 830.386 251.04 834.216C254.645 844.1 259.425 851.366 265.807 859.649C260.94 858.028 255.861 857.355 250.877 856.18C241.33 853.212 232.783 849.265 224.769 843.238C196.787 822.192 177.997 788.377 173.134 753.888C167.096 711.059 175.607 666.441 201.931 631.431Z"/>
	<path fill="#7E4B35" d="M676.59 209.769C677.817 209.69 679.037 209.688 680.266 209.687C688.863 215.771 695.958 252.019 697.83 262.252C692.68 271.488 689.515 279.693 680.563 286.091C669.369 294.092 655.345 294.197 642.314 292.105C637.425 290.675 632.775 288.593 628.806 285.349C624.54 281.862 621.144 277.041 620.68 271.423C619.692 259.466 628.473 245.199 635.86 236.493C644.398 226.432 663.367 210.915 676.59 209.769Z"/>
	<path fill="#FEFEFC" d="M670.718 216.328C671.023 216.362 671.339 216.346 671.635 216.431C672.709 216.738 673.391 217.678 673.97 218.549C674.45 221.879 671.731 225.425 669.798 227.981C665.655 233.459 658.164 241.86 651.097 242.815C650.346 242.34 649.582 241.897 649.006 241.205C648.011 240.008 647.618 238.631 647.845 237.078C648.505 232.561 666.262 219.984 670.718 216.328Z"/>
	<path fill="#B7784F" d="M399.203 580.583C403.634 584.873 412.048 588.325 417.915 590.157C405.213 623.444 394.727 641.982 364.359 661.775C351.073 670.434 337.873 678.65 325.577 688.734C293.107 715.364 273.057 745.287 255.781 783.301C256.851 773.283 261.157 761.966 264.909 752.721C283.049 708.021 313.593 671.726 347.743 638.275C365.678 620.707 387.768 603.303 399.203 580.583Z"/>
	<path fill="#271116" d="M377.957 630.704L378.995 631.317L379.237 632.576C376.596 641.102 363.111 651.365 356 656.689C355.26 656.355 355.015 656.164 354.453 655.617C356.577 651.84 364.888 645.423 368.354 641.846C371.766 638.324 374.856 634.499 377.957 630.704Z"/>
	<path fill="#271116" d="M378.45 618.295L379.368 618.674L379.614 619.663C377.295 626.832 348.122 652.798 340.51 656.962L339.427 656.178C339.49 655.839 339.435 655.455 339.616 655.162C341.576 652.001 357.538 638.763 361.403 635.147C367.231 629.693 372.814 623.949 378.45 618.295Z"/>
	<path fill="#FEFEFC" d="M495.178 194.235C499.156 191.034 501.079 185.698 505.187 182.635C513.856 176.172 531.843 185.896 541.034 187.291C541.194 187.315 541.354 187.334 541.515 187.355C546.606 192.299 551.575 197.215 555.937 202.839C569.738 220.632 581.744 246.473 582.135 269.237C582.228 274.682 581.288 281.337 577.163 285.277C574.971 287.37 571.585 287.829 568.679 287.579C554.785 286.385 534.993 267.99 526.651 257.602C513.681 241.453 497.311 214.955 495.178 194.235Z"/>
	<path fill="#3A1717" d="M511.538 202.008C513.234 201.957 514.897 201.978 516.512 202.57C523.254 205.04 529.046 216.297 531.634 222.485C533.911 227.927 536.738 235.686 534.14 241.403C533.087 243.719 531.696 244.486 529.412 245.431Q528.037 245.066 526.691 244.604C518.834 241.946 513.653 234.839 510.102 227.67C507.268 221.947 504.045 212.824 506.39 206.56C507.397 203.873 509.062 203.126 511.538 202.008Z"/>
	<path fill="#B7784F" d="M254.244 251.911C254.47 254.476 249.514 266.183 248.543 269.438Q247.086 274.338 245.779 279.28Q244.472 284.222 243.315 289.201Q242.158 294.181 241.153 299.193Q240.148 304.205 239.295 309.246Q238.442 314.286 237.743 319.35Q237.044 324.414 236.499 329.497Q235.953 334.579 235.562 339.676Q235.172 344.773 234.936 349.88Q234.7 354.987 234.619 360.098Q234.538 365.209 234.612 370.321Q234.686 375.432 234.916 380.539Q235.145 385.646 235.529 390.743Q235.913 395.841 236.452 400.924Q236.991 406.008 237.684 411.073Q238.376 416.138 239.222 421.179Q240.068 426.221 241.067 431.234C244.921 450.97 250.7 471.592 260.345 489.374C260.247 489.551 260.152 489.729 260.052 489.905C254.528 499.653 244.346 512.494 232.955 515.427C226.188 517.169 221.152 515.143 215.39 511.846Q214.827 511.432 214.28 510.997C195.832 496.304 187.553 464.26 185.135 441.758C183.857 429.86 184.21 417.598 185.268 405.697C190.39 348.103 218.425 296.298 254.244 251.911Z"/>
	<path fill="#B7784F" d="M286.462 210.069C290.417 210.165 293.821 210.886 297.266 212.897C303.551 216.566 308.374 223.519 312.736 229.215C321.79 241.038 329.191 253.967 336.256 267.043Q344.357 282.152 351.581 297.699Q358.806 313.246 365.129 329.18Q371.452 345.115 376.854 361.385Q382.256 377.656 386.719 394.208C396.221 430.237 404.344 483.471 384.276 517.31C376.286 530.783 365.821 537.867 350.877 541.763C338.667 544.071 327.423 543.807 315.859 538.788C289.665 527.42 270.089 496.705 260.066 470.891C236.167 409.341 237.575 340.713 253.569 277.437C257.168 263.201 260.818 249.003 266.789 235.532C270.506 227.147 277.343 213.57 286.462 210.069Z"/>
	<path fill="#321419" d="M298.089 430.543C296.54 426.124 295.413 422.207 295.016 417.516L295.093 418.151L295.695 417.557C298.006 422.253 300.651 426.811 302.274 431.807C305.709 438.682 309.194 445.56 311.841 452.786L311.193 452.205C304.645 446.445 301.147 438.559 298.089 430.543Z"/>
	<path fill="#321419" d="M279.925 400.288C281.579 401.597 281.654 404.817 282.002 406.839C283.14 413.433 284.343 419.951 286.326 426.357C288.919 434.736 292.562 443.147 293.975 451.834C292.733 450.987 291.985 450.065 291.182 448.792C285.347 439.541 277.469 411.297 279.925 400.288Z"/>
	<path fill="#321419" d="M266.525 374.727C266.837 375 267.297 375.166 267.461 375.547C267.955 376.691 268.008 389.739 268.164 392.179C269.22 408.624 271.739 425.443 276.076 441.348C278.222 449.214 281.69 457.399 283.205 465.346C283.437 466.568 283.401 466.252 282.78 467.152Q281.989 465.905 281.253 464.625C270.43 445.728 260.686 396.381 266.525 374.727Z"/>
	<path fill="#F1D17F" d="M421.207 591.004C421.689 591.141 422.17 591.282 422.656 591.403C430.263 593.289 438.224 593.972 446.048 593.81C463.612 593.446 495.486 587.781 510.536 578.936C511.177 584.485 513.638 589.43 518.044 592.978C524.479 598.161 532.6 598.453 540.413 597.456C540.975 597.385 541.513 597.281 542.068 597.168C542.55 598.666 542.158 600.104 541.91 601.615C543.57 601.237 545.223 600.71 546.937 600.912C547.199 624.159 544.879 645.568 538.817 668.045C536.785 675.577 531.696 685.519 531.158 692.853C530.757 698.321 532.37 704.706 533.192 710.169C535.914 728.277 538.834 746.621 543.249 764.403C545.626 772.886 547.532 781.495 549.867 789.991C551.637 796.429 553.871 802.789 555.488 809.256C564.58 807.587 573.17 807.481 581.197 812.919C590.166 818.996 596.71 829.863 598.511 840.506C598.645 841.296 598.566 841.964 598.521 842.748C598.468 843.685 598.459 844.627 598.42 845.565C600.336 846.403 602.567 847.046 603.32 849.219C603.758 850.485 603.474 851.617 602.829 852.744C601.176 855.63 596.338 858.337 593.566 860.043C566.473 876.706 524.806 884.599 493.611 889.928C475.445 893.031 457.325 895.268 439.067 897.642C395.006 903.372 351.015 907.563 306.526 907.658C306.899 906.475 307.23 905.35 307.458 904.127C306.262 898.638 310.629 882.273 312.336 876.255C312.707 870.869 317.885 853.214 315.798 849.264C315.479 848.823 315.658 849.134 315.478 848.236L316.238 848.187C317.061 848.928 317.291 849.136 318.392 849.454C318.738 847.572 318.098 845.424 317.034 843.872L316.277 843.86C315.549 845.037 314.781 846.18 314.004 847.325L313.68 846.675C307.262 855.958 303.579 867.014 299.527 877.478C284.297 866.984 266.273 857.108 258.255 839.392C254.247 830.536 251.698 810.625 253.535 801.004C255.145 792.577 259.549 783.602 263.309 775.883C278.832 744.024 299.607 715.116 326.942 692.368C347.322 675.409 374.527 662.16 392.148 643.398C406.009 628.639 414.019 609.653 421.207 591.004Z"/>
	<path fill="#1C1511" d="M434.919 677.93C434.448 674.048 434.96 670.104 435.859 666.324L436.386 666.117C437.682 670.143 438.001 675.422 437.699 679.652L436.883 680.07C436.659 679.723 436.427 679.379 436.215 679.024C436.062 678.769 435.919 678.508 435.77 678.25C435.69 679.623 435.584 680.964 435.409 682.328L435.119 681.817C435.176 680.489 435.064 679.245 434.919 677.93Z"/>
	<path fill="#271116" d="M533.069 854.637C531.093 847.862 527.989 844.725 522.315 840.841C521.998 839.632 522.081 839.841 522.51 838.794C524.121 838.242 525.391 838.827 526.856 839.573C533.228 842.817 535.27 848.015 537.444 854.398C535.78 854.796 534.766 854.861 533.069 854.637Z"/>
	<path fill="#271116" d="M313.68 846.675C314.317 845.03 315.099 843.948 316.224 842.597L317.11 842.324C319.29 844.517 319.217 849.182 319.24 852.164C319.304 860.265 316.958 874.317 313.658 881.413C312.777 878.919 316.319 868.881 316.673 865.289C316.832 863.665 316.912 862.476 315.837 861.208C315.798 861.935 315.725 862.58 315.5 863.276C314.44 866.56 314.865 873.453 312.72 875.925C312.61 876.053 312.464 876.145 312.336 876.255C312.707 870.869 317.885 853.214 315.798 849.264C315.479 848.823 315.658 849.134 315.478 848.236L316.238 848.187C317.061 848.928 317.291 849.136 318.392 849.454C318.738 847.572 318.098 845.424 317.034 843.872L316.277 843.86C315.549 845.037 314.781 846.18 314.004 847.325L313.68 846.675Z"/>
	<path fill="#321419" d="M541.91 601.615C543.57 601.237 545.223 600.71 546.937 600.912C547.199 624.159 544.879 645.568 538.817 668.045C536.785 675.577 531.696 685.519 531.158 692.853C530.757 698.321 532.37 704.706 533.192 710.169C535.914 728.277 538.834 746.621 543.249 764.403C545.626 772.886 547.532 781.495 549.867 789.991C551.637 796.429 553.871 802.789 555.488 809.256C564.58 807.587 573.17 807.481 581.197 812.919C590.166 818.996 596.71 829.863 598.511 840.506C598.645 841.296 598.566 841.964 598.521 842.748C598.468 843.685 598.459 844.627 598.42 845.565C600.336 846.403 602.567 847.046 603.32 849.219C603.758 850.485 603.474 851.617 602.829 852.744C601.176 855.63 596.338 858.337 593.566 860.043C566.473 876.706 524.806 884.599 493.611 889.928C475.445 893.031 457.325 895.268 439.067 897.642C395.006 903.372 351.015 907.563 306.526 907.658C306.899 906.475 307.23 905.35 307.458 904.127C306.262 898.638 310.629 882.273 312.336 876.255C312.464 876.145 312.61 876.053 312.72 875.925C314.865 873.453 314.44 866.56 315.5 863.276C315.725 862.58 315.798 861.935 315.837 861.208C316.912 862.476 316.832 863.665 316.673 865.289C316.319 868.881 312.777 878.919 313.658 881.413C347.52 885.264 383.929 882.525 417.715 878.311C414.179 873.102 410.274 868.418 406.419 863.468C405.515 862.307 404.65 861.2 404.823 859.699C405.382 859.741 405.516 859.72 406.117 859.946C412.944 862.511 418.429 871.71 421.761 877.703C429.791 876.995 437.788 875.529 445.749 874.273C443.37 868.433 440.689 862.923 437.28 857.608C434.569 853.379 431.454 849.436 428.961 845.066C440.859 851.07 444.936 861.887 450.4 873.231C455.225 872.891 460.283 872.535 464.944 871.208C464.908 871.069 464.869 870.931 464.835 870.791C463.323 864.549 459.918 858.332 456.252 853.086C449.961 844.083 443.526 839.976 432.727 838.008C419.857 837.509 407.269 838.689 394.993 842.857C390.152 844.501 385.479 846.651 380.615 848.221C378.564 848.884 375.731 849.983 373.747 848.975C373.935 847.77 374.592 847.101 375.404 846.244C377.404 844.132 380.071 842.394 382.297 840.492C384.932 838.239 387.315 835.556 389.59 832.944C398.562 822.645 405.852 810.516 411.503 798.127C421.609 775.972 430.865 744.143 421.731 720.324C418.522 711.957 412.491 705.558 404.249 701.996C374.287 689.046 334.736 711.118 312.287 730.718C307.301 735.072 295.52 747.832 290.554 749.809L290.053 749.429C290.449 748.204 290.928 747.146 291.586 746.034C295.248 739.84 300.905 734.735 306.198 729.953C323.6 714.232 343.634 700.737 366.714 695.07C381.792 691.367 398.672 690.952 412.312 699.364C421.903 705.28 427.339 714.473 429.887 725.283C431.211 730.903 431.486 736.8 431.558 742.553C431.921 771.216 420.451 796.627 405.64 820.471C406.612 820.597 407.459 820.521 408.424 820.386C422.328 818.437 440.367 811.306 449.028 799.753C441.8 766.001 435.769 732.417 434.683 697.804C434.483 691.439 433.883 684.222 434.919 677.93C435.064 679.245 435.176 680.489 435.119 681.817L435.409 682.328C435.584 680.964 435.69 679.623 435.77 678.25C435.919 678.508 436.062 678.769 436.215 679.024C436.427 679.379 436.659 679.723 436.883 680.07L437.699 679.652L437.812 680.426C439.361 691.512 438.873 703.055 439.903 714.239C441.968 736.644 445.825 759.429 450.512 781.409C454.219 798.792 458.44 816.338 463.851 833.274C467.596 844.994 472.722 856.743 475.649 868.658C485.845 866.266 496.646 866.512 506.768 863.735C506.483 856.21 504.107 853.212 500.708 846.82C505.133 849.131 508.462 851.384 510.007 856.442C510.698 858.706 511.053 861.023 511.277 863.373C516.378 862.44 529.928 860.916 533.757 858.774C533.797 857.238 533.52 856.1 533.069 854.637C534.766 854.861 535.78 854.796 537.444 854.398C537.542 855.594 537.987 856.865 538.278 858.035C541.999 857.264 548.566 856.445 551.512 853.976C551.825 850.918 549.759 847.146 548.394 844.447C540.246 828.343 524.562 828.506 509.27 833.107C505.464 834.252 498.377 837.785 494.594 836.541L494.267 835.794C497.054 832.088 512.377 827.879 517.213 826.518C512.82 814.534 507.928 802.692 504.298 790.441C501.732 781.781 499.82 772.781 497.884 763.956Q495.286 752.566 493.242 741.065Q491.197 729.563 489.71 717.976Q488.224 706.389 487.298 694.743Q486.373 683.098 486.011 671.421C485.757 665.146 484.015 629.48 487.364 625.846L487.928 626.248C488.952 630.402 488.71 634.968 488.929 639.229C489.487 650.047 489.651 660.813 490.493 671.62C491.376 682.931 492.111 694.333 493.478 705.595C495.102 718.978 497.476 732.356 499.285 745.737C518.249 713.834 532.812 672.833 538.564 636.128C540.36 624.667 540.978 613.164 541.91 601.615Z"/>
	<path fill="#90A968" d="M456.685 828.33C457.163 828.675 457.419 828.8 457.75 829.374C459.113 831.735 459.783 835.857 460.6 838.53C461.907 842.806 468.825 862.779 470.685 865.391C471.363 866.345 472.263 866.897 473.235 867.509C473.398 867.611 473.563 867.709 473.727 867.809L473.472 867.941L474.502 868.265L474.401 868.673L473.699 869.084C472.702 869.026 471.64 869.062 470.742 868.575C470.112 868.234 469.928 867.014 469.703 866.35C464.573 854.799 458.994 844.118 447.756 837.573C450.169 834.064 453.549 831.169 456.685 828.33Z"/>
	<path fill="#F1D17F" d="M536.019 821.338C544.041 816.953 562.197 811.912 571.173 814.485C579.29 816.812 585.134 824.195 588.939 831.374C590.253 833.854 591.076 836.518 592.053 839.138Q587.154 840.33 582.214 841.338C581.553 836.332 580.45 829.889 576.335 826.479C575.22 825.555 573.78 824.887 572.305 825.148C572.134 825.178 571.971 825.241 571.803 825.287C571.538 826.637 572.201 827.301 572.964 828.429C576.04 832.973 576.776 836.954 577.992 842.221L564.591 844.547C564.144 838.828 562.703 833.144 558.231 829.133C557.771 828.72 557.416 828.553 556.816 828.432C556.268 828.996 556.376 828.698 556.36 829.561C556.263 834.57 560.959 839.337 560.159 844.481C559.179 845.01 558.747 845.452 557.611 845.409C555.792 843.125 554.982 840.381 553.549 837.87C549.961 831.58 543.414 827.646 536.766 825.341C536.483 824.014 536.259 822.674 536.019 821.338Z"/>
	<path fill="#D4AE63" d="M405.64 820.471C406.612 820.597 407.459 820.521 408.424 820.386C422.328 818.437 440.367 811.306 449.028 799.753C451.089 807.505 453.665 815.118 455.52 822.923C451.002 827.069 446.522 831.143 442.496 835.783C438.982 834.869 435.098 833.646 431.446 833.559C417.05 831.89 402.761 834.749 389.321 839.861C395.454 833.851 400.538 827.351 405.64 820.471Z"/>
	<path fill="#D4AE63" d="M527.255 699.615C529.706 737.464 539.2 774.786 551.289 810.616C546.741 812.015 541.052 813.811 537.567 817.152C536.152 818.508 536.03 819.507 536.019 821.338C536.259 822.674 536.483 824.014 536.766 825.341C531.362 824.644 526.117 825.217 520.747 825.919C520.454 820.282 512.655 801.099 510.562 793.521C506.733 779.66 504.146 765.533 500.409 751.687C511.178 735.248 520.322 718.027 527.255 699.615Z"/>
	<path fill="#90A968" d="M598.42 845.565C600.336 846.403 602.567 847.046 603.32 849.219C603.758 850.485 603.474 851.617 602.829 852.744C601.176 855.63 596.338 858.337 593.566 860.043C566.473 876.706 524.806 884.599 493.611 889.928C475.445 893.031 457.325 895.268 439.067 897.642C395.006 903.372 351.015 907.563 306.526 907.658C306.899 906.475 307.23 905.35 307.458 904.127C308.458 904.338 308.528 904.493 309.522 904.096C312.195 899.861 312.188 892.553 312.652 887.621C315.702 888.128 318.752 888.44 321.831 888.699C365.059 892.337 409.323 886.893 451.991 880.166C455.842 879.559 468.186 878.402 470.644 876.326C470.846 875.799 471.071 875.041 471.373 874.545C472.047 873.437 472.448 873.693 473.666 873.626C496.741 872.371 519.014 868.825 541.76 864.989C545.629 864.337 557.061 863.048 558.984 859.598C560.5 856.882 558.822 852.781 558.075 849.997C568.661 851.187 587.746 847.731 598.42 845.565Z"/>
	<path fill="#F1D17F" d="M366.299 152.55C368.165 147.187 369.952 141.768 372.379 136.627C375.45 130.12 383.118 116.115 390.242 113.585L391.077 113.989C392.48 121.328 384.431 131.39 381.095 137.452C380.426 138.668 379.583 140.073 379.969 141.44C380.288 141.432 380.627 141.527 380.926 141.416C382.044 140.998 385.624 136.551 386.694 135.509C394.918 127.495 409.76 114.639 421.795 114.211C423.813 114.14 425.122 114.25 426.612 115.662L426.602 117.052C422.128 126.157 408.684 131.813 400.617 137.333C398.423 138.834 395.453 141.517 394.979 144.25C395.623 144.354 396.078 144.358 396.688 144.094C400.702 142.357 404.556 140.279 408.62 138.629C415.351 135.897 431.694 130.498 438.852 130.991C443.163 131.288 442.755 134.65 445.1 137.485C445.191 137.595 445.286 137.702 445.379 137.81L447.17 136.555C458.961 147.5 474.15 155.048 490.652 154.341C493.582 154.215 497.706 153.077 499.546 150.57C499.899 150.088 499.883 150.057 500.068 149.582C501.553 148.814 501.645 148.632 503.277 149.023C503.336 149.037 503.391 149.065 503.448 149.086C503.42 148.844 503.401 148.602 503.364 148.361C503.226 147.455 502.982 146.917 502.557 146.126L502.887 145.436C513.604 150.486 533.776 171.585 541.781 180.83L541.241 180.517C529.38 173.531 518.172 163.471 502.712 167.58C498.34 168.742 494.602 171.189 492.411 175.228C487.82 183.692 490.9 198.54 493.702 207.243C503.058 236.303 526.731 273.331 554.593 287.382C561.009 290.618 568.623 293.146 575.751 290.727C579.617 289.416 582.89 286.708 584.7 283.027C589.201 273.872 586.095 257.278 584.067 247.583C600.827 243.693 614.858 242.148 630.782 234.721C623.211 245.818 613.469 259.78 616.252 274.098C617.712 281.608 623.063 287.739 629.323 291.817C640.189 298.896 654.731 299.985 667.169 297.275C681.609 294.129 690.745 284.695 698.61 272.763C698.535 282.187 698.603 291.616 697.636 301.001C694.386 332.533 680.448 358.996 657.997 381.063C644.056 394.767 628.154 405.24 611.186 414.803C598.735 421.82 585.888 428.234 573.19 434.794C550.241 446.651 502.677 468.887 502.524 498.735C502.501 503.198 503.504 507.703 504.532 512.026C479.845 526.06 451.801 533.596 423.674 536.605Q423.388 535.22 423.049 533.848Q422.709 532.476 422.316 531.118Q421.922 529.76 421.476 528.418Q421.03 527.077 420.532 525.753Q420.033 524.43 419.483 523.128Q418.933 521.826 418.333 520.546Q417.732 519.266 417.082 518.01Q416.432 516.755 415.733 515.526Q415.034 514.297 414.287 513.096Q413.541 511.896 412.748 510.725Q411.955 509.555 411.116 508.416Q410.278 507.278 409.396 506.173Q408.514 505.069 407.589 503.999Q406.664 502.93 405.698 501.898Q404.732 500.866 403.726 499.872Q402.72 498.878 401.676 497.925C401.033 495.834 404.144 480.58 404.459 476.955Q405.483 464.484 404.755 451.993C401.894 403.481 383.506 352.934 364.587 308.499C351.996 278.924 335.653 248.999 314.691 224.474C310.567 219.648 306.231 214.56 300.898 211.031C298.892 209.703 296.555 208.843 294.333 207.949C315.659 185.463 338.518 166.564 366.299 152.55Z"/>
	<path fill="#271116" d="M359.794 191.685C362.451 186.309 366.633 180.699 371.321 176.914C374.092 174.677 377.448 173.001 381.096 173.459C384.476 173.884 386.152 175.745 388.084 178.369L386.372 180.196C384.762 177.991 383.395 176.244 380.5 175.903C377.546 175.554 374.755 177.378 372.66 179.255C368.382 183.088 364.928 188.41 361.949 193.272L359.794 191.685Z"/>
	<defs>
		<linearGradient id="gradient_4" gradientUnits="userSpaceOnUse" x1="378.42059" y1="193.10674" x2="390.45239" y2="200.42421">
			<stop offset="0" stop-color="#040000"/>
			<stop offset="1" stop-color="#2B0A0D"/>
		</linearGradient>
	</defs>
	<path fill="url(#gradient_4)" d="M388.084 178.369C391.994 185.626 390.207 195.665 387.921 203.163Q385.907 209.645 382.855 215.709C382.056 214.808 381.036 214.737 379.914 214.506C384.756 203.418 389.584 192.389 386.372 180.196L388.084 178.369Z"/>
	<path fill="#321419" d="M379.914 214.506C381.036 214.737 382.056 214.808 382.855 215.709C378.37 225.458 369.886 239.143 359.246 242.968C358.315 243.303 357.593 243.49 356.603 243.525L355.395 241.956C367.621 237.418 374.092 225.341 379.914 214.506Z"/>
	<path fill="#1C1511" d="M447.17 136.555C458.961 147.5 474.15 155.048 490.652 154.341C493.582 154.215 497.706 153.077 499.546 150.57C499.899 150.088 499.883 150.057 500.068 149.582C501.553 148.814 501.645 148.632 503.277 149.023C503.336 149.037 503.391 149.065 503.448 149.086C502.814 150.683 502.046 152.081 500.718 153.217C496.826 156.546 491.781 157.036 486.871 156.762C471.016 155.88 456.03 149.758 445.379 137.81L447.17 136.555Z"/>
	<defs>
		<linearGradient id="gradient_5" gradientUnits="userSpaceOnUse" x1="358.61862" y1="217.6962" x2="350.3519" y2="215.95515">
			<stop offset="0" stop-color="black"/>
			<stop offset="1" stop-color="#25040B"/>
		</linearGradient>
	</defs>
	<path fill="url(#gradient_5)" d="M359.794 191.685L361.949 193.272C356.519 204.738 347.695 225.9 352.235 238.521C352.869 240.285 353.857 241.014 355.395 241.956L356.603 243.525C355.04 243.575 353.789 243.574 352.359 242.798C350.386 241.726 349.198 239.291 348.695 237.207C345.371 223.445 352.92 203.357 359.794 191.685Z"/>
	<path fill="#EA7A64" d="M462.037 378.606C465.064 378.467 467.554 378.782 470.29 380.162C471.815 380.931 472.955 382.141 473.425 383.803C474.468 387.489 472.584 392.048 470.717 395.156C465.8 403.342 457.332 408.396 448.261 410.654C445.003 411.113 441.587 410.889 438.654 409.233C437.242 408.435 436.229 407.134 435.907 405.53C435.148 401.759 437.078 397.302 439.029 394.179C444.14 385.996 452.802 380.771 462.037 378.606Z"/>
	<path fill="#321419" d="M521.544 347.135C522.498 347.601 522.846 347.882 523.396 348.794C523.876 356.039 519.458 364.64 516.809 371.296C526.532 380.996 545.771 386.374 558.902 389.199C581.444 394.048 607.381 393.375 628.402 383.08C634.21 380.235 639.034 376.458 644.405 372.984C635.449 383.512 625 389.681 611.795 393.63C607.975 394.536 604.157 395.426 600.275 396.026C570.883 400.572 538.209 393.527 514.14 375.824C510.125 382.706 502.942 394.756 495.536 398.136C494.685 398.524 494.585 398.505 493.709 398.15C494.37 393.988 500.935 388.437 503.555 384.971C505.174 382.828 506.58 380.478 507.933 378.161C513.69 368.303 517.746 357.852 521.544 347.135Z"/>
	<path fill="#B7784F" d="M361.949 193.272C364.928 188.41 368.382 183.088 372.66 179.255C374.755 177.378 377.546 175.554 380.5 175.903C383.395 176.244 384.762 177.991 386.372 180.196C389.584 192.389 384.756 203.418 379.914 214.506C374.092 225.341 367.621 237.418 355.395 241.956C353.857 241.014 352.869 240.285 352.235 238.521C347.695 225.9 356.519 204.738 361.949 193.272Z"/>
	<path fill="#3A1717" d="M417.838 208.72C417.933 208.695 418.025 208.66 418.122 208.647C432.231 206.712 446.129 212.065 457.772 219.537C483.329 235.937 502.48 264.606 508.719 294.136C512.52 312.128 511.33 330.866 500.924 346.538C493.186 358.191 480.961 364.651 467.541 367.363C467.186 367.417 466.831 367.465 466.474 367.494C447.555 369.031 430.493 363.417 415.823 351.39Q414.807 350.549 413.812 349.683Q412.817 348.818 411.844 347.928Q410.87 347.038 409.919 346.125Q408.967 345.212 408.038 344.276Q407.109 343.34 406.203 342.382Q405.297 341.424 404.414 340.444Q403.532 339.464 402.673 338.463Q401.815 337.462 400.981 336.44Q400.147 335.418 399.339 334.376Q398.53 333.334 397.747 332.273Q396.964 331.212 396.207 330.132Q395.45 329.052 394.72 327.954Q393.989 326.856 393.286 325.741Q392.582 324.625 391.906 323.493Q391.23 322.361 390.581 321.213Q389.933 320.064 389.312 318.901Q388.692 317.737 388.1 316.558Q387.508 315.38 386.946 314.187Q386.383 312.994 385.849 311.789Q385.315 310.583 384.811 309.364Q384.307 308.145 383.832 306.915Q383.358 305.684 382.913 304.443Q382.469 303.201 382.055 301.949Q381.641 300.697 381.258 299.435Q380.874 298.173 380.522 296.902Q380.169 295.632 379.847 294.353Q379.526 293.074 379.235 291.787Q378.945 290.501 378.686 289.208Q378.427 287.915 378.2 286.616Q377.972 285.317 377.777 284.012Q377.581 282.708 377.417 281.4Q377.253 280.091 377.121 278.779C375.312 260.874 378.572 238.997 390.397 224.74C397.407 216.288 406.649 209.795 417.838 208.72Z"/>
	<path fill="#D9D9D7" d="M382.473 261.377C382.165 257.129 383.41 251.968 384.487 247.882C387.691 235.72 394.559 224.208 405.684 217.814C415.002 212.459 425.399 212.247 435.571 215.026C435.344 215.141 435.117 215.259 434.889 215.372C431.398 217.093 427.354 217.777 423.773 219.468C411.83 225.108 402.229 235.388 396.052 246.871C393.511 251.594 391.963 256.908 389.101 261.395C387.917 263.25 386.92 264.713 384.617 264.882C383.076 263.686 382.944 263.235 382.473 261.377Z"/>
	<path fill="#FEFEFC" d="M435.571 215.026C457.396 219.537 477.042 239.745 488.796 257.671C500.897 276.126 509.368 302.441 504.725 324.567C502.103 337.06 495.608 348.947 484.705 356.002Q483.712 356.64 482.689 357.228Q481.667 357.817 480.617 358.356Q479.567 358.894 478.492 359.381Q477.418 359.868 476.32 360.303Q475.223 360.737 474.107 361.118Q472.99 361.498 471.856 361.825Q470.722 362.151 469.573 362.422Q468.425 362.693 467.265 362.908Q466.104 363.123 464.935 363.281Q463.766 363.44 462.59 363.542Q461.415 363.643 460.236 363.688Q459.057 363.733 457.877 363.72Q456.697 363.708 455.519 363.638Q454.341 363.568 453.168 363.442Q451.995 363.315 450.829 363.132Q449.663 362.948 448.508 362.709C426.87 358.013 410.112 342.53 398.597 324.325C386.258 304.816 380.408 284.516 382.473 261.377C382.944 263.235 383.076 263.686 384.617 264.882C386.92 264.713 387.917 263.25 389.101 261.395C391.963 256.908 393.511 251.594 396.052 246.871C402.229 235.388 411.83 225.108 423.773 219.468C427.354 217.777 431.398 217.093 434.889 215.372C435.117 215.259 435.344 215.141 435.571 215.026Z"/>
	<path fill="#3A1717" d="M401.048 260.057C403.016 260.043 404.797 260.008 406.585 260.933C413.325 264.418 417.559 274.261 419.777 281.112C421.949 287.818 424.435 297.728 420.788 304.275C419.423 306.725 417.63 307.982 414.953 308.654C413.167 308.639 411.325 308.624 409.621 308.026C403.215 305.776 398.409 298.921 395.774 292.907C392.682 285.853 390.577 274.481 393.599 267.188C395.164 263.411 397.361 261.603 401.048 260.057Z"/>
</svg>
