<?xml version="1.0" encoding="utf-8" ?>
<svg xmlns="http://www.w3.org/2000/svg" xmlns:xlink="http://www.w3.org/1999/xlink" width="1024" height="1024">
	<path d="M0 0L628.749 0L747.821 0L751.472 0L816.897 0L819.125 0L878.131 0L880.496 0L931.569 0L933.89 0L1023.05 0L1024 0L1024 771.603L1024 773.082L1024 885.769L1024 1009.98L1024 1011.43L1024 1024L1022.22 1024L619 1024L521.046 1024L60.5 1024L0 1024L0 663.288L0 659.731L0 0Z"/>
	<path fill="#7C6A69" d="M616.047 196.68C620.11 197.826 623.931 201.56 626.784 204.56C623.072 203.399 619.754 202.427 615.819 202.46C615.906 201.146 616.321 199.782 616.546 198.474L616.047 196.68Z"/>
	<path fill="#5C4F4E" d="M613.229 209.351C613.715 209.42 613.935 209.42 614.372 209.582C615.742 210.088 616.949 211.47 618.051 212.428C625.897 219.248 631.792 227.386 636.267 236.712C632.342 233.932 625.045 223.014 621.493 218.623C618.883 215.399 616.064 212.375 613.229 209.351Z"/>
	<path fill="#FAF9F6" d="M657.88 250.488C667.925 251.584 684.561 254.665 691.171 263.149C692.756 265.185 694.468 268.099 694.966 270.637L694.288 270.458C692.918 268.064 691.61 265.613 690.005 263.366C690.645 266.113 692.21 268.348 692.708 271.037L692.301 271.508Q690.432 267.47 688.466 263.479C686.797 260.761 684.197 259.874 681.251 259.132C674.037 256.365 663.354 256.008 657.88 250.488Z"/>
	<path fill="#F8EED8" d="M692.301 271.508L692.708 271.037C692.21 268.348 690.645 266.113 690.005 263.366C691.61 265.613 692.918 268.064 694.288 270.458L694.966 270.637C701.455 283.338 700.092 311.51 696.807 325.014L696.199 325.139L695.69 325.922C695.711 324.569 695.601 323.215 695.523 321.865C695.542 317.402 696.483 312.646 696.763 308.152C697.559 295.355 695.926 283.741 692.301 271.508Z"/>
	<path fill="#FAF9F6" d="M508.465 92.895C508.952 91.9643 509.381 90.7044 510.258 90.1174L510.348 90.6164C516.169 121.582 530.47 155.407 546.956 182.227C545.971 182.209 545.046 182.104 544.072 181.959C540.839 179.263 538.789 174.536 536.804 170.876C523.576 146.478 515.465 119.634 508.465 92.895Z"/>
	<path fill="#FAF9F6" d="M464.796 210.987C464.337 210.036 464.012 209.222 463.793 208.187C465.723 204.822 488.811 197.511 493.604 196.061C502.888 193.254 512.284 191.378 521.806 189.591C552.538 183.825 587.47 181.35 616.047 196.68L616.546 198.474C610.525 196.593 604.58 194.372 598.451 192.863C565.491 184.751 535.544 188.209 503.246 196.805C491.793 199.854 479.028 203.127 468.472 208.6C467.158 209.281 465.965 210.084 464.796 210.987Z"/>
	<path fill="#F8EED8" d="M601.344 426.679L602.033 428.475C588.067 449.558 586.779 470.277 591.712 494.719C596.846 520.151 607.849 544.977 621.5 566.946C619.008 564.132 607.812 549.046 605.318 548.692L605.14 548.798C605.221 549.113 605.298 549.429 605.382 549.743C606.816 555.059 610.162 560.331 612.225 565.498C619.314 583.254 621.135 600.973 616.465 619.561C614.764 612.358 616.49 601.915 615.017 593.499C612.424 578.689 606.854 564.707 603.615 550.089C601.809 542.115 598.594 534.745 595.788 527.1C590.714 513.277 586.01 498.521 584.278 483.872C581.634 461.501 587.567 444.241 601.344 426.679Z"/>
	<path fill="#5C4F4E" d="M445.779 890.827C455.972 868.87 456.745 845.26 453.216 821.618C452.608 817.545 451.238 813.696 450.64 809.664C452.185 812.715 452.96 815.798 454.126 818.968C456.509 825.447 458.795 832.002 461.283 838.436C464.687 847.238 478.413 877.348 479.291 883.916L479.127 884.409C468.825 886.091 457.966 891.828 446.438 891.517L445.779 890.827Z"/>
	<path fill="#FEE9A9" d="M617.27 205.197C620.354 205.192 623.658 206.547 626.35 207.996C640.2 215.454 650.972 234.667 655.582 249.07C653.686 251.609 651.712 253.617 648.767 254.911C644.298 256.877 639.248 256.663 634.75 254.891C622.54 250.079 613.508 235.193 608.464 223.805C606.111 218.145 604.975 212.826 605.102 206.7C617.302 215.201 624.838 228.426 634.66 239.234C636.391 241.139 638.679 243.899 641.349 244.042C642.202 241.471 640.005 237.577 638.875 235.229C634.384 225.896 627.072 214.709 617.599 209.782C615.144 208.505 612.228 207.74 609.602 206.817C610.926 205.473 615.342 205.406 617.27 205.197Z"/>
	<path fill="#463238" d="M479.127 884.409L479.291 883.916C483.834 888.959 490.751 909.86 494.247 917.365Q474.242 915.815 454.351 913.175C447.223 912.264 439.684 911.586 432.734 909.701Q439.717 900.582 445.779 890.827L446.438 891.517C457.966 891.828 468.825 886.091 479.127 884.409Z"/>
	<path d="M446.438 891.517C457.966 891.828 468.825 886.091 479.127 884.409C477.673 887.165 473.239 888.404 470.394 889.289C463.984 891.283 452.502 894.33 445.949 892.405L445.932 891.957L446.438 891.517Z"/>
	<defs>
		<linearGradient id="gradient_0" gradientUnits="userSpaceOnUse" x1="570.31451" y1="786.03564" x2="644.94812" y2="794.19025">
			<stop offset="0" stop-color="#FDE6C4"/>
			<stop offset="1" stop-color="white"/>
		</linearGradient>
	</defs>
	<path fill="url(#gradient_0)" d="M604.89 634.105L606.556 634.29C604.973 641.39 603.658 648.683 601.63 655.665C595.865 675.52 588.372 694.611 584.266 714.974C575.299 759.446 575.577 862.792 599.801 901.056C600.547 902.234 601.379 903.306 602.296 904.355C603.112 904.097 603.715 903.847 604.464 903.429C606.949 902.044 612.124 902.012 614.82 902.886C620.98 904.883 625.902 910.898 628.598 916.614C630.959 921.616 632.332 928.069 630.513 933.419C629.89 935.252 628.707 936.983 627.383 938.381C627.532 937.804 627.67 937.221 627.825 936.646C628.108 935.599 628.426 934.562 628.599 933.489C629.732 926.492 627.358 918.059 623.067 912.481C619.718 908.128 615.605 906.105 610.246 905.409L609.91 905.814L611.395 907.625C608.934 908.442 602.581 907.628 599.526 907.75Q597.865 906.043 596.434 904.139C590.954 896.84 587.983 887.112 585.386 878.453C573.405 838.508 571.604 795.374 574.101 753.999C574.645 744.978 575.076 735.925 576.314 726.966C579.332 705.122 586.903 684.124 594.314 663.466C595.427 660.365 597.445 652.25 599.897 650.382C602.675 647.968 603.241 638.625 604.752 634.593L604.89 634.105Z"/>
	<path fill="#5C4F4E" d="M469.511 201.883C475.551 170.053 486.491 139.353 499.842 109.897C502.361 104.339 504.715 97.697 508.465 92.895C515.465 119.634 523.576 146.478 536.804 170.876C538.789 174.536 540.839 179.263 544.072 181.959C545.046 182.104 545.971 182.209 546.956 182.227C520.273 187.158 494.438 190.593 469.511 201.883Z"/>
	<path fill="#D1C6BE" d="M1023.65 772.982L1024 773.082L1024 885.769L1024 1009.98L1022.92 1008.57C1023.13 989.838 1022.48 971.004 1023.18 952.302L1023.17 949.03C1022.35 940.788 1023.01 931.851 1023.01 923.525C1023.01 913.326 1021.92 895.19 1023.77 885.922L1023.62 884.571L1023.2 882.068C1005.82 875.388 988.126 869.559 970.525 863.512C959.306 859.657 948.184 855.524 936.947 851.72C922.269 846.751 907.421 842.056 892.951 836.513C914.211 827.906 935.711 816.898 956.438 806.943C978.674 796.264 1001.32 785.986 1023.07 774.341L1023.65 772.982Z"/>
	<path fill="#FAF9F6" d="M1023.65 772.982L1024 773.082L1024 885.769L1024 1009.98L1022.92 1008.57C1023.13 989.838 1022.48 971.004 1023.18 952.302L1023.17 949.03C1022.35 940.788 1023.01 931.851 1023.01 923.525C1023.01 913.326 1021.92 895.19 1023.77 885.922L1023.62 884.571L1023.2 882.068C1022.23 870.192 1023.02 857.615 1023.02 845.672L1023.07 774.341L1023.65 772.982Z"/>
	<path fill="#F8EED8" d="M885.838 837.627L980.554 870.697L1010.29 880.974C1014.41 882.386 1018.5 884.285 1022.72 885.286L1023.62 884.571L1023.77 885.922C1021.92 895.19 1023.01 913.326 1023.01 923.525C1023.01 931.851 1022.35 940.788 1023.17 949.03C1011.96 944.851 1000.92 939.742 989.784 935.29L860.218 882.305C847.902 877.316 835.796 871.798 823.331 867.185C843.865 857.018 864.7 846.429 885.838 837.627Z"/>
	<path fill="#F8EED8" d="M819.801 869.061C833.283 874.213 846.364 880.463 859.717 885.952L971.581 931.578C988.747 938.498 1005.84 945.84 1023.18 952.302C1022.48 971.004 1023.13 989.838 1022.92 1008.57C1015.6 1005.35 1007.94 1002.7 1000.45 999.869L957.474 983.57L820.033 930.005L819.801 869.061Z"/>
	<path fill="#5C4F4E" d="M532.179 713.296C537.919 708.846 544.117 705.003 549.87 700.547C565.189 688.683 577.938 675.44 589.43 659.829C592.185 656.087 595.261 652.18 597.552 648.14C597.95 647.439 598.351 646.758 598.779 646.077L599.897 650.382C597.445 652.25 595.427 660.365 594.314 663.466C586.903 684.124 579.332 705.122 576.314 726.966C575.076 735.925 574.645 744.978 574.101 753.999C571.604 795.374 573.405 838.508 585.386 878.453C587.983 887.112 590.954 896.84 596.434 904.139Q597.865 906.043 599.526 907.75C602.581 907.628 608.934 908.442 611.395 907.625L609.91 905.814L610.246 905.409C615.605 906.105 619.718 908.128 623.067 912.481C627.358 918.059 629.732 926.492 628.599 933.489C628.426 934.562 628.108 935.599 627.825 936.646C627.67 937.221 627.532 937.804 627.383 938.381C624.21 942.559 619.089 943.809 614.258 944.936C614.374 944.624 614.484 944.31 614.604 943.999C616.05 940.256 616.768 937.17 615.943 933.14C614.631 926.739 610.034 922.854 604.833 919.518C607.628 923.226 610.881 926.781 612.512 931.204C614.567 936.777 612.938 941.222 610.473 946.247C605.892 947.523 601.108 948.205 596.429 949.044C595.434 945.135 594.331 941.535 591.942 938.208C585.487 929.216 572.691 927.168 562.508 925.356Q558.386 919.617 555.095 913.365C531.522 869.01 517.607 761.154 532.179 713.296Z"/>
	<path fill="#F8EED8" d="M73.6154 688.235C80.8247 690.966 88.4138 693.067 95.7456 695.475C112.488 700.973 129.267 706.407 145.937 712.121L196.648 729.735C206.628 733.222 216.591 737.053 226.763 739.941C217.993 789.096 222.456 826.731 243.044 872.287C243.453 873.274 243.486 873.071 243.269 874.26C194.428 861.4 144.369 843.778 109.438 805.43C77.397 770.256 71.5434 733.935 73.6154 688.235Z"/>
	<path fill="#D1C6BE" d="M816.906 932.853C838.167 939.872 858.893 948.93 879.719 957.147Q926.373 975.432 973.243 993.152C985.307 997.741 997.238 1002.69 1009.39 1007.04C1013.86 1008.63 1018.81 1010.73 1023.48 1011.55L1024 1011.43L1024 1024L1022.22 1024L619 1024C623.61 1020.99 629.063 1019.07 634.11 1016.88L657.631 1006.69Q717.398 981.186 776.156 953.437C785.236 949.212 810.958 939.312 816.906 932.853Z"/>
	<path fill="#FAF9F6" d="M1023.48 1011.55L1024 1011.43L1024 1024L1022.22 1024C1023.96 1021.14 1023.3 1014.97 1023.48 1011.55Z"/>
	<path fill="#5C4F4E" d="M267.79 909.763C201.607 897.074 136.817 884.718 84.7689 838.511C50.5278 808.112 32.3634 768.871 29.5995 723.473C26.0115 664.536 48.4988 588.828 88.261 544.409C104.151 526.658 122.382 512.285 147.197 511.159C152.744 510.907 160.367 511.06 164.649 514.968C166.856 516.824 168.164 518.451 168.333 521.431C168.719 528.209 162.297 535.193 157.907 539.762C146.292 551.849 132.887 562.051 121.444 574.422Q119.861 576.124 118.319 577.864Q116.777 579.603 115.276 581.378Q113.776 583.154 112.318 584.964Q110.86 586.775 109.446 588.62Q108.031 590.464 106.661 592.342Q105.291 594.22 103.966 596.13Q102.641 598.039 101.361 599.98Q100.082 601.921 98.8487 603.891Q97.6157 605.862 96.4299 607.861Q95.244 609.861 94.106 611.887Q92.968 613.914 91.8784 615.968Q90.7889 618.021 89.7484 620.1Q88.7079 622.178 87.7171 624.281Q86.7263 626.384 85.7857 628.51Q84.8451 630.635 83.9552 632.783Q83.0654 634.93 82.2268 637.098Q81.3883 639.266 80.6014 641.454Q79.8146 643.641 79.0799 645.846Q78.3453 648.052 77.6632 650.274Q76.9811 652.496 76.352 654.734Q75.7229 656.972 75.1471 659.224Q74.5714 661.476 74.0493 663.741Q73.5271 666.006 73.059 668.283Q72.5908 670.56 72.1768 672.847Q71.7629 675.135 71.4034 677.431Q71.0439 679.728 70.739 682.032Q70.4342 684.337 70.1842 686.648Q69.9341 688.959 69.7391 691.275Q69.544 693.591 69.404 695.912Q69.264 698.232 69.1792 700.555Q69.0943 702.878 69.0647 705.202Q69.035 707.527 69.0606 709.851C69.6923 749.767 84.2229 787.022 113.249 814.88C138.053 838.687 169.734 854.942 202.145 865.739C205.476 865.853 213.905 869.428 217.566 870.496C226.7 873.16 236.055 875.633 245.417 877.344C252.184 888.844 259.562 899.249 267.79 909.763Z"/>
	<path fill="#F8EED8" d="M164.649 514.968C166.856 516.824 168.164 518.451 168.333 521.431C168.719 528.209 162.297 535.193 157.907 539.762C146.292 551.849 132.887 562.051 121.444 574.422Q119.861 576.124 118.319 577.864Q116.777 579.603 115.276 581.378Q113.776 583.154 112.318 584.964Q110.86 586.775 109.446 588.62Q108.031 590.464 106.661 592.342Q105.291 594.22 103.966 596.13Q102.641 598.039 101.361 599.98Q100.082 601.921 98.8487 603.891Q97.6157 605.862 96.4299 607.861Q95.244 609.861 94.106 611.887Q92.968 613.914 91.8784 615.968Q90.7889 618.021 89.7484 620.1Q88.7079 622.178 87.7171 624.281Q86.7263 626.384 85.7857 628.51Q84.8451 630.635 83.9552 632.783Q83.0654 634.93 82.2268 637.098Q81.3883 639.266 80.6014 641.454Q79.8146 643.641 79.0799 645.846Q78.3453 648.052 77.6632 650.274Q76.9811 652.496 76.352 654.734Q75.7229 656.972 75.1471 659.224Q74.5714 661.476 74.0493 663.741Q73.5271 666.006 73.059 668.283Q72.5908 670.56 72.1768 672.847Q71.7629 675.135 71.4034 677.431Q71.0439 679.728 70.739 682.032Q70.4342 684.337 70.1842 686.648Q69.9341 688.959 69.7391 691.275Q69.544 693.591 69.404 695.912Q69.264 698.232 69.1792 700.555Q69.0943 702.878 69.0647 705.202Q69.035 707.527 69.0606 709.851C69.6923 749.767 84.2229 787.022 113.249 814.88C138.053 838.687 169.734 854.942 202.145 865.739C201.874 865.761 201.604 865.79 201.332 865.804C197.179 866.013 190.02 862.732 186.003 861.321C159.156 851.893 135.883 839.771 114.728 820.519C83.974 792.531 67.4777 756.444 65.6426 714.951Q65.5492 712.471 65.5171 709.989Q65.4849 707.508 65.5142 705.026Q65.5434 702.545 65.634 700.064Q65.7246 697.584 65.8764 695.107Q66.0283 692.63 66.2413 690.157Q66.4543 687.685 66.7284 685.218Q67.0025 682.752 67.3375 680.292Q67.6724 677.833 68.0681 675.383Q68.4637 672.933 68.9198 670.494Q69.3759 668.054 69.8921 665.627Q70.4084 663.199 70.9845 660.785Q71.5605 658.371 72.1961 655.972Q72.8317 653.573 73.5264 651.191Q74.2211 648.808 74.9744 646.443Q75.7278 644.079 76.5394 641.733Q77.3509 639.388 78.2202 637.063Q79.0895 634.739 80.016 632.437Q80.9425 630.134 81.9257 627.855Q82.9088 625.577 83.9479 623.323Q84.9871 621.069 86.0816 618.842Q87.1761 616.614 88.3254 614.415Q89.4747 612.215 90.6779 610.044Q91.8812 607.874 93.1378 605.734Q94.3943 603.594 95.7034 601.485Q97.0125 599.377 98.3733 597.301Q99.7341 595.226 101.146 593.184Q102.557 591.143 104.019 589.138Q105.481 587.132 106.992 585.163Q108.502 583.194 110.061 581.263Q111.621 579.332 113.227 577.44Q114.833 575.548 116.486 573.697Q118.138 571.845 119.836 570.035C125.016 564.45 130.473 558.872 136.17 553.81C143.129 547.625 150.466 541.942 156.738 535.018C163.334 527.734 165.184 524.931 164.649 514.968Z"/>
	<path fill="#F8EED8" d="M587.076 843.034C610.65 851.884 634.829 859.571 658.743 867.463C675.509 872.996 692.056 879.102 708.758 884.809C723.477 889.839 738.292 894.469 752.905 899.818C752.935 902.388 753.057 904.961 753.141 907.53C759.99 910.297 766.578 913.671 773.469 916.367C787.898 922.011 802.565 926.962 816.906 932.853C810.958 939.312 785.236 949.212 776.156 953.437Q717.398 981.186 657.631 1006.69L634.11 1016.88C629.063 1019.07 623.61 1020.99 619 1024L521.046 1024L522.044 1022.85C528.696 1014.63 540.842 1006.4 549.299 999.559C562.489 988.893 575.512 977.998 588.907 967.589C595.111 962.769 606.921 955.08 611.175 948.819C616.627 946.923 622.066 946.487 626.867 942.911C631.153 939.719 633.84 935.191 634.516 929.887C635.458 922.501 632.922 914.954 628.452 909.113C624.733 904.252 619.235 899.392 612.929 898.757C608.882 898.35 605.823 899.711 602.705 902.179C600.546 894.788 597.382 887.637 595.013 880.292C591.093 868.142 588.827 855.653 587.076 843.034Z"/>
	<path fill="#F8EED8" d="M0 663.288Q14.1986 668.44 28.7249 672.58C22.0289 723.503 27.8714 775.019 59.9057 817.016C68.9907 828.926 80.331 839.65 92.1049 848.86C125.189 874.741 160.209 887.643 200.276 899.033C195.724 903.585 190.253 907.307 185.085 911.126C176.348 917.583 167.416 923.874 158.882 930.594C128.176 954.772 94.7313 984.604 68.5304 1013.64C66.1385 1016.29 61.7844 1020.22 60.5095 1023.39L60.5 1024L0 1024L0 663.288Z"/>
	<path fill="#D1C6BE" d="M200.276 899.033C221.089 904.88 248.382 909.783 269.916 912.339C273.045 915.685 276.209 918.884 279.925 921.584C278.158 925.285 276.654 928.975 278.17 933.097C280.19 938.592 286.289 941.44 291.324 943.586C300.781 947.618 311.115 949.988 321.078 952.423Q343.874 957.857 366.812 962.659C391.172 967.854 416.158 974.704 441.073 976.025C451.846 976.596 464.574 975.616 474.643 971.467C478.647 969.818 482.877 967.339 484.654 963.185C486.633 958.554 485.113 951.977 483.097 947.608C479.503 939.821 472.154 932.784 464.004 929.97C448.806 924.722 433.501 921.884 417.392 921.82C422.212 918.725 426.837 915.625 431.042 911.705C440.021 914.186 449.312 915.339 458.507 916.717C470.84 918.565 483.032 920.671 495.548 920.483C502.332 936.771 512.01 966.193 529.111 973.427C542.358 979.03 565.427 974.732 578.184 969.375C584.339 966.79 593.035 962.238 595.602 955.67C596.124 954.334 596.294 952.806 596.507 951.393C601.382 950.528 606.277 949.519 611.175 948.819C606.921 955.08 595.111 962.769 588.907 967.589C575.512 977.998 562.489 988.893 549.299 999.559C540.842 1006.4 528.696 1014.63 522.044 1022.85L521.046 1024L60.5 1024L60.5095 1023.39C61.7844 1020.22 66.1385 1016.29 68.5304 1013.64C94.7313 984.604 128.176 954.772 158.882 930.594C167.416 923.874 176.348 917.583 185.085 911.126C190.253 907.307 195.724 903.585 200.276 899.033Z"/>
	<path fill="#FAF9F6" d="M60.5095 1023.39Q217.114 1024.37 373.716 1023.26L472.253 1023.26L503.691 1023.22C509.75 1023.2 516.023 1023.51 522.044 1022.85L521.046 1024L60.5 1024L60.5095 1023.39Z"/>
	<path fill="#F8EED8" d="M628.749 0L747.821 0Q747.932 119.604 746.481 239.199Q737.551 243.465 729.063 248.556Q720.576 253.647 712.607 259.517C708.042 262.847 703.747 266.547 699.188 269.862C695.12 260.896 689.933 255.734 680.741 252.229C673.694 249.542 666.112 247.431 658.727 245.916C650.687 225.324 632.362 199.369 611.566 190.337C592.351 181.993 570.68 181.206 550.064 181.625C539.851 163.593 531.486 145.31 524.324 125.851C528.574 118.706 534.371 113.325 539.761 107.097C546.394 99.4328 552.828 91.5666 559.286 83.7535L605.909 26.8065C613.362 17.8312 620.649 8.38972 628.749 0Z"/>
	<path fill="#D1C6BE" d="M880.496 0L931.569 0L933.89 0L929.426 604.07C929.226 643.943 928.382 683.794 928.537 723.673C940.231 719.16 951.596 713.121 962.899 707.703L1023.06 678.731L1023.08 682.009C1023.05 685.007 1022.8 688.222 1023.09 691.197L1023.27 694.435C1022.53 710.54 1023.01 726.835 1023.01 742.961C1023.01 751.277 1022.15 761.579 1023.12 769.643C1023.22 770.445 1023.52 770.974 1024 771.603L1024 773.082L1023.65 772.982L1023.38 771.921C1022.34 771.389 1022.1 771.836 1021.07 772.304C988.585 787.047 956.762 803.449 924.442 818.591C913.743 823.604 898.489 831.902 887.531 835.153Q886.532 768.392 886.435 701.622L885.438 568.294L882.581 236.021Q882.428 118.003 880.496 0Z"/>
	<path d="M931.569 0L933.89 0L929.426 604.07C929.226 643.943 928.382 683.794 928.537 723.673C940.231 719.16 951.596 713.121 962.899 707.703L1023.06 678.731L1023.08 682.009C1023.05 685.007 1022.8 688.222 1023.09 691.197L1023.27 694.435C1017.03 696.876 1010.91 699.995 1004.8 702.75C987.221 710.666 969.849 719.028 952.347 727.107C943.543 731.17 934.779 735.481 925.643 738.754C924.705 730.456 925.127 721.88 925.171 713.532Q925.338 693.481 925.298 673.43L926.287 508.358Q927.192 254.158 931.569 0Z"/>
	<path fill="#D1C6BE" d="M1023.08 682.009C1023.05 685.007 1022.8 688.222 1023.09 691.197C1006.56 698.342 990.319 705.927 973.97 713.457C958.723 720.48 943.502 727.338 928.592 735.077L928.523 726.819Q955.192 714.972 981.422 702.184C995.33 695.573 1009.46 689.207 1023.08 682.009Z"/>
	<path fill="#D1C6BE" d="M819.125 0L878.131 0Q878.292 285.139 881.658 570.251L883.07 754.458C883.407 781.013 882.621 807.976 884.419 834.457C874.362 839.72 863.8 844.262 853.537 849.137Q836.593 857.243 820.019 866.082L819.125 0Z"/>
	<path fill="#F8EED8" d="M80.8751 653.675C82.2728 653.03 83.2141 652.032 84.177 650.857L320.99 363.007C332.633 349.065 344.013 334.883 355.75 321.026C360.699 315.183 365.7 308.263 371.534 303.323C373.711 327.215 375.252 350.886 370.372 374.579C368.185 385.201 364.815 395.566 361.701 405.941C371.147 396.474 379.96 386.291 389.242 376.636C383.587 388.407 376.941 399.759 371.924 411.823C381.577 412.226 388.56 410.387 397.582 407.092C394.605 409.51 391.308 411.852 388.601 414.56C396.522 418.239 405.411 420.47 413.697 423.298Q413.448 425.699 413.129 428.092Q412.81 430.485 412.421 432.867Q412.032 435.25 411.574 437.62Q411.115 439.99 410.588 442.346Q410.06 444.701 409.464 447.04Q408.867 449.38 408.203 451.7Q407.539 454.021 406.807 456.322Q406.074 458.622 405.275 460.9Q404.476 463.178 403.611 465.431Q402.746 467.685 401.815 469.912Q400.884 472.14 399.888 474.339Q398.892 476.538 397.833 478.707Q396.773 480.876 395.651 483.013Q394.528 485.15 393.344 487.254Q392.159 489.357 390.913 491.425Q389.668 493.492 388.362 495.523C373.855 517.713 353.178 535.764 335.039 554.906C287.925 604.629 240.282 668.485 227.204 737.202C210.864 730.872 194.23 725.404 177.674 719.676Q126.22 701.598 74.2925 684.926C75.1682 674.399 77.3459 663.638 80.8751 653.675Z"/>
	<path fill="#F8EED8" d="M751.472 0L816.897 0Q814.693 352.713 816.181 705.411Q816.769 816.963 816.24 928.515C796.075 921.282 775.8 913.849 756.17 905.277L751.06 601.628Q748.795 450.805 750.062 299.972C765.116 299.549 780.408 300.206 795.254 302.864C801.712 304.021 807.982 305.972 814.448 307.079C795.881 296.149 771.095 295.872 750.099 296.003L750.027 270.785C766.3 266.432 782.287 262.991 798.917 260.41C783.186 258.625 765.552 262.915 750.305 266.74L749.909 241.137C758.389 236.127 767.494 231.967 776.59 228.218C776.462 228.233 776.333 228.245 776.205 228.261L775.565 228.347C766.999 229.438 758.09 233.681 750.192 237.111L751.472 0Z"/>
	<path fill="#D1C6BE" d="M933.89 0L1023.05 0L1024 0L1024 771.603C1023.52 770.974 1023.22 770.445 1023.12 769.643C1022.15 761.579 1023.01 751.277 1023.01 742.961C1023.01 726.835 1022.53 710.54 1023.27 694.435L1023.09 691.197C1022.8 688.222 1023.05 685.007 1023.08 682.009L1023.06 678.731L962.899 707.703C951.596 713.121 940.231 719.16 928.537 723.673C928.382 683.794 929.226 643.943 929.426 604.07L933.89 0Z"/>
	<path fill="#FAF9F6" d="M1023.05 0L1024 0L1024 771.603C1023.52 770.974 1023.22 770.445 1023.12 769.643C1022.15 761.579 1023.01 751.277 1023.01 742.961C1023.01 726.835 1022.53 710.54 1023.27 694.435L1023.09 691.197C1022.8 688.222 1023.05 685.007 1023.08 682.009L1023.06 678.731C1022.43 653.648 1023.11 628.402 1023.12 603.297L1023.19 445.795L1023.05 0Z"/>
	<path fill="#F8EED8" d="M745.824 243.514C747.366 245.59 746.215 264.013 746.187 268.067C735.561 271.347 712.428 278.932 705.229 287.069C711.059 285.218 716.653 282.513 722.33 280.234Q734.067 275.62 746.097 271.836C746.161 279.999 746.038 288.17 745.993 296.333C738.14 296.53 710.674 298.769 705.704 303.081C705.601 303.17 705.522 303.284 705.431 303.386L705.131 303.252L705.778 303.472C714.715 300.366 735.956 300.341 746.081 300.039C746.742 389.779 745.725 479.513 746.95 569.262L750.546 787.811Q752.016 841.842 752.723 895.888C717.762 883.014 681.999 871.983 646.815 859.695C638.936 857.444 631.161 854.39 623.354 851.859C611.119 847.891 598.778 844.313 586.671 839.95C584.911 831.961 584.633 823.109 584.088 814.944C581.575 777.257 582.922 734.099 592.835 697.558C599.033 674.714 608.205 652.672 611.568 629.15L612.018 629.884L611.98 629.377L613.488 630.755L614.163 630.59C614.755 627.513 613.483 623.877 613.731 620.573C613.747 620.356 613.769 620.139 613.788 619.922C614.739 623.819 615.588 627.746 616.479 631.657C617.834 628.275 618.667 624.471 619.616 620.948C625.051 600.775 623.324 582.922 615.513 563.649C621.332 569.856 626.474 576.707 632.431 582.751C628.881 573.044 623.776 564.326 618.997 555.216C610.698 539.401 603.23 523.675 598.396 506.421C577.039 430.207 620.948 416.584 669.111 374.097C677.911 366.333 687.471 357.441 693.186 347.124C704.437 326.814 705.599 292.338 699.3 270.366C714.901 261.228 729.313 251.127 745.824 243.514Z"/>
	<path fill="#5C4F4E" d="M368.871 395.202C371.546 383.147 374.753 371.312 376.079 358.997C378.942 332.408 374.654 305.915 374.293 279.318C373.696 235.431 379.759 193.035 392.289 150.976C395.969 138.623 399.993 125.956 405.309 114.202L405.672 115.027C416.433 134.691 427.785 153.883 439.166 173.188C447.082 186.615 454.885 200.676 463.841 213.41L464.796 210.987C465.965 210.084 467.158 209.281 468.472 208.6C479.028 203.127 491.793 199.854 503.246 196.805C535.544 188.209 565.491 184.751 598.451 192.863C604.58 194.372 610.525 196.593 616.546 198.474C616.321 199.782 615.906 201.146 615.819 202.46C612.59 202.869 607.742 202.841 605.445 205.488C602.941 208.375 603.482 213.934 604.126 217.385C606.575 230.499 616.897 246.991 627.936 254.563C633.079 258.091 639.179 259.75 645.382 258.667C650.798 257.72 654.135 254.172 657.88 250.488C663.354 256.008 674.037 256.365 681.251 259.132C684.197 259.874 686.797 260.761 688.466 263.479Q690.432 267.47 692.301 271.508C695.926 283.741 697.559 295.355 696.763 308.152C696.483 312.646 695.542 317.402 695.523 321.865C695.601 323.215 695.711 324.569 695.69 325.922L696.199 325.139L696.807 325.014Q696.418 327.231 695.874 329.416Q695.33 331.6 694.634 333.741Q693.938 335.882 693.093 337.969Q692.248 340.056 691.259 342.078Q690.27 344.1 689.141 346.048Q688.012 347.996 686.749 349.859Q685.486 351.723 684.095 353.493Q682.705 355.264 681.193 356.932C657.933 384.033 622.629 399.112 602.033 428.475L601.344 426.679C587.567 444.241 581.634 461.501 584.278 483.872C586.01 498.521 590.714 513.277 595.788 527.1C598.594 534.745 601.809 542.115 603.615 550.089C606.854 564.707 612.424 578.689 615.017 593.499C616.49 601.915 614.764 612.358 616.465 619.561L616.452 620.586L615.872 620.972C615.647 620.318 615.551 619.807 615.542 619.113C615.525 617.84 615.541 616.611 615.182 615.376C614.185 611.942 607.509 597.699 605.28 595.47C604.242 597.074 607.676 608.654 607.929 611.744L607.971 612.307C608.063 619.598 608.06 627.127 606.556 634.29L604.89 634.105L604.752 634.593L604.192 633.378C601.241 633.13 598.47 639.175 597.059 641.464C578.053 672.296 561.552 689.37 532.53 711.075C536.877 694.927 543.055 678.825 545.873 662.339C550.778 633.637 545.581 604.541 539.819 576.371C538.407 569.467 537.382 561.706 534.96 555.089C534.041 558.523 541.839 602.062 542.757 609.92C544.013 620.674 544.943 631.609 544.664 642.444C544.081 665.061 536.085 683.928 530.748 705.388C528.213 715.584 525.875 725.873 524.776 736.337C519.777 783.901 527.793 855.476 545.684 900.032C549.698 910.028 554.984 919.184 560.518 928.382Q567.198 928.947 573.638 930.811C580.318 932.726 587.831 935.783 591.204 942.303C593.038 945.849 593.694 950.728 592.392 954.553C590.749 959.38 586.255 962.075 581.972 964.282C582.487 962.595 583.056 960.871 583.347 959.13C584.21 953.959 582.631 948.632 579.492 944.497C574.758 938.259 568.496 935.944 561.046 934.952C563.005 936.034 564.982 936.937 566.986 937.915C572.775 940.74 578.608 946.191 580.527 952.425C582.081 957.476 580.735 961.431 578.293 965.814C571.627 969.3 564.104 970.522 556.765 971.755C559.465 969.126 561.182 966.071 561.565 962.26C561.963 958.307 560.317 954.376 557.816 951.384C552.7 945.264 545.581 943.732 538.081 942.932C544.175 945.057 549.995 947.05 554.438 952.025C556.988 954.88 558.913 958.696 558.636 962.611C558.326 966.994 555.876 969.379 552.823 972.147C545.998 973.02 539.176 973.631 532.555 971.276C525.915 968.914 521.235 964.345 517.321 958.65C506.37 942.716 496.091 915.244 488.434 896.938Q463.53 838.555 442.882 778.536Q436.105 759.058 430.508 739.21C428.639 732.821 426.398 726.294 425.095 719.765C423.946 714.007 426.474 707.879 427.338 702.194C430.222 683.22 429.144 659.694 420.823 642.132C424.484 659.392 426.709 675.6 425.425 693.354C424.846 701.347 422.586 709.831 423.093 717.801C423.809 729.055 429.911 747.583 433.278 758.981C434.98 764.74 448.342 800.685 447.748 802.917C431.968 766.18 402.963 739.07 376.305 710.34C370.81 704.418 365.745 698.192 360.484 692.071C369.909 708.762 384.285 722.055 397.145 736.058C411.088 751.239 424.526 767.635 435.275 785.269C451.387 811.7 456.379 841.218 448.926 871.5C444.66 888.83 434.379 907.815 418.678 917.225C399.945 928.45 364.492 928.978 342.881 926.24C332.175 924.883 321.555 922.246 311.112 919.567C333.176 932.169 371.859 932.262 396.772 928.305C402.226 927.439 407.499 924.721 413.007 924.397C416.759 924.177 420.765 924.753 424.507 925.064C438.805 926.255 454.097 927.929 467.055 934.549C473.929 938.061 479.524 944.474 481.754 951.94C482.846 955.597 482.922 959.566 480.956 962.944C478.158 967.751 472.832 969.189 467.831 970.511Q468.478 969.378 469.079 968.22C471.775 963.059 473.074 956.98 471.11 951.344C469.073 945.499 464.641 942.372 459.371 939.731C462.827 943.89 466.948 947.292 468.787 952.578C471.123 959.294 468.281 965.242 465.426 971.216C459.05 972.529 452.201 973.58 445.677 973.214C447.69 968.867 449.44 964.458 448.917 959.55C448.367 954.385 445.582 950.892 441.735 947.701Q443.049 950.565 444.299 953.458C447.545 961.06 446.419 966.186 443.433 973.539C418.231 971.461 393.215 965.269 368.527 959.963C345.791 955.076 319.826 950.061 298.045 942.721C292.571 940.876 283.483 938.033 280.93 932.344C279.357 928.839 280.853 925.559 282.227 922.301C287.529 925.6 292.676 928.833 298.598 930.93C293.286 926.739 287.468 923.168 282.085 919.051C272.53 911.743 265.056 902.644 258.232 892.828C248.139 878.307 241.21 862.089 235.579 845.399C203.672 750.838 250.937 657.157 311.117 585.774C322.022 572.839 333.861 560.15 345.723 548.079C361.856 531.662 379.188 515.265 391.69 495.771C405.83 473.722 412.694 450.019 417.273 424.492C423.404 426.801 451.404 433.527 453.475 435.574L452.951 437.059L453.244 437.481C453.894 436.932 454.938 435.753 455.76 435.79C463.283 436.125 471.372 438.726 478.849 439.974C491.181 442.031 503.477 442.724 515.956 442.922C514.659 445.654 513.652 448.332 512.755 451.219L517.923 443.056C522.688 442.736 527.381 442.223 532.113 441.602C527.763 441.174 523.602 441.283 519.239 441.484C523.547 434.348 528.773 427.527 533.766 420.859C553.528 394.469 575.722 371.475 602.181 351.827C569.893 366.782 534.498 411.492 516.574 441.517C496.413 440.516 477.062 437.393 457.386 432.964C464.19 425.837 471.737 419.528 479.213 413.128C504.285 391.666 531.304 371.791 559.97 355.383C572.405 348.265 585.231 342.382 597.833 335.681C588.184 337.857 578.548 342.982 569.745 347.437C527.9 368.618 486.942 397.678 455.466 432.6C434.845 427.113 415.007 418.697 394.307 413.659C398.218 408.336 403.639 404.931 406.931 399.117C396.889 404.668 388.54 408.032 376.999 408.705C380.006 400.839 383.926 393.315 387.191 385.555C388.505 382.432 389.428 377.829 391.319 375.134C391.738 374.537 391.868 374.303 392.016 373.59L391.259 372.999C385.578 374.398 373.015 390.218 368.871 395.202Z"/>
	<path fill="#F8EED8" d="M604.89 634.105C603.891 630.387 606.833 616.223 607.971 612.307C608.063 619.598 608.06 627.127 606.556 634.29L604.89 634.105Z"/>
	<path fill="#F8EED8" d="M695.523 321.865C695.601 323.215 695.711 324.569 695.69 325.922L696.199 325.139L696.807 325.014Q696.418 327.231 695.874 329.416Q695.33 331.6 694.634 333.741Q693.938 335.882 693.093 337.969Q692.248 340.056 691.259 342.078Q690.27 344.1 689.141 346.048Q688.012 347.996 686.749 349.859Q685.486 351.723 684.095 353.493Q682.705 355.264 681.193 356.932C680.412 356.48 680.091 356.08 679.519 355.399C688.291 344.036 692.575 335.84 695.523 321.865Z"/>
	<path fill="#F8EED8" d="M601.344 426.679C614.811 406.994 640.845 389.746 659.273 374.419C666.519 368.392 672.724 361.85 679.519 355.399C680.091 356.08 680.412 356.48 681.193 356.932C657.933 384.033 622.629 399.112 602.033 428.475L601.344 426.679Z"/>
	<path fill="#FAF9F6" d="M405.672 115.027C416.433 134.691 427.785 153.883 439.166 173.188C447.082 186.615 454.885 200.676 463.841 213.41L462.713 214.097C461.353 214.127 461.124 214.173 460.1 213.127C456.53 209.483 453.56 203.184 450.845 198.792C442.816 185.803 435.347 172.574 427.753 159.332C421.211 147.925 414.42 136.541 408.836 124.624C407.484 121.739 405.594 118.264 405.672 115.027Z"/>
	<path d="M593.238 325.698C595.196 325.408 597.331 325.685 599.306 325.785C554.504 331.763 475.863 361.006 438.391 386.593C436.859 387.673 435.129 388.512 433.483 389.406C465.808 359.39 549.715 330.362 593.238 325.698Z"/>
	<path d="M681.251 259.132C684.197 259.874 686.797 260.761 688.466 263.479C687.752 266.938 687.484 270.506 686.756 273.981C685.812 278.481 684.537 282.917 683.682 287.436C681.831 297.214 681.661 305.642 676.519 314.523C669.332 326.934 656.029 335.677 642.327 339.249C650.47 334.862 658.449 330.274 665.224 323.898C676.235 313.533 679.538 302.977 680.046 288.242C678.24 286.535 676.421 285.327 674.302 284.073C668.583 283.82 659.465 285.788 654.331 283.404C653.434 282.988 652.544 282.199 652.249 281.244C651.523 278.895 653.084 276.311 654.305 274.386C657.492 269.362 664.029 263.465 669.681 261.57C673.476 260.297 677.363 259.953 681.251 259.132Z"/>
	<path fill="#463238" d="M677.212 261.09C678.125 261.025 679.113 260.938 680.024 261.003C681.373 261.1 682.476 261.698 683.217 262.856C686.413 267.849 682.25 279.962 680.922 285.433Q680.179 284.452 679.303 283.587C675.94 280.275 670.851 280.97 666.529 281.06C663.839 281.237 659.66 281.948 657.077 281.172C655.709 280.762 655.562 280.313 654.864 279.172C654.812 277.626 655.217 276.709 656.076 275.46C660.982 268.332 668.677 262.701 677.212 261.09Z"/>
	<path d="M407.855 136.102C408.302 136.433 408.693 136.89 409.086 137.284C409.373 138.788 409.463 140.511 409.929 141.951C410.788 144.601 419.22 157.38 421.255 160.917C432.683 180.774 443.903 200.319 452.235 221.73C453.581 225.19 455.626 229.262 455.618 233.002C453.593 233.826 451.505 234.555 449.948 236.15C439.411 246.944 431.704 260.108 425.775 273.877C423.606 279.394 421.778 284.635 420.849 290.51C420.348 293.675 420.314 296.712 419.51 299.847C418.858 297.1 418.686 294.307 417.928 291.569C414.448 278.997 409.497 267.046 406.625 254.228C399.191 221.051 400.811 185.381 405.611 151.957C406.365 146.708 406.602 141.251 407.855 136.102Z"/>
	<path fill="#D1C6BE" d="M408.671 144.374C412.717 150.036 415.786 157.45 419.212 163.612C431.496 185.706 444.471 208.117 453.792 231.647C448.274 235.743 444.02 240.317 439.495 245.432C442.844 238.019 446.216 230.589 448.598 222.797C439.156 232.583 437.274 246.025 430.684 257.332C433.681 244.674 434.993 231.708 438.126 219.004C432.913 228.03 430.876 237.871 428.841 247.962C427.626 255.076 427.277 262.204 424.266 268.85C422.558 256.983 422.176 245.151 422.023 233.179C421.962 228.422 423.13 222.363 422.136 217.863C421.947 217.01 422.086 216.98 421.328 216.505C417.601 224.745 417.662 244.512 418.514 253.52C419.574 264.712 422.094 273.139 418.977 284.398C407.165 254.291 404.985 223.555 405.428 191.612C405.646 175.935 406.504 159.903 408.671 144.374Z"/>
	<path d="M527.144 232.634C530.684 232.292 534.265 232.758 537.739 233.434C563.509 238.452 591.501 270.623 605.458 291.674C594.044 301.548 578.585 309.148 564.73 315.011C557.897 317.735 550.807 320.149 543.621 321.742C532.934 324.111 521.618 323.962 512.176 317.792C502.804 311.667 496.804 300.82 494.663 290.016Q494.402 288.692 494.207 287.357Q494.012 286.022 493.883 284.679Q493.755 283.335 493.693 281.987Q493.63 280.639 493.635 279.29Q493.64 277.941 493.711 276.593Q493.783 275.246 493.921 273.904Q494.059 272.561 494.263 271.228Q494.467 269.894 494.737 268.572Q495.007 267.25 495.342 265.942Q495.677 264.635 496.076 263.346Q496.476 262.058 496.938 260.79Q497.401 259.522 497.926 258.279Q498.45 257.036 499.036 255.82Q499.621 254.605 500.266 253.42Q500.911 252.234 501.614 251.083Q502.317 249.931 503.076 248.815C508.981 240.185 516.781 234.518 527.144 232.634Z"/>
	<path fill="#5C4F4E" d="M528.473 241.357C529.459 241.434 530.393 241.551 531.342 241.846C534.833 242.933 538.209 246.199 540.763 248.739C552.659 260.57 559.709 273.936 567.166 288.679C565.154 287.499 563.274 285.256 561.64 283.569C549.105 270.635 540.475 253.071 528.473 241.357Z"/>
	<path fill="#FEE9A9" d="M525.875 235.623C528.721 235.409 531.676 235.323 534.508 235.729C561.887 239.653 586.54 270.532 602.059 291.475C589.333 301.265 571.735 310.121 556.659 315.342C544.215 319.651 529.396 323.516 516.893 317.292C506.577 312.157 501.695 302.246 498.219 291.806C495.529 279.963 496.271 268.57 501.437 257.495C506.12 247.454 513.359 240.084 523.847 236.313C524.106 237.571 524.358 238.998 525 240.121C527.1 243.797 530.577 247.407 533.109 250.855C542.123 263.133 550.659 276.078 561.303 287.042C563.13 288.923 567.486 293.876 570.186 293.908L570.688 293.314C570.511 287.542 562.36 273.082 559.288 267.84C553.292 257.612 542.972 243.225 530.781 240.152L527.343 239.275C526.181 238.064 526.215 237.241 525.875 235.623Z"/>
	<path fill="#D1C6BE" d="M0 0L628.749 0C620.649 8.38972 613.362 17.8312 605.909 26.8065L559.286 83.7535C552.828 91.5666 546.394 99.4328 539.761 107.097C534.371 113.325 528.574 118.706 524.324 125.851C520.799 115.213 515.729 94.7952 510.51 86.1047C493.149 105.959 468.249 176.124 466.798 202.816L461.472 204.542Q440.038 169.452 419.267 133.964C414.433 125.562 409.972 116.971 405.23 108.522C397.704 122.408 392.764 138.357 388.357 153.479C377.362 191.211 371.109 228.972 370.681 268.305C370.553 280.012 371.179 291.634 371.534 303.323C365.7 308.263 360.699 315.183 355.75 321.026C344.013 334.883 332.633 349.065 320.99 363.007L84.177 650.857C83.2141 652.032 82.2728 653.03 80.8751 653.675C90.8784 618.885 110.891 588.435 137.382 563.959C147.411 554.693 159.035 546.091 167.039 534.92C170.77 529.713 174.596 522.086 170.996 515.892C168.764 512.05 164.437 509.896 160.263 508.871C144.812 505.078 125.731 510.367 112.565 518.647C71.7473 544.319 43.2459 605.181 33.1148 650.977Q31.1409 660.09 29.3789 669.246C19.5727 666.143 9.68781 663.186 0 659.731L0 0Z"/>
</svg>
