<?xml version="1.0" encoding="utf-8" ?>
<svg xmlns="http://www.w3.org/2000/svg" xmlns:xlink="http://www.w3.org/1999/xlink" width="1024" height="1024">
	<path fill="#FDFCF4" d="M0 0L1024 0L1024 1024L0 1024L0 0Z"/>
	<path fill="#DAD9D3" d="M801.702 888.499C815.898 891.048 830.35 892.235 844.664 893.955C879.134 898.096 925.951 904.677 958.002 918.124C963.94 920.615 971.616 923.716 975.57 929.072C977.133 931.189 978.07 933.674 977.628 936.324C976.831 941.11 972.117 945.234 968.233 947.804C960.012 953.242 949.921 956.18 940.544 958.994C901.518 970.705 860.673 975.915 820.239 980.048Q791.376 982.988 762.456 985.3Q733.536 987.613 704.572 989.299Q675.608 990.984 646.615 992.041Q617.622 993.097 588.612 993.525Q559.603 993.953 530.591 993.752Q501.579 993.55 472.579 992.72Q443.578 991.889 414.602 990.43Q385.626 988.97 356.689 986.883C308.203 983.297 255.402 979.341 208.027 969.317C190.584 965.627 146.443 956.713 137.404 941.877C135.936 939.468 135.568 936.89 136.394 934.186C138.386 927.665 146.06 923.417 151.813 920.589Q160.765 916.12 170.306 913.108C174.553 911.799 188.992 909.395 191.615 907.592C200.104 909.046 208.45 912.345 216.959 914.031C250.933 920.764 287.971 923.036 322.261 917.338C328.807 934.417 339.61 946.695 353.917 957.814C349.38 949.6 344.476 941.067 341.725 932.074C350.271 944.836 360.418 957.178 375.071 963.05L370.954 958.855C402.598 968.036 434.17 973.454 467.014 975.969C497.045 978.269 582.482 978.54 605.315 958.151C610.004 953.965 610.194 950.318 610.511 944.399C631.085 946.592 650.852 946.094 671.402 944.107C675.59 948.007 678.932 952.724 682.934 956.8C690.003 964.001 701.549 964.454 711.069 964.551C727.673 964.721 764.002 960.755 776.004 949.052C786.812 948.087 808.926 945.424 816.473 936.656C818.927 933.805 819.152 929.861 818.927 926.264C818.08 912.723 812.043 897.544 801.702 888.499Z"/>
	<path fill="#4A455A" d="M517.229 145.231C519.23 139.773 520.73 134.052 522.446 128.489C527.006 113.701 531.321 98.8843 534.356 83.6919C536.046 75.2359 537.88 66.4044 538.819 57.8417C539.547 51.213 539.619 44.2747 540.774 37.7219C540.995 36.4724 541.283 34.9183 542 33.8378C542.724 32.7467 544.156 32.3255 545.394 32.2866C561.608 31.778 613.777 73.49 626.234 85.4979C636.612 81.2346 647.281 79.2648 658.143 76.7804C646.768 86.872 632.214 93.289 620.715 103.23C628.132 101.652 662.987 93.618 667.697 96.1661C665.376 99.4159 654.817 101.619 651.114 102.699C667.771 104.605 683.62 104.108 699.719 110.115C718.327 117.058 738.5 133.202 753.132 146.46C769.589 161.372 784.014 178.087 802.909 190.17C805.452 191.796 808.482 193.94 811.388 194.823C813.265 195.393 816.037 193.704 818.328 193.881C828.364 194.657 834.496 201.465 840.723 208.454C847.146 201.423 854.611 195.664 862.027 189.739C884.029 172.163 906.614 156.629 931.148 142.764C939.716 137.922 948.697 132.749 957.907 129.271C956.332 131.451 923.227 150.443 917.908 153.9C901.774 164.39 886.086 176.25 870.886 188.048C861.381 195.427 851.775 202.739 842.731 210.68C845.041 215.053 847.556 219.962 850.587 223.847C860.528 215.75 873.531 209.881 885.2 204.679C919.703 189.296 957.156 176.305 994.883 172.2L994.276 172.415C982.762 176.373 970.412 177.976 958.749 181.548C922.277 192.715 885.636 207.346 851.99 225.329C851.439 226.522 851.638 226.532 852.083 227.703C853.152 230.519 855.9 237.752 858.526 239.244L860.22 238.876C862.57 236.605 867.267 235.206 870.321 234.059C892.776 225.628 921.111 220.185 945.068 220.537Q947.157 220.565 949.233 220.802C919.522 225.265 889.762 230.539 861.057 239.642C859.813 240.147 859.197 240.152 858.447 241.33C860.106 250.098 862.694 258.589 863.394 267.549C866.203 303.536 848.63 337.672 828.977 366.531C822.321 376.306 814.765 385.875 806.795 394.61C788.619 414.531 772.523 428.439 765.738 455.971C761.935 471.404 762.485 488.257 765.36 503.826C769.572 526.633 781.586 545.893 797.138 562.765C800.718 566.649 804.333 570.948 808.664 574.011Q809.095 574.313 809.539 574.596L809.577 575.328C805.658 576.669 798.806 573.455 794.702 572.768C798.848 577.076 802.018 582.293 804.926 587.488C813.715 603.19 817.617 618.084 818.657 635.965C817.391 633.252 816.159 630.6 814.533 628.079C811.225 623.189 807.972 618.275 804.269 613.671C811.548 641.694 808.145 663.65 799.131 690.56C798.641 683.771 798.032 677.144 796.939 670.421C794.694 679.23 793.576 688.406 791.591 697.309C780.535 746.894 770.398 797.185 773.08 848.29C773.801 862.031 775.222 875.838 779.465 888.992C785.249 886.184 791.344 884.141 797.72 886.546C799.085 887.061 800.441 887.764 801.702 888.499C812.043 897.544 818.08 912.723 818.927 926.264C819.152 929.861 818.927 933.805 816.473 936.656C808.926 945.424 786.812 948.087 776.004 949.052C764.002 960.755 727.673 964.721 711.069 964.551C701.549 964.454 690.003 964.001 682.934 956.8C678.932 952.724 675.59 948.007 671.402 944.107C650.852 946.094 631.085 946.592 610.511 944.399C610.194 950.318 610.004 953.965 605.315 958.151C582.482 978.54 497.045 978.269 467.014 975.969C434.17 973.454 402.598 968.036 370.954 958.855L375.071 963.05C360.418 957.178 350.271 944.836 341.725 932.074C344.476 941.067 349.38 949.6 353.917 957.814C339.61 946.695 328.807 934.417 322.261 917.338C287.971 923.036 250.933 920.764 216.959 914.031C208.45 912.345 200.104 909.046 191.615 907.592Q183.963 905.336 176.379 902.858C128.431 886.927 81.0594 856.836 58.0539 810.375C38.1083 770.094 34.8661 713.675 44.0084 670.069C46.3282 659.004 50.139 648.222 53.7515 637.529C50.6671 654.632 51.4338 674.528 53.4534 691.716C55.1568 673.951 57.7177 657.296 64.3381 640.585Q65.8565 636.724 67.5405 632.932Q69.2244 629.14 71.0707 625.424Q72.917 621.708 74.9222 618.076Q76.9274 614.444 79.0877 610.901Q81.248 607.359 83.5595 603.913Q85.871 600.468 88.3292 597.125Q90.7875 593.783 93.3879 590.55Q95.9884 587.317 98.7262 584.199C104.196 577.944 110.166 572.163 115.72 565.991C122.324 558.653 128.493 550.971 135.355 543.856C151.015 527.618 170.871 513.407 191.621 504.519C211.896 495.835 239.393 488.539 260.658 497.059C254.337 498.254 247.36 498.103 241.345 500.472C249.514 501.348 258.053 503.49 263.841 509.754C268.386 514.673 270.508 521.398 270.318 528.029C269.565 554.355 240.614 576.137 222.338 591.971C211.051 601.75 199.537 611.322 188.645 621.54C155.248 652.867 122.405 693.388 121.051 741.375C120.359 765.875 128.532 789.005 145.506 806.875C155.19 817.07 166.042 824.509 178.107 831.541C219.949 855.926 264.308 862.992 312.016 864.368C310.76 821.653 315.65 783.381 331.146 743.389C350.436 693.609 382.394 657.451 425.307 626.058C439.388 615.757 454.18 606.368 468.113 595.895C475.425 590.399 482.304 584.371 489.157 578.32C503.695 565.483 518.547 550.202 528.441 533.402C536.769 519.26 541.298 504.71 545.268 488.92C517.303 488.768 480.435 485.743 453.659 477.612C445.498 475.134 438.074 471.367 430.129 468.416C425.172 466.574 419.961 466.061 415.124 463.801C418.695 462.229 421.914 459.963 424.941 457.529C420.506 458.49 416.07 458.882 411.544 459.084C423.547 444.032 431.281 425.225 437.462 407.104C415.044 386.205 398.245 358.813 384.826 331.447C364.049 289.076 348.05 239.464 346.334 192.04C346.084 185.13 345.263 175.645 347.649 169.163C348.385 167.164 349.649 166.284 351.501 165.435C357.365 162.748 365.043 162.912 371.352 162.975C398.012 163.244 425.189 170.286 450.117 179.321C456.085 181.485 461.81 184.252 467.76 186.475C471.915 183.752 475.646 180.063 479.372 176.79L498.529 159.998C504.561 154.808 511.278 150.483 517.229 145.231Z"/>
	<path fill="#FDFCF4" d="M767.713 713.997L769.961 715.885C770.91 715.774 770.864 715.873 771.686 715.231L772.277 715.202C770.071 720.185 766.337 725.826 762.404 729.613Q765.205 721.855 767.713 713.997Z"/>
	<path fill="#FDFCF4" d="M456.19 229.775L459.153 227.827C460.716 236.156 463.333 244.45 464.633 252.762C460.778 249.199 462.298 237.09 458.556 233.163C458.44 238.706 462.061 250.781 460.69 255.148C459.024 246.691 458.572 238.108 456.19 229.775Z"/>
	<path fill="#FDFCF4" d="M635.846 87.7624C628.579 92.8145 620.932 96.926 614.104 102.651C606.64 103.083 588.736 114.175 584.568 113.983C584.167 113.965 583.862 113.602 583.508 113.411C599.727 103.072 617.83 94.3724 635.846 87.7624Z"/>
	<path fill="#FDFCF4" d="M766.267 535.025C772.134 545.162 778.597 553.311 787.277 561.213C790.379 564.036 794.255 566.608 796.959 569.767C795.59 570.021 794.153 569.347 792.856 568.938C786.196 565.71 779.933 561.766 773.697 557.797C770.808 554.112 768.815 547.718 767.362 543.281C766.595 540.938 765.106 537.326 766.267 535.025Z"/>
	<path fill="#FDFCF4" d="M779.703 564.09C793.276 574.393 810.28 603.812 813.252 620.401C811.147 618.339 809.447 615.322 807.699 612.912C805.336 609.653 802.81 606.7 800.043 603.776C800.273 602.727 800.58 601.511 800.408 600.438C798.924 591.182 779.82 570.542 779.703 564.09Z"/>
	<path fill="#DAD9D3" d="M578.845 904.864C583.425 905.242 587.172 908.737 590.196 911.956C598.564 920.866 604.373 935.099 603.941 947.379C603.85 949.976 603.539 950.979 601.604 952.763L596.82 955.856C597.239 953.328 597.528 950.85 597.595 948.284C598.048 930.7 590.715 917.299 578.845 904.864Z"/>
	<path fill="#FDFCF4" d="M543.466 42.4033C545.908 44.9783 545.248 51.0053 545.16 54.4948C544.673 73.7891 541.731 87.1769 537.412 105.61C536.176 110.885 535.297 116.245 533.778 121.452C532.032 127.44 524.464 134.801 524.737 140.352C522.389 141.782 520.209 143.464 517.997 145.094C522.081 139.195 525.811 133.221 528.617 126.597C538.907 102.302 540.498 68.3971 543.466 42.4033Z"/>
	<path fill="#DAD9D3" d="M605.158 83.1211C608.461 84.2346 612.922 87.827 614.956 90.6197C601.606 96.8874 589.373 104.682 577.242 113.014C585.281 100.814 593.043 91.5243 605.158 83.1211Z"/>
	<path fill="#FDFCF4" d="M743.983 150.015C757.953 158.43 768.93 169.964 778.383 183.118C781.07 186.856 783.484 190.843 786.244 194.515C787.131 196.822 788.872 200.125 789.098 202.516C789.226 203.871 788.947 204.066 788.115 205.006C786.009 205.901 783.644 205.556 781.399 205.479C778.958 196.863 774.128 188.771 769.664 181.052C768.627 179.222 767.546 177.56 766.248 175.904C764.75 173.375 763.242 171.098 761.354 168.841C755.853 162.234 750.114 156.04 743.983 150.015Z"/>
	<path fill="#FDFCF4" d="M609.78 109.686C614.538 107.568 620.824 107.503 625.988 107.113C651.412 105.197 675.564 107.535 699.518 116.694C713.282 121.957 725.108 129.15 737.289 137.363C739.247 138.683 743.241 140.801 744.485 142.803C744.603 142.992 744.648 143.217 744.729 143.424C742.628 142.596 741.091 141.014 739.141 139.92C735.142 137.674 730.594 136.377 726.17 135.27C726.109 135.221 726.033 135.185 725.987 135.122C722.778 130.718 714.949 127.722 710.063 125.252C692.595 116.421 673.071 110.065 653.452 108.955C644.608 108.454 635.584 108.856 626.755 109.503C622.009 109.851 616.966 110.61 612.218 110.459C611.222 110.428 610.625 110.175 609.78 109.686Z"/>
	<path fill="#FDFCF4" d="M543.235 41.1575C543.381 39.5762 543.329 38.0796 544.364 36.789C548.926 35.6703 558.818 42.2153 562.651 44.5375C583.167 56.9667 602.313 73.0945 620.729 88.4283L614.956 90.6197C612.922 87.827 608.461 84.2346 605.158 83.1211L603.233 81.5956C603.058 81.1682 602.805 80.7612 602.522 80.3954C595.715 71.6083 553.911 42.1728 543.235 41.1575Z"/>
	<path fill="#DAD9D3" d="M781.026 891.195C786.695 890.102 792.494 889.293 797.653 892.65C806.035 898.104 810.646 910.74 812.297 920.132C812.926 923.712 813.91 929.365 811.802 932.534C810.578 934.373 807.557 935.941 805.566 936.757C806.132 933.679 806.111 930.283 805.845 927.168C804.531 911.834 795.713 903.921 784.609 894.572L781.026 891.195Z"/>
	<path fill="#FDFCF4" d="M354.255 205.539C351.5 197.96 348.521 180.466 350.053 172.782C350.283 171.631 350.538 170.64 351.659 170.084C354.765 168.541 362.435 169.542 366.065 169.706C408.394 171.609 449.353 186.434 488.224 202.18C487.034 203.011 486.914 203.238 485.411 202.96C483.308 202.57 481.27 201.503 479.232 200.849C472.719 198.758 466.322 196.613 459.863 194.334C450.044 190.87 439.96 187.869 429.975 184.914C411.491 179.444 392.052 175.249 372.846 173.446C366.567 172.856 360.355 173.679 354.059 172.997C354.003 177.458 353.897 181.938 354.037 186.398C354.216 192.117 355.827 200.075 354.255 205.539Z"/>
	<path fill="#DAD9D3" d="M732.182 911.117C735.843 910.868 739.632 910.653 743.289 911.014C751.156 911.79 757.149 915.014 762.146 921.137C766.835 926.882 770.96 936.141 769.985 943.68C769.688 945.975 768.967 947.142 767.192 948.571C763.837 949.993 760.449 951.067 756.958 952.103Q757.07 950.251 757.028 948.397Q756.986 946.542 756.789 944.697Q756.592 942.852 756.242 941.03Q755.893 939.208 755.392 937.422C751.749 924.125 743.698 917.768 732.182 911.117Z"/>
	<path fill="#FDFCF4" d="M475.602 191.533C487.844 177.262 507.045 161.817 522.631 150.908C528.677 146.676 535.58 143.315 541.218 138.564C544.565 135.743 546.689 130.804 549.46 127.367C558.382 116.297 570.513 104.305 583.047 97.367C579.834 101.1 576.561 104.763 573.847 108.886C561.022 115.863 549.046 135.111 538.1 145.581C528.326 154.932 516.554 162.553 506.211 171.356C501.31 175.528 496.298 179.694 491.704 184.207C488.207 187.642 485.001 191.638 481.259 194.777L475.602 191.533Z"/>
	<path fill="#FDFCF4" d="M112.19 590.841C114.027 587.556 116.119 584.44 118.221 581.32C146.401 539.508 182.541 510.796 232.853 501.022C228.659 503.14 224.562 505.462 220.443 507.721C230.995 506.876 241.708 506.044 251.215 511.725C256.071 514.627 258.808 518.596 260.249 523.997C260.056 523.948 259.857 523.917 259.669 523.851C255.645 522.426 251.642 517.861 247.219 515.936C232.943 509.724 210.591 515.453 196.892 521.001C168.573 532.47 149.071 550.178 128.923 572.542Q124.062 577.892 119.426 583.437C117.704 585.509 115.776 588.588 113.767 590.277C113.246 590.714 112.83 590.796 112.19 590.841Z"/>
	<path fill="#74CCED" d="M746.751 183.09C744.381 179.659 740.954 176.421 738.218 173.227C733.772 168.036 718.334 149.456 717.217 144.136L718.243 143.368C723.865 142.277 731.901 146.8 736.696 149.499C743.306 152.608 749.498 157.918 754.8 162.899C756.501 164.497 759.145 168.314 761.354 168.841C763.242 171.098 764.75 173.375 766.248 175.904C767.546 177.56 768.627 179.222 769.664 181.052C774.128 188.771 778.958 196.863 781.399 205.479C783.644 205.556 786.009 205.901 788.115 205.006C788.947 204.066 789.226 203.871 789.098 202.516C788.872 200.125 787.131 196.822 786.244 194.515C787.15 193.846 787.318 193.198 787.814 192.192L789.083 195.548C789.951 197.962 791.076 200.564 791.387 203.117C791.559 204.527 791.317 205.81 790.273 206.846C788.865 208.243 786.596 208.313 784.746 208.24C773.214 207.788 759.599 200.101 751.838 191.891L752.557 191.423C755.411 193.875 763.57 200.72 766.888 201.37L766.919 201.111C764.293 199.772 761.1 197.367 758.734 195.503C755.72 193.129 747.207 186.84 746.751 183.09Z"/>
	<path fill="#353246" d="M779.454 205.346C777.833 197.82 770.033 185.351 769.664 181.052C774.128 188.771 778.958 196.863 781.399 205.479C783.644 205.556 786.009 205.901 788.115 205.006C788.947 204.066 789.226 203.871 789.098 202.516C788.872 200.125 787.131 196.822 786.244 194.515C787.15 193.846 787.318 193.198 787.814 192.192L789.083 195.548C789.951 197.962 791.076 200.564 791.387 203.117C791.559 204.527 791.317 205.81 790.273 206.846C788.865 208.243 786.596 208.313 784.746 208.24C773.214 207.788 759.599 200.101 751.838 191.891L752.557 191.423C755.411 193.875 763.57 200.72 766.888 201.37L766.919 201.111C764.293 199.772 761.1 197.367 758.734 195.503C755.72 193.129 747.207 186.84 746.751 183.09C756.307 192.577 766.151 201.74 779.454 205.346Z"/>
	<path fill="#5392C2" d="M736.696 149.499C743.306 152.608 749.498 157.918 754.8 162.899C756.501 164.497 759.145 168.314 761.354 168.841C763.242 171.098 764.75 173.375 766.248 175.904C765.355 175.385 765.149 175.276 764.126 175.248C762.801 176.274 761.487 177.466 759.829 177.877C756.428 178.719 752.037 176.61 749.275 174.846C737.714 167.461 739.343 161.309 736.696 149.499Z"/>
	<path fill="#DAD9D3" d="M726.26 911.367C730.767 911.281 735.139 914.793 738.301 917.801C748.907 927.888 750.652 939.338 753.708 953.066C746.259 954.662 729.966 959.111 722.802 957.847L722.249 957.063C722.217 956.639 722.191 956.215 722.137 955.793C720.078 939.678 710.352 929.091 698.005 919.62C707.321 915.431 716.257 913.186 726.26 911.367Z"/>
	<path fill="#DAD9D3" d="M632.35 893.847C636.951 898.291 640.753 904.623 644.781 909.693C652.486 919.391 660.666 928.759 667.967 938.767C658.846 939.397 649.77 939.808 640.625 939.639C630.398 939.428 620.302 938.931 610.128 937.84C608.787 931.216 606.724 925.494 604.016 919.337C614.96 912.368 623.821 903.515 632.35 893.847Z"/>
	<path fill="#DAD9D3" d="M561.365 902.188C565.151 901.943 568.601 902.14 572.046 903.872C580.507 908.125 586.308 919.123 589.222 927.747C591.85 935.528 595.174 950.358 591.352 957.984C587.089 961.542 575.686 963.667 569.957 964.954C568.447 965.293 566.036 966.15 564.723 965.319C566.19 954.504 563.882 942.469 558.479 932.985C552.266 922.079 542.764 916.803 530.997 913.586C540.703 909.108 550.624 903.449 561.365 902.188Z"/>
	<path fill="#DAD9D3" d="M595.651 839.382C597.459 841.107 606.645 857.356 608.838 860.725C615.165 870.443 621.987 879.713 628.911 889.007C621.508 897.137 610.468 909.119 600.71 914.069L595.25 908.912C592.855 906.509 590.495 904.032 587.585 902.244C579.023 896.983 566.362 895.818 556.753 898.033C563.295 893.663 569.687 889.24 575.354 883.74C588.227 871.247 595.375 857.435 595.651 839.382Z"/>
	<path fill="#DAD9D3" d="M543.235 41.1575C553.911 42.1728 595.715 71.6083 602.522 80.3954C602.805 80.7612 603.058 81.1682 603.233 81.5956C585.571 89.877 575.206 93.7166 560.15 107.665Q553.055 114.298 546.647 121.596C543.425 125.29 540.291 129.583 536.574 132.777C532.999 135.85 528.823 138.045 524.737 140.352C524.464 134.801 532.032 127.44 533.778 121.452C535.297 116.245 536.176 110.885 537.412 105.61C541.731 87.1769 544.673 73.7891 545.16 54.4948C545.248 51.0053 545.908 44.9783 543.466 42.4033L543.235 41.1575Z"/>
	<path fill="#DAD9D3" d="M353.495 216.894C355.789 219.619 363.118 243.35 365.512 249.058C380.622 285.09 402.782 321.444 431.182 348.55C436.127 353.269 441.232 358.055 447.057 361.661C445.499 373.399 442.794 384.98 440.332 396.554C439.729 399.199 438.951 401.833 438.259 404.458C432.49 398.899 427.936 391.054 423.389 384.431C395.683 344.075 371.32 292.395 359.227 245.057C356.884 235.885 354.379 226.333 353.495 216.894Z"/>
	<path fill="#F3D2C3" d="M369.904 182.803C382.111 185.66 394.399 188.548 406.333 192.416C418.812 196.461 430.777 201.47 442.895 206.462C452.202 210.296 461.568 213.928 470.521 218.55C468.261 223.992 465.765 229.103 463.96 234.741C462.799 232.053 461.714 229.351 460.173 226.853L459.489 226.757L459.153 227.827L456.19 229.775L455.394 227.744L454.781 227.526C451.467 233.79 453.473 251.189 454.454 258.358C452.503 255.909 450.443 253.725 448.2 251.54L441.005 242.432C442.433 250.938 444.37 259.687 446.517 268.04C448.967 277.575 451.965 284.605 451.966 294.731C447.945 282.969 440.793 271.795 432.279 262.778C436.469 274.607 443.367 291.97 451.601 301.424L451.517 310.386C426.376 289.26 398.003 245.463 383.89 216.01C378.721 205.223 374.459 193.867 369.904 182.803Z"/>
	<path fill="#DAD9D3" d="M715.337 782.239C728.949 772.773 738.358 763.906 750.056 752.428C756.376 746.226 762.682 740.222 768.042 733.126C772.73 726.92 776.475 720.177 780.228 713.388C767.985 755.996 756.129 850.7 775.285 891.64C771.326 894.051 767.831 897.221 764.278 900.184C769.909 897.592 774.874 893.96 780.732 891.747L783.83 895.59C792.852 904.298 799.329 912.196 801.667 924.854C802.239 927.949 802.264 931.17 802.873 934.216C802.792 935.552 802.645 936.698 802.324 937.997C797.151 942.165 783.675 943.675 777.025 944.726C776.09 935.641 774.37 927.318 768.805 919.852C761.585 910.164 753.233 906.968 741.601 905.328C737.832 895.534 733.743 885.919 730.436 875.949Q728.598 870.283 726.979 864.551Q725.36 858.818 723.962 853.028Q722.565 847.237 721.392 841.397Q720.219 835.557 719.271 829.676Q718.324 823.796 717.603 817.883Q716.883 811.97 716.391 806.033Q715.898 800.097 715.635 794.146Q715.371 788.195 715.337 782.239Z"/>
	<path fill="#DAD9D3" d="M112.19 590.841C112.83 590.796 113.246 590.714 113.767 590.277C115.776 588.588 117.704 585.509 119.426 583.437Q124.062 577.892 128.923 572.542C149.071 550.178 168.573 532.47 196.892 521.001C210.591 515.453 232.943 509.724 247.219 515.936C251.642 517.861 255.645 522.426 259.669 523.851C259.857 523.917 260.056 523.948 260.249 523.997C261.912 530.781 258.508 538.682 255.031 544.431C243.611 563.314 219.916 580.247 203.21 594.533C153.731 636.842 98.1801 695.214 115.321 766.685C122.397 796.19 142.898 818.79 168.216 834.263C209.657 859.59 264.077 873.421 312.565 871.74C314.066 884.677 315.713 896.994 319.868 909.433C299.514 911.121 279.285 911.933 258.865 910.637C204.917 907.214 146.817 890.108 105.017 854.67C68.4674 823.683 53.5204 784.254 49.7956 737.527C49.0426 728.082 48.8244 718.376 49.0089 708.904C55.1002 737.506 65.0875 768.035 86.0939 789.245C81.647 781.881 76.7785 774.499 73.4011 766.576C59.8079 734.687 60.904 694.409 69.0001 661.132C74.6637 637.853 86.6658 615.299 101.04 596.284C92.5935 615.052 86.7821 636.385 86.2111 657.108C91.0741 636.704 97.9964 615.396 108.283 597C109.219 595.326 110.673 592.018 112.19 590.841Z"/>
	<path fill="#DAD9D3" d="M583.508 113.411C583.862 113.602 584.167 113.965 584.568 113.983C588.736 114.175 606.64 103.083 614.104 102.651C612.055 105.098 609.818 107.483 608.28 110.291L608.55 110.634L609.78 109.686C610.625 110.175 611.222 110.428 612.218 110.459C616.966 110.61 622.009 109.851 626.755 109.503C635.584 108.856 644.608 108.454 653.452 108.955C673.071 110.065 692.595 116.421 710.063 125.252C714.949 127.722 722.778 130.718 725.987 135.122C726.033 135.185 726.109 135.221 726.17 135.27C721.12 135.333 715.144 135.745 711.34 139.53C710.652 140.216 710.152 140.97 709.758 141.852C719.311 157.057 737.719 181.018 751.838 191.891C759.599 200.101 773.214 207.788 784.746 208.24C786.596 208.313 788.865 208.243 790.273 206.846C791.317 205.81 791.559 204.527 791.387 203.117C791.076 200.564 789.951 197.962 789.083 195.548L787.814 192.192C787.102 189.825 785.611 187.486 784.473 185.287C788.243 187.01 791.914 189.667 795.455 191.837C799.977 193.948 804.522 195.932 809.27 197.494C813.928 199.027 818.995 200.129 823.423 202.239C836.752 208.588 848.517 230.201 853.282 243.512C863.655 272.487 856.113 303.855 843.251 330.647C827.161 364.16 801.288 391.87 774.17 416.79C767.112 423.276 759.553 429.256 752.617 435.86C761.24 431.56 768.885 426.007 777.064 420.989C760.092 440.941 753.015 468.198 755.038 494.025C756.298 510.107 760.191 520.41 766.267 535.025C765.106 537.326 766.595 540.938 767.362 543.281C768.815 547.718 770.808 554.112 773.697 557.797C774.469 560.443 778.114 561.874 779.703 564.09C779.82 570.542 798.924 591.182 800.408 600.438C800.58 601.511 800.273 602.727 800.043 603.776C797.082 600.892 792.269 595.189 788.591 593.744C789.977 596.89 793.501 598.595 795.031 601.978C803.607 620.947 803.771 646.402 800.666 666.819C796.545 651.977 793.849 635.543 786.259 621.994C788.062 628.516 789.986 635.005 790.79 641.744C793.616 665.426 786.425 690.668 774.819 711.27C774.043 712.647 773.359 714.042 772.277 715.202L771.686 715.231C770.864 715.873 770.91 715.774 769.961 715.885L767.713 713.997C770.107 703.942 771.609 694.582 771.486 684.198C770.429 689.056 769.814 694.088 768.346 698.841C761.228 721.898 746.542 747.292 728.977 763.633C734.927 752.202 738.956 742.114 741.433 729.382C733.607 748.794 728.282 757.317 715.395 773.655C714.891 763.748 715.439 753.814 715.36 743.899Q715.37 720.236 712.421 696.757C705.19 636.787 672.429 557.347 626.669 516.314C623.179 513.185 619.231 509.464 615.067 507.259C653.433 544.977 684.223 605.356 696.18 657.568C702.452 684.959 704.865 712.561 705.122 740.609C705.65 798.22 705.386 855.987 739.019 905.839C734.719 906.222 728.805 906.222 724.871 907.877C711.462 909.771 699.442 916.102 688.906 924.344Q692.598 922.586 696.18 920.614C707.599 931.837 715.51 942.04 720.197 957.532C719.909 958.042 720.139 957.703 719.29 958.359C710.351 959.225 700.051 958.566 691.385 956.173C680.041 945.464 671.075 931.66 661.401 919.47C606.054 849.73 560.695 763.012 539.813 676.319C536.239 661.483 533.943 646.451 531.632 631.376C530.354 641.208 530.89 651.428 531.717 661.286C535.475 706.085 550.973 748.256 569.268 788.931C574.088 799.649 584.013 815.26 586.92 825.541C588.102 829.72 588.405 834.225 588.375 838.549C588.042 887.25 525.341 912.341 485.013 920.007Q475.538 921.817 465.923 922.582C463.609 922.752 451.847 922.742 450.765 923.287C450.399 923.471 450.179 923.858 449.886 924.144L451.235 923.265C450.64 923.316 450.268 923.295 449.743 923.601C452.241 924.296 455.25 924.303 457.841 924.493C474.224 925.69 490.412 923.567 506.407 920.084C512.817 918.689 519.321 916.454 525.828 915.669C531.742 914.956 540.607 919.476 545.186 923.071C558.51 933.531 559.8 951.218 561.552 966.738Q554.172 967.992 546.747 968.944C496.868 974.942 436.471 969.735 387.784 958.375C380.571 956.693 370.624 955.581 364.51 951.205C357.156 945.943 348.393 934.477 343.87 926.801C341.914 923.48 337.687 912.966 335.222 911.029C335.146 911.154 335.055 911.27 334.994 911.403C332.227 917.5 338.723 933.813 341.056 939.887C334.118 930.368 329.24 919.952 326.218 908.556C319.759 884.2 321.229 849.717 324.047 824.756C329.265 778.54 344.886 730.406 372.29 692.42Q376.509 686.627 381.078 681.105Q385.646 675.584 390.548 670.355Q395.449 665.126 400.664 660.211Q405.879 655.295 411.388 650.711C431.024 634.139 452.865 620.816 472.894 604.858Q492.795 589.192 510.538 571.118C534.939 546.064 549.021 524.237 553.074 488.564C562.675 488.387 572.524 486.835 582.009 485.432C613.21 480.819 643.79 473.685 672.684 460.838C676.891 458.967 681.625 457.249 685.506 454.798C679.808 455.538 673.329 458.584 667.723 460.294Q651.514 465.305 634.957 469.008C572.367 482.989 513.625 484.314 451.21 468.813C469.293 466.573 483.07 462.862 498.73 453.232C469.802 462.321 456.394 462.204 427.066 461.952C443.097 449.36 457.815 436.342 470.437 420.279C455.391 432.782 440.156 444.786 422.223 452.921C428.407 442.337 435.408 433.126 439.958 421.533C454.815 383.677 456.625 340.789 457.197 300.596C457.336 290.857 458.386 279.8 456.31 270.248C455.036 264.388 451.042 259.663 448.733 254.232L448.34 253.288C454.043 259.255 457.95 265.648 462.777 272.22C461.963 266.686 460.718 260.735 460.69 255.148C462.061 250.781 458.44 238.706 458.556 233.163C462.298 237.09 460.778 249.199 464.633 252.762C465.462 254.617 466.033 256.666 466.698 258.591C467.756 251.896 472.778 223.439 476.555 219.717L479.208 219.795L479.215 219.157C473.909 214.995 466.131 212.218 460.002 209.4C435.417 198.098 407.347 184.983 380.627 180.332C376.917 179.686 370.162 178.133 366.912 180.437C366.555 181.312 366.501 181.997 366.606 182.922C367.583 191.496 373.159 202.558 376.725 210.505C393.949 248.891 417.135 289.8 450.905 316.06C449.891 330.493 449.223 344.847 447.427 359.227C411.387 324.042 383.74 280.169 364.676 233.706C360.881 224.458 357.103 215.131 354.255 205.539C355.827 200.075 354.216 192.117 354.037 186.398C353.897 181.938 354.003 177.458 354.059 172.997C360.355 173.679 366.567 172.856 372.846 173.446C392.052 175.249 411.491 179.444 429.975 184.914C439.96 187.869 450.044 190.87 459.863 194.334C466.322 196.613 472.719 198.758 479.232 200.849C481.27 201.503 483.308 202.57 485.411 202.96C486.914 203.238 487.034 203.011 488.224 202.18C490.736 202.44 494.186 204.049 496.687 204.816C491.895 201.111 486.389 198.024 481.259 194.777C485.001 191.638 488.207 187.642 491.704 184.207C496.298 179.694 501.31 175.528 506.211 171.356C516.554 162.553 528.326 154.932 538.1 145.581C549.046 135.111 561.022 115.863 573.847 108.886C571.851 113.367 569.927 117.689 568.782 122.489C573.481 119.602 578.43 115.434 583.508 113.411Z"/>
	<path fill="#4A455A" d="M821.077 265.359C821.231 265.481 821.406 265.58 821.538 265.725C827.863 272.625 825.483 283.22 823.98 291.396C823.854 291.76 823.531 292.183 823.328 292.515C821.705 290.323 821.322 269.842 821.077 265.359Z"/>
	<path fill="#4A455A" d="M572.723 136.99C572.856 138.399 560.576 158.892 558.816 162.363C549.455 180.822 545.618 200.309 543.737 220.756C542.755 216.457 542.818 211.746 542.881 207.357C543.28 179.537 552.763 156.469 572.723 136.99Z"/>
	<path fill="#FDFCF4" d="M701.8 140.511C704.67 141.744 706.616 142.952 709.758 141.852C719.311 157.057 737.719 181.018 751.838 191.891C759.599 200.101 773.214 207.788 784.746 208.24C786.596 208.313 788.865 208.243 790.273 206.846C791.317 205.81 791.559 204.527 791.387 203.117C791.076 200.564 789.951 197.962 789.083 195.548L787.814 192.192C787.102 189.825 785.611 187.486 784.473 185.287C788.243 187.01 791.914 189.667 795.455 191.837C794.033 192.6 792.847 192.597 791.281 192.648C790.434 193.55 790.6 193.041 790.604 194.105C793.495 201.172 795.621 204.793 801.672 209.489C797.187 211.271 793.317 213.19 789.675 216.409C783.194 214.976 776.848 213.389 770.792 210.614C745.779 199.154 731.248 174.131 714.432 153.73C710.543 149.012 706.181 144.763 701.8 140.511Z"/>
	<path fill="#4A455A" d="M734.817 273.644L735.729 273.694C733.657 275.019 708.626 282.882 703.883 284.546C695.683 287.421 687.677 290.869 679.713 294.333Q669.867 298.717 660.187 303.454Q650.506 308.192 641.003 313.277Q631.5 318.362 622.188 323.787Q612.875 329.212 603.765 334.971Q594.655 340.73 585.76 346.815Q576.864 352.9 568.194 359.303Q559.525 365.706 551.093 372.418Q542.661 379.131 534.477 386.144L533.886 386.45C533.987 386.181 534.036 385.888 534.187 385.644C536.258 382.289 552.935 369.153 557.13 365.614C608.457 322.317 668.681 287.618 734.817 273.644Z"/>
	<path fill="#4A455A" d="M751.383 297.047L751.441 297.082L751.412 297.424L750.849 297.59L750.511 298.695C747.029 300.63 740.365 307.758 737.09 310.792C715.201 331.072 696.018 353.602 677.589 376.99Q663.833 394.216 651.171 412.263Q638.51 430.309 626.992 449.106L626.655 449.038C626.679 448.776 626.656 448.505 626.726 448.252C627.612 445.039 640.06 424.323 642.443 420.476C669.663 376.513 707.324 325.242 751.383 297.047Z"/>
	<path fill="#4A455A" d="M743.051 284.593L743.107 284.625C743.063 285.036 724.162 295.504 721.762 296.878C673.181 324.676 618.525 373.082 583.096 416.363C575.129 426.096 567.969 436.207 561.004 446.671L560.589 446.53L560.841 445.231L560.961 445.312C600.024 380.491 672.3 312.671 743.051 284.593Z"/>
	<path fill="#4A455A" d="M801.672 209.489C805.161 208.958 807.941 209.106 810.825 211.369C814.947 214.602 816.214 220.442 816.632 225.412C816.934 229.003 817.673 238.283 814.984 240.961C812.751 243.185 808.015 242.805 805.198 242.454C798.498 241.617 785.64 237.346 781.613 231.719C780.865 230.674 780.527 229.593 780.759 228.318C781.557 223.926 786.608 219.438 789.675 216.409C793.317 213.19 797.187 211.271 801.672 209.489Z"/>
	<path fill="#FDFCF4" d="M790.321 220.802C790.967 221.046 791.453 221.437 792.016 221.83L791.937 222.852C790.336 224.788 788.076 225.862 785.927 227.101C785.066 227.453 785.523 227.419 784.554 227.117C785.433 224.576 788.281 222.466 790.321 220.802Z"/>
	<path fill="#FDFCF4" d="M704.117 261.088C702.392 267.179 695.438 273.352 690.592 277.108C676.164 288.292 654.651 298.618 636.364 301.125C626.824 302.432 617.005 301.941 607.487 300.685C593.275 298.81 574.618 294.818 565.444 282.635C554.307 267.846 555.135 243.539 557.68 226.257C560.275 208.637 567.452 190.082 582.281 179.154C592.916 171.317 605.917 170.556 618.556 172.577C631.782 174.693 645.498 179.886 656.252 187.978C657.792 189.137 660.015 190.574 661.043 192.218C661.145 192.38 661.211 192.562 661.296 192.734C661.965 193.027 662.242 193.304 662.974 193.167C666.902 192.434 669.524 195.127 672.59 197.277C687.597 207.8 705.895 222.501 709.114 241.651C710.833 251.874 706.747 252.809 704.117 261.088Z"/>
	<path fill="#4A455A" d="M704.117 261.088C702.392 267.179 695.438 273.352 690.592 277.108C676.164 288.292 654.651 298.618 636.364 301.125C626.824 302.432 617.005 301.941 607.487 300.685C593.275 298.81 574.618 294.818 565.444 282.635C554.307 267.846 555.135 243.539 557.68 226.257C560.275 208.637 567.452 190.082 582.281 179.154C592.916 171.317 605.917 170.556 618.556 172.577C631.782 174.693 645.498 179.886 656.252 187.978C657.792 189.137 660.015 190.574 661.043 192.218C661.145 192.38 661.211 192.562 661.296 192.734C660.236 192.277 659.24 191.798 658.111 191.541L657.997 191.851L658.54 192.189C666.535 197.25 674.416 203.636 680.541 210.845C679.486 210.703 678.446 210.552 677.402 210.341L676.756 210.707L674.555 209.153Q674.123 208.715 673.686 208.282C657.721 192.49 634.926 182.039 612.272 182.264C601.519 182.371 590.731 185.75 583.086 193.584C584.069 197.89 585.076 202.18 587.053 206.156Q587.942 207.966 588.898 209.743Q589.854 211.519 590.874 213.258Q591.895 214.998 592.979 216.699Q594.063 218.4 595.209 220.059Q596.355 221.719 597.562 223.335Q598.769 224.951 600.035 226.522Q601.3 228.092 602.623 229.615Q603.946 231.137 605.324 232.61Q606.702 234.083 608.134 235.504Q609.565 236.924 611.048 238.291Q612.531 239.658 614.064 240.969Q615.597 242.281 617.177 243.534Q618.757 244.788 620.382 245.983Q622.007 247.177 623.675 248.311Q625.344 249.444 627.053 250.515Q628.762 251.587 630.509 252.594C634.832 255.059 639.81 256.365 644.096 258.816C644.987 260.477 647.412 260.845 649.193 261.386C654.304 262.939 660.899 263.035 665.184 266.464C654.052 265.782 643.418 262.593 633.429 257.71C613.909 248.167 596.629 230.972 586.771 211.595C584.237 206.613 582.439 201.415 580.632 196.142C569.526 211.031 566.072 232.315 568.474 250.432C570.107 262.746 575.445 274.813 585.514 282.481C599.758 293.329 627.314 297.918 644.682 295.418C660.26 293.175 683.713 280.792 695.734 270.463C699.019 267.64 701.536 264.559 704.117 261.088Z"/>
	<path fill="#74CCED" d="M583.086 193.584C590.731 185.75 601.519 182.371 612.272 182.264C634.926 182.039 657.721 192.49 673.686 208.282Q674.123 208.715 674.555 209.153L676.756 210.707L677.402 210.341C678.446 210.552 679.486 210.703 680.541 210.845C689.1 219.333 699.73 233.162 699.954 245.868C699.983 247.484 699.751 249.122 699.545 250.722C698.128 255.778 695.634 258.946 690.979 261.506C683.464 265.64 673.625 266.699 665.184 266.464C660.899 263.035 654.304 262.939 649.193 261.386C647.412 260.845 644.987 260.477 644.096 258.816C639.81 256.365 634.832 255.059 630.509 252.594Q628.762 251.587 627.053 250.515Q625.344 249.444 623.675 248.311Q622.007 247.177 620.382 245.983Q618.757 244.788 617.177 243.534Q615.597 242.281 614.064 240.969Q612.531 239.658 611.048 238.291Q609.565 236.924 608.134 235.504Q606.702 234.083 605.324 232.61Q603.946 231.137 602.623 229.615Q601.3 228.092 600.035 226.522Q598.769 224.951 597.562 223.335Q596.355 221.719 595.209 220.059Q594.063 218.4 592.979 216.699Q591.895 214.998 590.874 213.258Q589.854 211.519 588.898 209.743Q587.942 207.966 587.053 206.156C585.076 202.18 584.069 197.89 583.086 193.584Z"/>
	<path fill="#353246" d="M676.756 210.707L677.402 210.341C678.446 210.552 679.486 210.703 680.541 210.845C689.1 219.333 699.73 233.162 699.954 245.868C699.983 247.484 699.751 249.122 699.545 250.722C698.128 255.778 695.634 258.946 690.979 261.506C683.464 265.64 673.625 266.699 665.184 266.464C660.899 263.035 654.304 262.939 649.193 261.386C647.412 260.845 644.987 260.477 644.096 258.816C656.749 263.032 670.905 265.295 683.92 261.158C689.746 259.306 693.867 256.285 696.732 250.848C697.129 249.214 697.377 247.588 697.315 245.902C696.815 232.324 685.997 219.649 676.756 210.707Z"/>
	<path fill="#FDFCF4" d="M591.919 203.623C593.256 199.281 594.749 195.61 598.913 193.259C601.923 191.559 605.518 191.539 608.76 192.543C614.984 194.469 621.132 199.89 624.051 205.725C624.717 207.056 625.271 208.461 625.835 209.838C625.951 212.843 625.664 215.729 623.676 218.131C621.709 220.508 618.799 221.497 615.789 221.643C609.498 221.947 602.601 219.238 597.949 215.056C594.467 211.924 592.227 208.317 591.919 203.623Z"/>
	<path fill="#5392C2" d="M583.086 193.584C590.731 185.75 601.519 182.371 612.272 182.264C634.926 182.039 657.721 192.49 673.686 208.282Q674.123 208.715 674.555 209.153C674.572 209.405 674.584 209.657 674.604 209.909C675.101 216.114 679.188 220.744 674.2 226.612C671.353 229.961 667.27 230.618 663.122 230.818C653.677 231.272 644.8 228.416 637.798 221.961C633.629 218.118 630.228 213.426 625.835 209.838C625.271 208.461 624.717 207.056 624.051 205.725C621.132 199.89 614.984 194.469 608.76 192.543C605.518 191.539 601.923 191.559 598.913 193.259C594.749 195.61 593.256 199.281 591.919 203.623C589.934 204.163 588.494 204.609 587.053 206.156C585.076 202.18 584.069 197.89 583.086 193.584Z"/>
</svg>
