<?xml version="1.0" encoding="utf-8" ?>
<svg xmlns="http://www.w3.org/2000/svg" xmlns:xlink="http://www.w3.org/1999/xlink" width="1024" height="1024">
	<path fill="#FEFEFE" d="M0 0L1024 0L1024 1024L0 1024L0 0Z"/>
	<path d="M924.471 159.212C943.137 157.606 975.548 159.441 991.885 168.356C985.031 167.416 978.267 166.101 971.38 165.317Q951.372 162.864 931.216 162.542C920.759 162.447 910.341 163.01 899.891 163.082C907.693 160.086 916.213 159.764 924.471 159.212Z"/>
	<path d="M968.315 114.208C973.312 113.68 978.316 114.428 983.143 115.678C950.601 117.881 929.598 128.516 901.25 142.979L890.11 148.521C902.723 135.681 929.103 123.413 946.376 118.317Q951.737 116.712 957.237 115.682Q962.737 114.652 968.315 114.208Z"/>
	<path d="M652.197 43.465C666.993 43.7972 709.098 85.7762 720.415 97.2705C730.269 92.9499 757.87 84.9866 768.156 87.5721C769.451 87.8977 769.917 88.185 770.609 89.3038C770.227 90.4377 769.941 90.6854 768.855 91.2088C764.798 93.1649 760.376 94.5768 756.207 96.3119C746.849 100.206 737.232 105.128 729.103 111.166C743.881 111.807 757.946 116.657 771.926 121.062C774.444 118.866 776.954 117.431 779.971 116.064C801.765 121.931 821.6 131.806 840.49 144.012C844.245 139.472 849.309 134.42 855.109 132.755C857.297 132.127 859.495 132.144 861.656 132.874C864.636 133.882 867.437 136.217 870.112 137.857C874.329 140.443 878.741 142.79 883.04 145.244Q885.362 140.762 888.206 136.592C904.678 112.141 935.913 82.2858 963.103 70.4777C968.263 68.2369 973.464 66.9068 978.973 65.8356C971.094 71.1208 962.097 74.7052 954.024 79.7777C927.718 96.3051 902.471 120.161 884.719 145.636C897.901 156.596 907.457 169.446 911.992 186.262C928.07 245.884 879.199 292.406 847.286 336.239C841.849 343.707 836.904 351.723 832.291 359.724C825.839 370.915 817.08 388.245 816.288 401.224C815.915 407.345 817.183 413.732 818.792 419.607C829.445 458.493 864.213 486.645 897.872 505.717C878.265 506.257 865.457 504.651 848.538 494.403C857.098 506.78 864.883 519.862 868.826 534.51C876.547 563.192 870.884 590.334 856.411 615.635C858.338 599.201 859.547 581.464 854.177 565.581C857.447 590.073 843.522 621.883 830.029 641.632C825.643 648.051 819.771 653.682 816.086 660.516C807.706 676.061 802.458 694.852 798.842 712.063C789.38 757.094 789.479 806.419 793.783 852.145Q795.313 868.255 797.339 884.31C798.047 890.154 799.621 897.065 799.127 902.915C799.113 903.086 799.091 903.257 799.073 903.427C806.834 899.793 825.743 891.07 833.572 889.809C835.089 889.564 836.289 889.713 837.739 890.246C850.211 894.837 868.298 922.907 873.85 935.34C874.749 937.353 876.28 940.665 875.104 942.816C870.748 950.78 851.558 950.655 844 952.424C842.688 953.61 842.603 955.206 841.924 956.81C840.29 960.669 833.886 963.053 830.163 964.46C804.969 973.982 766.955 972.102 742.651 960.886C738.487 958.965 734.049 956.716 730.763 953.451C724.344 947.073 719.493 938.461 714.658 930.867Q706.638 918.465 699.308 905.643Q691.978 892.821 685.361 879.618Q678.743 866.414 672.857 852.869Q666.971 839.323 661.835 825.476C656.295 848.402 649.134 869.009 631.16 885.352C635.881 888.267 640.86 890.629 645.394 893.879C658.486 903.263 668.079 918.379 673.647 933.284C653.227 946.23 607.766 943.661 583.8 940.348C573.334 938.902 562.903 936.487 552.493 934.611C557.835 942.193 568.834 958.472 570.19 966.946C570.421 968.391 570.177 969.552 569.283 970.722C564.476 977.017 544.226 979.472 536.771 980.173C485.599 984.982 404.832 971.837 356.376 953.712C348.995 950.951 337.585 946.961 331.734 941.846C330.52 940.784 329.808 939.851 329.74 938.178C331.561 934.8 338.129 932.23 341.498 930.34Q332.9 931.792 324.227 932.702Q315.555 933.612 306.843 933.975Q298.13 934.339 289.412 934.154Q280.694 933.97 272.005 933.239Q268.962 932.994 265.925 932.673Q262.889 932.353 259.862 931.958Q256.834 931.564 253.817 931.094Q250.801 930.625 247.796 930.082Q244.792 929.539 241.802 928.922Q238.811 928.305 235.837 927.615Q232.863 926.924 229.907 926.161Q226.951 925.398 224.014 924.562Q221.078 923.727 218.163 922.819Q215.248 921.911 212.356 920.932Q209.464 919.953 206.597 918.903Q203.73 917.853 200.89 916.733Q198.05 915.613 195.238 914.423Q192.426 913.233 189.645 911.975Q186.863 910.717 184.113 909.39Q181.363 908.064 178.647 906.67Q175.93 905.276 173.249 903.816Q170.568 902.356 167.923 900.83Q165.278 899.305 162.672 897.714Q160.066 896.124 157.499 894.47Q154.933 892.816 152.408 891.1Q149.883 889.384 147.401 887.606Q144.919 885.828 142.482 883.989Q140.044 882.15 137.653 880.253Q135.261 878.355 132.917 876.398Q130.573 874.442 128.278 872.429Q125.982 870.416 123.737 868.347Q121.492 866.277 119.299 864.154Q117.105 862.03 114.965 859.853Q112.824 857.676 110.738 855.447Q108.651 853.218 106.62 850.939Q104.589 848.659 102.615 846.33Q99.1166 842.026 95.9493 837.472C41.7161 759.347 49.0165 668.469 84.8339 584.568C94.7114 561.43 106.743 539.57 119.329 517.826C137.129 487.076 166.223 447.312 172.27 412.322C176.214 389.505 171.317 363.759 160.346 343.387C156.197 335.682 150.98 328.71 145.92 321.599C155.08 325.65 164.193 331.631 171.832 338.04C164.965 327.336 152.681 313.732 141.227 308.154C145.916 306.311 150.481 304.647 155.482 303.895C179.936 300.217 201.005 313.36 219.77 327.185C217.323 323.581 214.687 320.106 212.094 316.607C227.676 323.537 241.475 331.253 253.424 343.751C267.571 358.548 276.481 377.196 280.632 397.155C284.265 414.626 283.946 433.754 279.259 450.999C270.748 482.314 251.023 509.389 231.686 534.83C214.58 557.336 197.224 579.432 181.265 602.795C175.561 611.146 169.544 619.498 164.369 628.187C148.506 654.826 137.173 685.493 136.595 716.774Q136.545 718.565 136.539 720.357Q136.533 722.149 136.571 723.941Q136.609 725.732 136.692 727.523Q136.774 729.313 136.901 731.1Q137.028 732.888 137.199 734.672Q137.37 736.456 137.585 738.235Q137.8 740.014 138.059 741.787Q138.318 743.56 138.621 745.326Q138.924 747.093 139.27 748.851Q139.616 750.609 140.006 752.358Q140.396 754.107 140.829 755.846Q141.262 757.585 141.738 759.313Q142.213 761.041 142.732 762.756Q143.25 764.472 143.811 766.174Q144.371 767.876 144.974 769.564Q145.576 771.251 146.22 772.924Q146.864 774.596 147.55 776.252Q148.235 777.907 148.961 779.546Q149.687 781.184 150.453 782.804Q151.219 784.424 152.026 786.025Q152.832 787.625 153.677 789.205Q154.523 790.785 155.407 792.344Q156.291 793.903 157.214 795.439Q158.136 796.975 159.096 798.488Q160.057 800.001 161.054 801.49Q162.052 802.979 163.085 804.443Q164.119 805.906 165.189 807.344Q166.259 808.782 167.364 810.193Q168.469 811.603 169.608 812.986Q170.748 814.369 171.921 815.724Q173.095 817.078 174.301 818.403Q175.508 819.728 176.747 821.023C209.957 855.463 256.27 873.077 303.251 877.883C313.136 878.894 323.093 879.072 333.019 879.258C323.306 798.563 345.02 724.396 390.92 657.942Q396.766 649.343 403.063 641.069Q409.359 632.794 416.089 624.868Q422.818 616.941 429.961 609.385Q437.104 601.829 444.64 594.665C466.18 574.075 489.854 556.042 514.481 539.317C533.488 526.409 553.55 514.432 573.578 503.175C582.764 498.012 602.92 488.447 610.183 482.076C611.532 480.892 612.298 478.995 613.117 477.427C618.478 467.16 624.233 457.439 630.874 447.931C638.04 437.67 646.437 428.196 654.778 418.889C659.798 413.287 666.275 407.311 670.006 400.824C635.668 399.54 586.158 390.984 558.73 369.971C570.007 364.834 581.943 360.739 593.496 356.229C586.051 357.47 556.914 359.511 550.978 356.461C550.11 356.016 550.413 356.257 550.05 355.229C551.01 353.237 557.043 350.079 559.002 348.663C567.508 342.518 575.416 335.514 583.488 328.816C565.203 302.834 551.931 272.423 541.668 242.479C530.305 209.327 522.727 173.699 520.435 138.699C520.153 134.391 518.946 126.146 521.078 122.441C521.519 121.675 522.221 121.592 523.048 121.413C527.507 120.448 534.499 122.922 538.777 124.18C571.849 133.907 610.799 154.081 639.172 173.606C642.172 167.262 645.679 161.384 649.344 155.405C647.707 148.142 647.727 140.054 647.295 132.617C645.811 107.106 644.712 80.1729 647.925 54.7495C648.427 50.7768 648.841 46.0582 652.197 43.465Z"/>
	<path fill="#242425" d="M582.339 920.007L582.702 920.338C581.196 924.315 580.201 929.732 578.091 933.281C577.472 934.321 577.089 934.261 575.982 934.554L575.053 933.975L574.856 933.034C576.97 928.444 579.272 924.039 582.339 920.007Z"/>
	<path fill="#D4A478" d="M690.611 100.163L689.781 98.8508C690.332 96.9264 693.009 95.0764 694.439 93.7275C696.634 98.2954 699.113 102.856 701.072 107.521L696.63 110.753C695.124 106.928 692.906 103.549 690.611 100.163Z"/>
	<path fill="#383637" d="M690.611 100.163C692.906 103.549 695.124 106.928 696.63 110.753L694.026 112.994C691.002 115.497 688.7 118.427 686.281 121.498C686.349 119.88 686.281 118.223 686.864 116.693L687.041 117.008L687.653 116.921C689.23 111.936 688.045 106.648 688.9 101.564L690.611 100.163Z"/>
	<path fill="#242425" d="M690.611 100.163C692.906 103.549 695.124 106.928 696.63 110.753L694.026 112.994C692.268 108.525 693.092 104.802 688.9 101.564L690.611 100.163Z"/>
	<path fill="#242425" d="M464.417 944.114C464.801 944.577 464.641 944.262 464.584 945.159C461.349 949.41 458.729 955.084 456.55 960.008C455.187 963.089 454.297 967.041 452.101 969.628C450.898 971.045 450.085 970.929 448.349 971.135L447.751 970.359C448.532 964.102 455.476 953.308 459.017 947.721C460.606 945.213 461.586 944.735 464.417 944.114Z"/>
	<path fill="#9A815A" d="M667.55 60.6482C670.952 63.2785 674.519 65.8224 677.683 68.7337C677.901 71.0809 690.166 86.9093 692.756 90.9637L687.018 96.1616L683.688 90.574C678.318 84.533 673.668 75.8654 670.784 68.3406C669.567 65.8341 668.255 63.3574 667.55 60.6482Z"/>
	<path fill="#575344" d="M670.784 68.3406C675.753 70.9866 681.691 82.5475 683.234 87.8255C683.501 88.7366 683.635 89.6302 683.688 90.574C678.318 84.533 673.668 75.8654 670.784 68.3406Z"/>
	<path fill="#383637" d="M678.688 141.939C679.094 141.989 678.84 141.913 679.288 142.459C673.603 157.286 671.004 174.566 660.779 187.216L659.927 186.445C657.564 179.691 661.896 166.954 664.103 160.427C665.437 156.48 667.519 152.157 667.744 147.977C671.281 145.708 674.931 143.816 678.688 141.939Z"/>
	<path fill="#FB4E57" d="M858.609 134.903L859.958 135.162C864.38 138.851 867.731 146.7 870.592 151.697C863.178 154.001 855.097 154.839 847.387 155.635C843.636 156.105 839.804 156.233 836.029 156.481C842.361 146.783 847.89 139.757 858.609 134.903Z"/>
	<path fill="#FDE067" d="M686.827 102.209C687.02 107.065 687.145 111.833 686.864 116.693C686.281 118.223 686.349 119.88 686.281 121.498Q683.202 129.146 680.594 136.968C672.6 140.288 665.148 143.227 658.264 148.567C666.431 132.318 675.7 116.613 686.827 102.209Z"/>
	<path fill="#FDE067" d="M565.774 907.04C572.501 908.89 580.678 907.887 587.498 907.104C583.711 911.462 580.309 916.434 577.657 921.565C575.734 925.285 574.11 930.182 571.402 933.339L569.975 933.403C562.041 931.334 553.492 930.612 545.809 927.774C553.727 921.741 559.802 914.924 565.774 907.04Z"/>
	<path fill="#FDE067" d="M750.547 93.6279L751.481 93.6454C750.226 94.9491 747.742 95.657 746.066 96.3976C731.816 102.692 710.924 115.534 705.109 130.597Q695.362 132.686 685.705 135.159L684.855 135.038C685.153 132.281 689.122 126.793 690.725 124.227C701.143 107.565 732.136 98.1003 750.547 93.6279Z"/>
	<path fill="#383637" d="M135.842 768.451L136.48 768.681C137.818 770.899 138.577 773.596 139.467 776.027Q137.962 777.243 136.372 778.345C124.15 786.76 106.915 790.564 92.2672 788.506C87.3733 787.818 82.778 786.13 77.9357 785.304L77.4053 785.218C75.7817 781.497 74.4011 777.638 72.9245 773.854Q74.5999 774.375 76.2976 774.817C95.6369 779.861 118.281 778.767 135.842 768.451Z"/>
	<path fill="#383637" d="M184.653 838.786C187.098 839.297 189.835 842.508 191.633 844.2C182.86 857.146 165.397 871.627 149.892 875.21C146.748 875.937 144.777 876.349 142.013 874.625Q136.865 870.278 131.842 865.788C155.091 861.897 167.989 855.413 184.653 838.786Z"/>
	<path fill="#383637" d="M67.1376 670.223C69.532 672.089 71.8163 674.087 74.3066 675.829C91.4414 687.813 111.736 690.765 132.126 687.232L130.277 698.926C126.159 699.191 122.061 699.697 117.933 699.809C98.7537 700.329 79.6794 694.207 65.5769 680.939L67.1376 670.223Z"/>
	<path fill="#383637" d="M264.44 878.013C268.879 879.309 273.545 880.016 278.085 880.894C268.902 890.416 262.279 902.481 261.3 915.899C261.062 919.167 262.238 922.734 261.617 925.837L260.435 925.855C255.907 924.886 251.402 923.905 246.926 922.709C245.298 917.459 244.808 912.649 245.796 907.221C247.854 895.918 255.03 884.608 264.44 878.013Z"/>
	<path fill="#383637" d="M100.598 566.278C104.488 570.14 106.855 576.142 110.63 580.375C126.288 597.934 147.432 604.801 170.31 606.069L165.415 614.049C155.838 614.028 146.631 612.836 137.516 609.855C121.156 604.506 103.987 592.598 96.0464 576.929C97.1257 573.112 98.7316 569.763 100.598 566.278Z"/>
	<path fill="#383637" d="M148.317 483.024C149.791 484.817 150.998 487.746 152.219 489.779C155.713 495.598 159.611 500.293 164.604 504.904C183.329 522.194 207.641 523.976 231.861 523.093C229.441 526.325 226.919 529.302 224.105 532.197C223.975 532.315 223.862 532.454 223.716 532.552C220.045 535.023 201.412 533.036 196.725 532.163C181.051 529.241 164.045 521.014 152.953 509.412C148.634 504.896 145.211 499.723 141.71 494.574C143.637 490.537 145.9 486.782 148.317 483.024Z"/>
	<path fill="#383637" d="M730.894 352.966L731.309 353.528C723.907 359.586 717.306 366.953 710.492 373.671Q698.822 385.21 686.005 395.461C666.265 395.791 646.163 395.627 626.9 390.715L621.389 389.653C647.671 389.203 671.204 381.387 695.022 370.981C707.985 365.317 718.763 360.328 730.894 352.966Z"/>
	<path fill="#383637" d="M659.549 419.864C684.463 428.659 717.499 468.665 728.955 492.087Q725.307 488.311 721.539 484.654C700.113 461.596 674.81 446.744 644.51 438.445C649.765 432.494 654.303 425.869 659.549 419.864Z"/>
	<path fill="#FDEF9B" d="M832.662 894.5C833.493 894.516 834.39 894.504 835.208 894.651C843.33 896.113 866.662 932.766 871.868 941.149C866.711 943.528 861.395 944.798 855.847 945.9C853.174 938.703 849.575 930.215 844.832 924.067C843.097 921.819 838.647 915.579 835.886 915.215L835.913 916.023C841.867 925.747 847.445 936.174 852.415 946.435L840.962 947.3C833.672 931.346 824.113 915.779 811.356 903.591C818.336 900.055 825.226 896.97 832.662 894.5Z"/>
	<path fill="#FDE067" d="M653.217 47.6302C658.334 50.6778 663.621 53.6196 668.524 56.9996C681.222 65.7532 707.429 87.1099 715.951 99.2992C712.401 101.394 708.794 103.426 705.289 105.596C704.276 103.781 696.975 91.6938 697.165 90.9994C697.414 90.0858 697.961 89.4635 698.515 88.7132L698.259 88.432L696.654 89.3045C694.682 88.4618 691.926 83.9002 690.518 82.1061C686.7 77.243 682.521 72.6108 677.683 68.7337C674.519 65.8224 670.952 63.2785 667.55 60.6482C665.58 58.4504 663.784 56.1355 661.975 53.8056L661.356 54.0485C659.728 60.3033 668.341 74.6593 671.758 80.4497C675.606 86.9682 680.276 92.9826 684.116 99.4911C676.515 109.642 668.657 119.327 662.492 130.47C658.732 137.266 655.946 144.446 652.558 151.41C650.841 116.558 649.615 82.4665 653.217 47.6302Z"/>
	<path fill="#383637" d="M714.897 294.678L714.701 295.362C683.903 324.733 647.186 350.15 606.965 364.758C597.829 368.076 581.606 373.912 572.032 372.665C570.023 372.404 568.117 371.417 566.299 370.569C576.169 365.864 586.708 363.024 596.184 357.305C598.983 355.77 601.597 354.06 604.233 352.263C588.935 352.463 573.851 356.825 558.582 353.642C567.905 348.239 578.013 348.504 588.223 346.027C606.894 341.498 625.976 336.643 643.925 329.739C656.763 324.801 669.59 319.067 681.818 312.758Q689.145 308.93 696.287 304.767C701.958 301.421 708.411 296.077 714.897 294.678Z"/>
	<path fill="#FDEF9B" d="M628.739 887.908C648.733 900.088 656.413 912.279 667.96 932.101C665.395 933.056 662.748 933.75 660.115 934.492C657.687 923.614 650.258 909.063 640.725 902.866C648.409 913.923 651.705 923.952 658.37 934.683C651.191 936.725 643.324 937.224 635.894 937.575C634.433 933.656 632.498 929.98 630.6 926.262C626.425 918.807 621.878 911.01 615.805 904.946C621.72 915.801 627.1 926.928 633.106 937.757C616.137 939.222 597.428 937.366 580.615 935.034C583.35 927.154 591.098 911.633 596.263 905.187C609.225 901.432 618.398 896.505 628.739 887.908Z"/>
	<path fill="#383637" d="M611.286 486.899C612.395 487.933 612.005 490.565 612.031 492.022C612.794 535.632 624.905 579.388 649.991 615.319C643.082 610.224 636.954 604.69 630.825 598.696C604.449 574.791 583.518 542.836 577.31 507.525C588.543 500.399 600.417 494.672 611.286 486.899Z"/>
	<path fill="#383637" d="M352.86 836.282C393.115 834.004 452.062 841.284 488.162 860.081C478.284 859.801 468.526 857.563 458.625 857.038C426.795 855.519 393.066 857.291 362.107 865.255C354.046 867.328 346.199 870.126 338.354 872.887C337.197 861.082 336.873 848.871 337.181 837.015C342.38 837.043 347.662 836.55 352.86 836.282Z"/>
	<path fill="#FDE067" d="M282.825 881.42C299.767 883.699 316.364 884.547 333.378 882.45C336.683 898.805 340.605 911.906 347.315 927.311C342.107 928.16 336.953 928.401 331.684 928.472C309.459 928.963 287.884 928.968 265.776 926.301Q265.364 922.657 265.388 918.99C265.591 904.459 272.66 891.407 282.825 881.42Z"/>
	<path fill="#383637" d="M531.446 535.55C532.539 537.215 532.203 542.378 532.34 544.552C532.745 550.964 534.461 557.746 535.807 564.027Q536.568 567.562 537.437 571.071Q538.307 574.58 539.285 578.061Q540.264 581.542 541.349 584.99Q542.435 588.439 543.627 591.852Q544.819 595.266 546.117 598.64Q547.414 602.015 548.815 605.348Q550.217 608.681 551.721 611.969Q553.225 615.256 554.83 618.496Q556.435 621.736 558.14 624.924Q559.845 628.112 561.648 631.246Q563.451 634.38 565.35 637.456Q567.25 640.533 569.243 643.549Q571.237 646.565 573.324 649.518Q575.41 652.471 577.587 655.357Q579.764 658.244 582.029 661.062Q584.294 663.88 586.646 666.626C578.672 662.112 571.508 656.436 564.245 650.884C540.015 632.397 518.453 612.357 502.945 585.871C498.686 578.599 494.891 571.549 492.534 563.412C497.484 559.097 503.216 555.366 508.564 551.557Q519.871 543.361 531.446 535.55Z"/>
	<path fill="#383637" d="M422.501 628.162C448.426 634.265 486.572 654.411 505.23 673.802L504.327 673.989L503.558 673.629C498.354 671.165 493.754 668.425 488.26 666.497C489.869 670.812 492.852 674.117 495 678.122C456.937 675.682 421.718 676.878 384.046 682.631C395.045 663.158 408.573 645.58 422.501 628.162Z"/>
	<path fill="#FDEF9B" d="M805.055 907.63C805.629 907.485 806.266 907.32 806.864 907.421C813.898 908.61 834.539 946.55 838.735 954.124C835.414 957.412 831.181 959.001 826.879 960.551C822.039 949.414 814.091 930.021 804.919 922.596C811.641 935.313 818.515 948.211 823.785 961.608C812.812 965.025 802.074 965.06 790.834 966.311L788.727 961.833C783.959 952.86 780.107 943.335 775.613 934.209C777.379 945.055 781.31 957.287 787.932 966.181C769.498 965.659 751.634 961.728 735.695 952.257C752.758 933.871 780.126 912.291 805.055 907.63Z"/>
	<path fill="#FDEF9B" d="M524.093 919.531C525.67 919.414 527.046 919.668 528.505 920.254C545.09 926.911 559.201 952.962 565.925 969.01C561.957 970.818 557.605 971.735 553.386 972.768C553.398 972.251 553.413 971.735 553.399 971.218C553.071 958.906 542.903 939.566 533.991 931.233C537.102 938.778 540.776 946.078 544.019 953.567C546.806 960.004 549.185 966.638 551.626 973.212C542.76 975.021 528.15 976.782 519.252 975.932L518.759 975.333C517.007 965.578 512.724 954.4 504.917 947.97C509.196 957.162 512.416 966.767 516.593 975.998Q501.24 976.097 485.919 975.101Q470.597 974.105 455.386 972.02C459.824 961.798 464.782 952.209 470.854 942.846C480.076 940.153 488.933 937.032 497.509 932.648C506.453 928.077 514.452 922.749 524.093 919.531Z"/>
	<path fill="#FDE067" d="M650.33 796.411C652.826 799.5 655.689 809.646 657.195 813.722C653.793 834.937 649.436 854.636 635.653 871.911C619.545 892.1 601.389 900.528 576.124 903.43L568.212 903.853C571.527 898.687 574.401 893.305 576.57 887.554C578.039 883.658 578.952 878.43 581.174 874.991C584.833 869.325 589.34 864.099 593.56 858.843Q607.166 841.832 622.156 826.027C631.557 816.146 641.373 806.711 650.33 796.411Z"/>
	<path fill="#FDE067" d="M195.536 846.536C213.928 860.492 237.55 870.169 259.516 876.803C255.837 880.214 252.469 883.526 249.743 887.763C242.974 898.281 240.357 909.891 242.934 922.118C235.329 920.392 227.812 918.276 220.285 916.241C191.333 906.987 173.51 896.578 148.166 880.055C168.62 873.908 182.665 863.356 195.536 846.536Z"/>
	<path fill="#FDE067" d="M140.756 780.413C142.815 781.889 150.093 797.29 152.299 800.905C160.356 814.106 170.858 825.187 181.797 836.008C168.026 851.761 149.29 859.271 129.243 863.228C126.773 861.159 124.515 858.75 122.216 856.49Q118.621 852.919 115.224 849.159Q111.827 845.399 108.638 841.461Q105.449 837.523 102.477 833.418Q99.5059 829.313 96.7606 825.054Q94.0154 820.794 91.5044 816.393Q88.9933 811.991 86.7238 807.461Q84.4544 802.93 82.433 798.283Q80.4117 793.636 78.6445 788.887C82.7784 790.93 86.8432 792.479 91.4035 793.278C108.535 796.277 126.833 790.2 140.756 780.413Z"/>
	<path fill="#FDE067" d="M64.8924 687.168L65.5811 687.659C86.2126 702.306 104.67 706.993 129.637 702.75C128.707 724.231 130.158 743.751 135.274 764.706L130.652 767.084C110.656 774.426 91.9558 774.42 71.4501 769.536C65.2203 740.266 63.2959 717.264 64.8924 687.168Z"/>
	<path fill="#383637" d="M360.796 726.927C370.449 727.138 381.069 730.132 390.554 732.017C427.862 739.431 463.329 752.756 495.231 773.583C505.379 780.208 515.055 787.774 524.802 794.981Q515.992 791.644 507.092 788.552C495.516 784.657 483.537 781.271 471.52 779.037C437.034 772.626 378.358 770.186 344.475 779.964C347.708 761.935 354.401 744.027 360.796 726.927Z"/>
	<path fill="#FDE067" d="M93.9974 582.239C97.0469 585.274 99.2619 589.5 102.106 592.8C105.615 596.871 110.095 600.443 114.488 603.512C129.415 613.943 144.338 617.201 162.184 618.554C149.465 635.773 139.309 661.869 133.476 682.402C133.393 682.558 133.34 682.733 133.228 682.87C131.433 685.068 122.876 684.62 120.145 684.607C101.592 684.519 81.1511 678.435 67.8563 664.958C73.5915 636.722 81.8506 608.43 93.9974 582.239Z"/>
	<path fill="#FDEF9B" d="M572.674 769.92C577.597 764.721 583.289 755.179 587.849 749.125C593.446 741.696 599.68 734.709 605.516 727.462C609.603 722.388 613.421 717.051 617.333 711.838C619.563 708.867 625.838 698.753 628.216 697.397C628.889 697.013 629.269 697.335 629.954 697.534C625.339 709.26 614.441 733.422 619.607 745.92C619.919 746.673 620.155 747.066 620.757 747.587C621.752 747.701 621.975 747.729 622.829 747.086C625.878 744.792 628.228 737.61 629.854 734.122C628.158 745.773 628.046 764.763 635.71 774.591C636.299 775.347 636.868 775.635 637.727 776.009L638.923 775.859C641.074 772.77 640.08 765.759 640.607 761.926C642.027 766.309 643.141 770.773 644.612 775.145C646.398 780.453 648.728 785.878 649.967 791.325C644.456 795.64 639.509 800.999 634.496 805.895C614.705 825.226 598.426 844.063 582.151 866.463C587.397 835.834 582.343 799.249 572.674 769.92Z"/>
	<path fill="#FDE067" d="M138.593 499.312C143.787 506.953 149.365 513.94 156.53 519.84C174.57 534.692 197.844 540.18 220.836 538.05C205.665 556.282 191.194 575.67 177.812 595.249C176.201 597.645 174.779 600.19 173.299 602.67Q169.289 602.582 165.302 602.148Q161.314 601.714 157.379 600.938Q153.444 600.161 149.591 599.048Q145.738 597.934 141.995 596.492C124.753 589.941 111.131 578.092 103.517 561.218Q114.472 539.764 126.698 519.009C130.575 512.421 134.317 505.648 138.593 499.312Z"/>
	<path fill="#FDE067" d="M824.243 629.386C824.421 631.596 823.063 634.466 822.343 636.593C820.331 642.537 818.397 648.594 815.582 654.215C812.484 660.402 808.61 666.205 805.876 672.573C802.032 681.527 798.671 691.218 795.855 700.548C782.625 744.375 782.693 809.883 788.406 855.345C790.483 871.878 793.893 888.044 797.396 904.313C788.925 908.24 780.464 912.104 772.193 916.443C768.665 911.527 765.643 906.524 763.026 901.065C742.272 854.271 733.957 774.548 737.809 723.442C740.322 720.824 743.79 718.637 746.67 716.404C753.998 710.72 761.507 705.166 768.603 699.2C775.3 693.569 781.96 687.766 788.265 681.694C791.658 678.426 794.811 674.744 798.364 671.666C798.953 671.156 799.491 670.914 800.236 670.709L800.61 673.157L801.128 673.454C812.148 660.422 816.35 644.164 824.243 629.386Z"/>
	<path fill="#FDEF9B" d="M773.992 533.709C774.052 533.654 774.111 533.597 774.172 533.543C777.015 531.007 778.466 525.48 779.877 521.947C783.018 514.085 786.223 506.122 788.65 498.005C795.06 476.564 799.872 454.606 806.124 433.099C807.865 427.11 809.056 420.078 811.54 414.408C812.139 413.04 812.566 412.748 813.751 411.92C818.531 444.273 837.527 469.768 863.491 488.897C869.723 493.488 876.354 497.511 882.968 501.52C867.642 498.285 856.23 495.014 843.237 485.655C837.26 481.35 831.491 476.63 825.073 472.985C829.749 478.7 835.17 483.762 839.723 489.577C858.427 513.465 870.088 542.583 867.077 573.301C866.705 577.1 862.374 600.716 860.707 603.096C860.469 595.942 861.89 588.964 861.301 581.691C860.153 567.506 850.643 536.417 841.045 526.007C843.152 531.448 845.272 536.835 846.633 542.523C852.568 567.336 848.684 594.877 838.44 618.092C833.127 630.132 826.969 641.276 818.95 651.753C821.629 644.424 834.363 611.474 831.7 605.738C829.39 609.095 828.66 613.5 827.081 617.245Q822.536 627.935 816.4 637.798C795.053 671.741 771.116 689.662 741.962 715.566C758.991 673.003 769.595 620.083 772.869 574.303Q773.728 560.88 773.914 547.431C773.97 542.891 773.691 538.225 773.992 533.709Z"/>
	<path fill="#FDE067" d="M148.554 307.714C160.352 306.945 172.016 308.195 183.056 312.551C211.217 323.665 234.182 349.198 247.97 375.562C251.306 381.941 253.539 388.586 256.419 395.142C255.466 389.438 254.495 383.775 252.711 378.26C245.954 357.376 231.374 337.436 216.996 321.009Q219.007 321.964 220.888 323.154C246.931 339.521 266.698 364.439 273.491 394.751C282.399 434.495 268.365 468.015 247.509 500.788Q242.17 509.149 236.174 517.053C218.672 521.357 201.791 520.253 185.227 512.884C171.121 506.608 156.532 492.992 150.997 478.365C162.027 457.239 174.368 437.23 178.691 413.38C184.092 383.577 173.667 355.151 156.79 330.913C169.161 340.05 179.228 349.811 186.935 363.33C190.741 370.006 193.973 376.988 197.867 383.621C197.576 381.475 197.284 379.32 196.803 377.207C190.971 351.556 169.937 322.31 147.666 308.354L148.554 307.714Z"/>
	<path fill="#FDE067" d="M493.928 671.589C502.175 677.108 509.177 684.94 518.1 689.331C514.073 683.401 509.824 678.582 504.327 673.989L505.23 673.802C519.806 683.73 531.178 695.694 540.28 710.837C566.428 754.337 586.681 824.423 574 874.94C569.448 893.073 558.967 913.057 542.405 922.907C538.733 919.951 534.759 916.673 530.205 915.221C521.522 912.451 509.849 919.7 502.546 923.768C472.505 940.505 445.307 943.711 411.754 942.37C401.594 941.964 390.973 940.46 380.83 941.195L380.016 941.258C400.434 948.446 435.278 948.386 456.497 945.341C451.407 953.412 447.687 961.261 444.573 970.246C419.271 966.503 349.87 953.149 331.126 938.388C331.192 938.349 331.258 938.312 331.323 938.272C336.409 935.156 342.082 933.178 347.504 930.729C353.88 927.848 359.786 924.556 365.67 920.8C359.612 922.208 354.389 924.1 348.748 926.736C342.983 910.254 341.079 892.723 338.788 875.5C377.996 861.826 426.19 857.12 467.433 860.681C480.326 861.794 493.088 864.171 505.765 866.692C497.879 861.218 488.392 857.173 479.572 853.447Q475.383 851.699 471.136 850.094Q466.89 848.489 462.592 847.029Q458.294 845.569 453.948 844.256Q449.603 842.943 445.216 841.778Q440.828 840.613 436.404 839.598Q431.979 838.582 427.523 837.718Q423.067 836.853 418.584 836.14Q414.1 835.427 409.596 834.867Q405.091 834.307 400.57 833.9Q396.049 833.493 391.516 833.24Q386.984 832.986 382.446 832.887Q377.907 832.787 373.368 832.842Q368.829 832.897 364.295 833.106Q359.76 833.314 355.235 833.677Q350.71 834.04 346.2 834.555Q341.69 835.071 337.2 835.74C337.839 817.604 340.152 799.96 343.479 782.123C352.37 780.183 362.017 779.463 371.093 778.728C409.136 775.645 449.146 776.785 486.314 786.024C503.57 790.314 519.933 796.825 536.567 802.991Q535.001 801.128 533.349 799.34C526.778 792.262 518.491 785.986 510.836 780.099C468.542 747.573 415.424 726.407 361.789 724.469C367.389 711.361 374.498 698.877 381.553 686.512C403.206 682.956 425.945 680.877 447.881 680.8C464.276 680.743 481.543 682.476 497.764 680.353C496.946 676.975 495.757 674.51 493.928 671.589Z"/>
	<path fill="#FDE067" d="M724.779 115.374C744.297 115.665 769.864 124.274 787.913 131.957C795.372 135.132 824.946 151.478 829.09 151.434L829.593 150.711C829.493 150.144 829.448 149.692 829.17 149.157C827.788 146.488 823.243 144.29 820.707 142.724C807.178 134.374 793.194 127.2 777.986 122.444C778.882 121.771 779.782 121.106 780.64 120.384C780.788 120.261 780.932 120.133 781.077 120.007C785.756 119.453 813.601 133.639 819.411 136.868C825.434 140.215 831.205 144.035 837.152 147.523C835.553 150.828 833.159 154.474 832.432 158.048L833.099 158.908C840.287 161.975 861.159 158.212 869.311 156.06C871.522 155.476 872.514 154.509 873.586 152.531C873.663 152.388 873.737 152.244 873.812 152.1Q874.41 152.735 874.988 153.388C886.632 166.439 894.263 192.306 892.964 209.597C892.598 214.463 890.769 218.141 886.988 221.253C877.396 229.149 862.404 231.265 850.406 230.2C844.491 229.675 840.229 228.518 836.328 223.838C836.674 222.345 837.293 220.499 836.978 218.993C836.815 218.217 836.44 218.155 835.852 217.731L834.751 218.15C834.061 219.048 833.532 219.791 833.23 220.898C832.61 223.178 832.988 225.53 834.205 227.546C836.367 231.125 840.805 233.112 844.668 234.176C856.139 237.336 871.609 235.394 881.908 229.428C887.758 226.039 892.5 220.562 894.14 213.909C898.269 197.148 892.791 174.073 883.329 159.889C879.25 153.776 873.968 148.576 870.189 142.25L869.72 141.451C875.516 144.036 882.015 148.352 886.757 152.53C897.947 162.389 905.022 176.648 908.169 191.064C920.222 246.276 873.787 289.746 844.758 330.844C835.735 343.618 828.193 356.603 822.131 371.032C816.678 384.01 812.838 397.736 813.751 411.92C812.566 412.748 812.139 413.04 811.54 414.408C809.056 420.078 807.865 427.11 806.124 433.099C799.872 454.606 795.06 476.564 788.65 498.005C786.223 506.122 783.018 514.085 779.877 521.947C778.466 525.48 777.015 531.007 774.172 533.543C774.111 533.597 774.052 533.654 773.992 533.709C773.585 517.761 773.009 492.562 768.08 477.576C766.128 491.611 768.073 506.893 768.056 521.083Q768.208 540.636 767.061 560.157Q765.913 579.677 763.472 599.078C759.452 630.604 752.47 661.916 744.26 692.604C742.41 699.519 740.44 706.471 738.19 713.265C736.893 717.179 734.881 720.888 734.147 724.97C725.911 770.79 736.171 852.357 755.286 894.836C758.919 902.91 763.791 910.488 769.193 917.491C769.325 917.662 769.462 917.829 769.596 917.999C755.552 925.448 741.185 933.924 731.108 946.551C724.192 937.08 718.342 926.95 712.366 916.874Q703.153 901.331 694.804 885.308Q686.454 869.285 678.994 852.83Q671.533 836.374 664.983 819.535Q658.433 802.696 652.814 785.524C649.451 775.46 645.429 765.444 643.923 754.887C642.932 747.944 643.62 740.676 644.699 733.782C645.485 728.756 646.925 723.733 647.383 718.678C638.908 732.019 637.268 750.663 636.495 766.088C631.889 752.973 633.916 735.05 638.063 722.044C640.636 713.971 644.079 706.217 646.259 698.011C639.871 704.927 627.001 731.139 622.512 740.711C622.726 733.899 624.77 727.027 626.901 720.598C632.386 704.049 643.417 684.582 642.721 666.913C642.662 665.431 642.648 663.187 641.645 662.044L641.61 662.053C640.125 665.607 639.674 669.676 638.684 673.408C636.622 681.187 633.614 690.345 629.954 697.534C629.269 697.335 628.889 697.013 628.216 697.397C625.838 698.753 619.563 708.867 617.333 711.838C613.421 717.051 609.603 722.388 605.516 727.462C599.68 734.709 593.446 741.696 587.849 749.125C583.289 755.179 577.597 764.721 572.674 769.92C568.56 753.802 557.736 731.314 549.316 716.657Q544.751 708.676 539.347 701.236Q533.944 693.796 527.766 686.986C508.844 666.505 477.148 644.76 451.365 634.089C442.79 630.54 433.873 628.157 424.935 625.733C441.895 604.935 467.781 582.763 489.062 566.079C489.624 567.987 490.236 569.898 490.937 571.759C507.291 615.166 557.837 657.907 599.343 676.367C595.172 672.122 590.88 667.941 587.123 663.318C564.151 635.046 548.273 597.626 539.479 562.484C537.164 553.234 534.624 543.668 533.995 534.129Q545.926 526.608 557.956 519.247C563.169 516.043 568.357 512.552 573.876 509.898C574.68 516.094 575.739 522.111 577.595 528.089C589.149 565.31 623.989 604.953 658.519 623.314C632.706 585.565 616.409 538.411 614.1 492.623C613.967 489.988 614.032 487.401 614.904 484.883C618.936 473.239 633.977 451.485 642.412 442.197C670.474 447.504 700.718 468.087 721.134 487.338C726.914 492.788 731.562 499.345 737.444 504.655L738.007 505.157Q736.925 502.024 735.648 498.966C722.246 467.627 693.941 430.087 661.807 417.325C665.266 411.696 668.952 406.256 672.702 400.818C704.267 401.347 748.788 393.887 776.053 378.047C766.111 380.655 756.414 384.097 746.412 386.566C727.846 391.149 709.257 393.421 690.253 395.152C705.48 383.923 740.124 354.019 748.934 338.601C741.139 341.649 734.711 346.79 727.407 350.739C714.556 357.687 700.745 363.868 687.381 369.799C670.024 377.502 631.783 389.49 613.094 387.334C600.93 385.93 588.368 380.577 577.03 376.224C585.33 374.451 593.734 373.04 601.842 370.47C639.32 358.593 689.615 329.525 715.016 299.295C717.221 296.672 723.328 290.154 723.014 286.592C721.845 286.72 678.477 310.256 671.176 313.734C635.779 330.597 607.609 338.342 569.651 346.82C576.763 341.06 583.959 335.235 590.487 328.811C608.765 310.824 625.242 287.037 631.833 262.102C625.351 270.303 620.913 280.381 615.408 289.247C607.078 302.661 596.576 314.993 585.984 326.653C576.641 311.29 569.092 294.106 562.246 277.507C544.536 234.571 532.967 194.416 526.377 148.482C525.186 140.183 523.633 131.763 523.158 123.39C558.529 131.603 606.115 159.1 637.079 178.229C634.585 184.042 631.828 189.743 629.777 195.734C624.426 211.364 622.224 230.412 624.181 246.755C626.674 237.04 627.178 226.698 629.093 216.813C632.213 200.711 641.248 172.275 651.606 159.954C655.301 155.558 659.988 152.465 664.699 149.278C661.097 158.367 652.703 178.566 657.049 188.058C657.698 189.475 658.477 189.971 659.891 190.503C660.675 190.427 661.385 190.344 662.094 189.967C671.814 184.789 679.679 151.673 682.79 140.848C700.051 134.917 721.653 132.807 739.757 134.585C730.313 130.12 720.507 129.256 710.19 129.939C713.811 124.557 719.036 118.501 724.779 115.374Z"/>
	<path d="M630.62 184.312C632.756 191.407 621.693 208.545 619.201 216.184C617.652 220.934 617.935 226.366 615.977 230.947L615.391 230.981C611.928 222.736 616.018 209.732 619.199 201.924C619.37 201.504 619.655 200.933 619.778 200.481C623.353 195.291 625.551 188.271 630.62 184.312Z"/>
	<path d="M618.908 187.971L619.323 188.969C618.754 194.293 616.512 199.746 614.929 204.862C613.203 210.437 611.753 215.933 610.471 221.623C609.599 225.49 607.68 241.758 605.663 243.67C604.897 235.868 603.688 227.957 604.322 220.11C605.29 208.133 609.625 195.951 618.908 187.971Z"/>
	<path d="M815.294 235.279L815.906 235.897C815.737 239.467 810.541 246.299 808.725 249.451C802.251 260.687 796.431 272.551 790.914 284.288Q773.189 322.706 759.092 362.599C758.53 361.997 758.476 361.638 758.491 360.771C758.791 344.051 788.191 278.203 797.337 261.382C801.961 252.879 808.208 241.986 815.294 235.279Z"/>
	<path d="M804.433 225.901C805.214 226.067 805.561 226.352 806.207 226.802C806.292 227.132 806.448 227.451 806.464 227.792C806.494 228.437 794.193 237.929 792.558 239.286C758.76 267.322 714.178 319.51 697.049 360.306L696.514 361.064C696.421 360.86 696.283 360.67 696.233 360.45C695.736 358.254 697.048 355.092 697.877 353.071C713.288 315.533 754.905 264.915 786.257 238.642C791.834 233.969 797.669 228.717 804.433 225.901Z"/>
	<path d="M819.58 205.167C820.82 204.988 821.913 204.765 823.151 205.087C822.479 206.468 820.341 206.989 818.939 207.474C802.247 213.249 787.185 221.15 771.753 229.639C734.64 250.052 702.28 272.353 672.398 302.575L670.843 303.983L670.44 303.728C670.793 302.272 671.798 301.088 672.681 299.907C681.191 288.526 692.063 278.295 703.055 269.337C727.381 249.512 788.966 209.567 819.58 205.167Z"/>
	<path d="M734.131 233.143C730.069 234.413 724.667 234.166 720.567 233.22C712.288 231.308 704.992 226.523 700.535 219.209C693.983 208.458 693.706 194.346 696.742 182.428C699.148 172.985 705.086 162.331 713.777 157.349C718.02 154.917 721.433 154.589 726.07 155.866C725.946 156.111 725.828 156.359 725.698 156.6C723.768 160.183 718.199 163.771 715.32 166.911C705.74 177.359 701.912 195.994 705.389 209.612C707.388 217.442 711.992 224.498 719.072 228.632C723.943 231.477 728.861 231.773 734.131 233.143Z"/>
	<path d="M614.906 270.828C603.533 266.645 596.441 259.114 588.833 249.939C565.549 221.857 546.866 186.556 538.478 150.958C537.447 146.582 535.234 140.031 535.651 135.612L538.256 135.802C539.615 144.763 543.038 153.566 546.233 162.02C557.547 191.96 573.473 224.343 594.832 248.424C591.08 224.755 593.891 209.514 604.666 187.87C606.349 184.488 608.33 179.401 610.823 176.584C611.224 176.13 611.395 176.069 611.858 175.801L612.495 175.961C609.925 186.038 605.089 195.454 602.887 205.686C602.069 207.267 601.658 209.658 601.188 211.39C597.564 224.767 597.489 238.225 597.447 251.967C602.692 258.968 609.132 264.355 614.906 270.828Z"/>
	<path fill="#D4A478" d="M538.256 135.802L538.89 136.101C543.352 138.178 548.148 139.724 552.686 141.676Q567.195 148.008 581.277 155.242C593.172 161.422 604.289 169.164 616.152 175.228C621.251 177.837 625.833 181.204 630.62 184.312C625.551 188.271 623.353 195.291 619.778 200.481C619.761 200.229 619.731 199.978 619.727 199.725C619.663 195.438 625.31 190.794 626.811 186.648C627.073 185.926 627.517 185.411 628.003 184.832L627.985 184.164C625.114 182.322 622.242 180.267 619.215 178.703C618.719 179.346 618.212 179.849 617.986 180.639C616.981 180.887 616.968 180.824 616.012 180.635C615.341 180.502 614.651 180.408 613.976 180.297L613.067 178.988L612.93 179.297L612.911 178.61L613.111 179.402L612.402 179.306C610.673 184.094 605.556 202.801 602.887 205.686C605.089 195.454 609.925 186.038 612.495 175.961L611.858 175.801C611.395 176.069 611.224 176.13 610.823 176.584C608.33 179.401 606.349 184.488 604.666 187.87C593.891 209.514 591.08 224.755 594.832 248.424C573.473 224.343 557.547 191.96 546.233 162.02C543.038 153.566 539.615 144.763 538.256 135.802Z"/>
	<path fill="#FEFEFE" d="M726.07 155.866C727.057 154.771 727.158 154.492 728.712 154.405C731.69 154.237 736.127 156.196 738.962 157.106C759.973 163.848 777.541 175.237 792.443 191.424C796.369 195.688 799.395 200.6 802.395 205.533C793.097 211.773 743.866 235.302 734.542 233.281C734.401 233.251 734.268 233.189 734.131 233.143C728.861 231.773 723.943 231.477 719.072 228.632C711.992 224.498 707.388 217.442 705.389 209.612C701.912 195.994 705.74 177.359 715.32 166.911C718.199 163.771 723.768 160.183 725.698 156.6C725.828 156.359 725.946 156.111 726.07 155.866Z"/>
	<path fill="#4E8736" d="M728.738 158.13C742.162 163.264 770.545 176.624 781.366 185.632C782.639 186.692 783.9 187.884 783.813 189.672C783.68 192.428 780.457 195.345 778.598 197.193C774.043 200.523 769.473 202.157 763.793 202.048C754.407 201.867 745.108 196.978 738.692 190.309C729.647 180.907 728.464 170.657 728.738 158.13Z"/>
</svg>
